# Blender 4.0.2
# www.blender.org
mtllib Muro1.mtl
o Cube
v 0.905213 1.000000 -0.905424
v 0.905429 -1.000000 -0.905496
v 0.905351 1.000000 0.900277
v 0.905446 -1.000000 0.899665
v -0.900553 1.000000 -0.906414
v -0.900919 -1.000000 -0.905398
v -0.899727 1.000000 0.899016
v -0.900391 -1.000000 0.899507
v 0.905213 3.000000 -0.905424
v 0.905351 3.000000 0.900277
v -0.900553 3.000000 -0.906414
v -0.899727 3.000000 0.899016
v 0.907746 5.000000 -0.906199
v 0.910483 5.000000 0.900106
v -0.900177 5.000000 -0.905750
v -0.900062 5.000000 0.899883
v -0.900000 1.000000 1.000000
v -0.900000 1.000000 -1.000000
v -0.900000 3.000000 1.000000
v -0.900000 3.000000 -1.000000
v 0.905000 1.000000 -1.000000
v 0.905000 3.000000 -1.000000
v 0.905000 1.000000 1.000000
v 0.905000 3.000000 1.000000
v 1.000000 1.000000 0.900000
v -1.000000 1.000000 0.900000
v 1.000000 3.000000 0.900000
v -1.000000 3.000000 0.900000
v -1.000000 1.000000 -0.905000
v -1.000000 3.000000 -0.905000
v 1.000000 1.000000 -0.905000
v 1.000000 3.000000 -0.905000
v -0.900553 1.100000 -0.906414
v 0.905213 1.100000 -0.905424
v 0.905351 1.100000 0.900277
v -0.899727 1.100000 0.899016
v -0.900000 1.100000 1.000000
v -0.900000 1.100000 -1.000000
v 0.905000 1.100000 -1.000000
v 0.905000 1.100000 1.000000
v 1.000000 1.100000 0.900000
v -1.000000 1.100000 0.900000
v -1.000000 1.100000 -0.905000
v 1.000000 1.100000 -0.905000
v -0.900553 2.905000 -0.906414
v 0.905351 2.905000 0.900277
v -0.900000 2.905000 1.000000
v -0.900000 2.905000 -1.000000
v 0.905000 2.905000 -1.000000
v 0.905000 2.905000 1.000000
v 1.000000 2.905000 0.900000
v -1.000000 2.905000 0.900000
v -1.000000 2.905000 -0.905000
v 1.000000 2.905000 -0.905000
v 0.905213 2.905000 -0.905424
v -0.899727 2.905000 0.899016
v 0.905213 -0.900000 -0.905424
v -0.899727 -0.900000 0.899016
v 0.905351 -0.900000 0.900277
v -0.900553 -0.900000 -0.906414
v -0.900000 -0.900000 -1.000000
v -0.900000 -0.900000 1.000000
v 0.905000 -0.900000 1.000000
v 0.905000 -0.900000 -1.000000
v 1.000000 -0.900000 0.900000
v -1.000000 -0.900000 0.900000
v 1.000000 -0.900000 -0.905000
v -1.000000 -0.900000 -0.905000
v -0.899727 4.900000 0.899016
v -0.900553 4.900000 -0.906414
v 0.905351 4.900000 0.900277
v 0.905213 4.900000 -0.905424
v -0.900000 4.900000 -1.000000
v -0.900000 4.900000 1.000000
v 0.905000 4.900000 -1.000000
v 0.905000 4.900000 1.000000
v 1.000000 4.900000 0.900000
v -1.000000 4.900000 0.900000
v -1.000000 4.900000 -0.905000
v 1.000000 4.900000 -0.905000
v 0.903875 1.050000 -0.905575
v -0.900806 1.050000 0.901997
v -0.901886 1.050000 -0.905822
v 0.903786 1.050000 0.901191
v -0.899407 2.952500 -0.906862
v 0.906811 2.952500 0.900208
v -0.899200 2.952500 0.900031
v 0.905915 2.952500 -0.906614
vn -0.9997 -0.0241 -0.0059
vn -1.0000 -0.0000 -0.0027
vn -0.0142 -0.0000 -0.9999
vn 0.0029 -0.0000 1.0000
vn 1.0000 -0.0000 -0.0023
vn 0.0098 -0.0086 0.9999
vn 0.9995 0.0307 0.0035
vn 0.0098 0.0215 0.9997
vn 0.0045 0.0251 -0.9997
vn 0.9987 -0.0512 0.0035
vn -1.0000 0.0038 -0.0059
vn 0.0045 -0.0079 -1.0000
vn -0.0002 0.6841 -0.7294
vn -1.0000 -0.0033 -0.0027
vn -0.9999 -0.0112 -0.0027
vn -1.0000 -0.0000 -0.0059
vn -0.0000 -0.0000 1.0000
vn 0.0001 -0.8913 -0.4534
vn 0.9999 0.0148 -0.0023
vn 1.0000 -0.0000 0.0035
vn 0.9997 -0.0253 -0.0023
vn -0.0000 0.7075 0.7067
vn -0.0000 -0.9032 0.4292
vn -0.0000 -0.0000 -1.0000
vn -0.0000 -1.0000 -0.0000
vn -0.0000 1.0000 -0.0000
vn 0.0029 0.0016 1.0000
vn 0.0029 -0.0014 1.0000
vn -0.4270 -0.9043 -0.0000
vn -0.7077 0.7065 -0.0000
vn 1.0000 -0.0000 -0.0000
vn 0.0098 -0.0000 1.0000
vn 0.0045 -0.0000 -1.0000
vn -0.0142 0.0067 -0.9999
vn -0.0142 0.0091 -0.9999
vn 0.7451 0.6670 -0.0000
vn 0.4541 -0.8909 -0.0000
vn -1.0000 -0.0000 -0.0000
vn 0.4611 -0.8873 -0.0000
vn -0.0142 -0.0115 -0.9998
vn -0.4541 -0.8910 -0.0000
vn 0.0029 0.0182 0.9998
vn 0.0002 -0.8908 0.4545
vn 0.9996 -0.0267 -0.0023
vn -0.0000 -0.8837 -0.4680
vn -0.9998 0.0214 -0.0027
vn 0.0045 0.0029 -1.0000
vn 0.0098 0.0593 0.9982
vn 0.9995 -0.0312 0.0035
vn -0.9996 0.0266 -0.0059
vn -0.7104 -0.7038 0.0002
vn 0.0045 0.0007 -1.0000
vn 0.0098 0.0048 0.9999
vn 0.7266 -0.6871 -0.0000
vn -0.0000 -0.6872 -0.7264
vn 1.0000 0.0009 0.0035
vn -0.0001 -0.7083 0.7059
vn -1.0000 0.0036 -0.0059
vn 1.0000 0.0022 -0.0022
vn 0.0029 -0.0061 1.0000
vn -0.0142 -0.0101 -0.9998
vn -1.0000 0.0066 -0.0027
vn -0.9996 -0.0266 -0.0059
vn 0.9995 0.0312 0.0035
vn 0.0098 -0.0593 0.9982
vn 0.0045 -0.0029 -1.0000
vn -0.9998 -0.0214 -0.0027
vn -0.0000 0.8837 -0.4680
vn 0.9996 0.0267 -0.0023
vn 0.0002 0.8908 0.4545
vn 0.0029 -0.0182 0.9998
vn -0.4541 0.8910 -0.0000
vn -0.0142 0.0115 -0.9998
vn 0.4611 0.8873 -0.0000
vn 0.4541 0.8909 -0.0000
vn -0.0142 -0.0091 -0.9999
vn -0.4270 0.9043 -0.0000
vn 0.0029 0.0014 1.0000
vn -0.0000 0.9032 0.4292
vn 0.9999 -0.0148 -0.0023
vn 0.0001 0.8913 -0.4534
vn -0.9999 0.0112 -0.0027
vn 0.0045 -0.0251 -0.9997
vn 0.0098 -0.0215 0.9997
vn 0.9995 -0.0307 0.0035
vn -0.9997 0.0241 -0.0059
vn -0.0000 0.6859 -0.7277
vn -0.0000 -0.8908 -0.4543
vn -0.0001 0.7067 0.7075
vn -0.0000 -0.9029 0.4298
vn -0.4263 -0.9046 -0.0000
vn -0.7073 0.7069 -0.0000
vn 0.7350 0.6781 -0.0011
vn 0.4507 -0.8927 -0.0002
vn 0.4615 -0.8872 -0.0000
vn -0.4501 -0.8930 0.0003
vn -0.0000 -0.8923 0.4515
vn 0.0001 -0.8832 -0.4689
vn -0.7085 -0.7057 -0.0000
vn 0.7266 -0.6870 -0.0000
vn -0.0000 -0.6869 -0.7268
vn -0.0000 -0.7088 0.7054
vn 0.0001 0.8832 -0.4689
vn -0.0000 0.8923 0.4515
vn -0.4501 0.8930 0.0003
vn 0.4615 0.8872 -0.0000
vn 0.4507 0.8927 -0.0002
vn -0.4263 0.9046 -0.0000
vn -0.0000 0.9029 0.4298
vn -0.0000 0.8908 -0.4543
vt 0.619487 0.773210
vt 0.619430 0.767137
vt 0.631395 0.767137
vt 0.693365 0.262123
vt 0.706276 0.505039
vt 0.693365 0.505039
vt 0.731924 0.262123
vt 0.744639 0.505039
vt 0.731924 0.505039
vt 0.744639 0.262123
vt 0.756740 0.505039
vt 0.744639 0.505039
vt 0.474570 0.517829
vt 0.486662 0.760744
vt 0.474570 0.760744
vt 0.693365 0.524221
vt 0.680544 0.524221
vt 0.680588 0.511436
vt 0.667719 0.773211
vt 0.667728 0.767138
vt 0.680478 0.767138
vt 0.680478 0.773210
vt 0.680544 0.767137
vt 0.693365 0.767137
vt 0.655678 0.773210
vt 0.655587 0.767137
vt 0.667706 0.767137
vt 0.680478 0.524223
vt 0.667728 0.524222
vt 0.667706 0.511436
vt 0.631395 0.524221
vt 0.619430 0.524221
vt 0.619345 0.511436
vt 0.667706 0.524221
vt 0.655587 0.524221
vt 0.655912 0.511436
vt 0.230838 0.268479
vt 0.000000 0.255698
vt 0.231143 0.255698
vt 0.499573 0.524222
vt 0.486662 0.524222
vt 0.499461 0.511437
vt 0.499443 0.773211
vt 0.486662 0.767138
vt 0.499573 0.767138
vt 0.462605 0.517829
vt 0.474570 0.760745
vt 0.462605 0.760745
vt 0.462597 0.255731
vt 0.693365 0.498647
vt 0.462597 0.498647
vt 0.718930 0.979669
vt 0.706993 0.748951
vt 0.718962 0.748860
vt 0.643334 0.773210
vt 0.631395 0.767137
vt 0.643486 0.767137
vt 0.719174 0.262123
vt 0.731924 0.505038
vt 0.719174 0.505038
vt 0.643486 0.524222
vt 0.631395 0.524222
vt 0.643387 0.511436
vt 0.000766 0.012781
vt 0.231476 0.000000
vt 0.231534 0.012782
vt 0.545313 0.973462
vt 0.558041 0.742768
vt 0.558064 0.973536
vt 0.231698 0.255731
vt 0.462467 0.498647
vt 0.231698 0.498647
vt 0.744689 -0.000000
vt 0.975444 0.230881
vt 0.744689 0.230941
vt 0.719096 0.748967
vt 0.949983 0.517824
vt 0.950031 0.749302
vt 0.655587 0.524221
vt 0.643486 0.524221
vt 0.654931 0.511436
vt 0.655401 0.773210
vt 0.643486 0.767137
vt 0.655587 0.767137
vt 0.532452 0.742446
vt 0.519617 0.511643
vt 0.532452 0.511436
vt 0.693130 0.012790
vt 0.462420 0.000000
vt 0.693270 0.000000
vt 0.231591 0.000000
vt 0.462361 0.242916
vt 0.231591 0.242916
vt 0.706276 0.262123
vt 0.719096 0.505040
vt 0.706276 0.505040
vt 0.757111 0.262123
vt 0.769230 0.505039
vt 0.757111 0.505039
vt 0.512287 0.524222
vt 0.499573 0.524222
vt 0.512335 0.511437
vt 0.512434 0.773211
vt 0.499573 0.767138
vt 0.512287 0.767138
vt 0.231681 0.524194
vt 0.462471 0.511437
vt 0.462451 0.524194
vt 0.962359 0.748825
vt 0.974414 0.518007
vt 0.974299 0.748775
vt 0.000000 0.511396
vt 0.230769 0.754312
vt 0.000000 0.754312
vt 0.519591 0.742446
vt 0.531919 0.973255
vt 0.519591 0.973439
vt 0.731613 0.243236
vt 0.719068 0.236843
vt 0.731783 0.236843
vt 0.557967 0.511436
vt 0.545313 0.742270
vt 0.545451 0.511502
vt 0.619345 0.754672
vt 0.607043 0.748279
vt 0.619144 0.748279
vt 0.693365 0.749037
vt 0.705863 0.979628
vt 0.693365 0.979753
vt 0.594735 0.754672
vt 0.582662 0.748279
vt 0.594754 0.748279
vt 0.719096 0.517994
vt 0.707024 0.748593
vt 0.706993 0.517825
vt 0.705800 0.243236
vt 0.693270 0.236843
vt 0.706181 0.236843
vt 0.594754 0.754672
vt 0.594925 0.748279
vt 0.607043 0.748279
vt 0.706388 0.243236
vt 0.706248 0.236843
vt 0.719068 0.236843
vt 0.732056 0.243236
vt 0.731939 0.236843
vt 0.744689 0.236843
vt 0.570621 0.754672
vt 0.570697 0.748279
vt 0.582662 0.748279
vt 0.769230 0.255731
vt 1.000000 0.486501
vt 0.769230 0.486501
vt 0.731783 0.006073
vt 0.000000 0.997863
vt 0.230769 0.767093
vt 0.230769 0.997864
vt 0.619144 0.517509
vt 0.231534 0.997880
vt 0.462301 0.767110
vt 0.462301 0.997880
vt 0.594754 0.517509
vt 0.719096 0.980072
vt 0.949865 0.749302
vt 0.949865 0.980073
vt 0.706181 0.006073
vt 0.607043 0.517509
vt 0.719068 0.006073
vt 0.744689 0.006073
vt 0.582662 0.517509
vt 0.000107 0.767093
vt 0.230864 0.767093
vt 0.757139 0.517825
vt 0.706361 0.517825
vt 0.462325 0.255730
vt 0.231534 0.255731
vt 0.462475 0.511437
vt 0.231534 0.511436
vt 0.719096 0.517823
vt 0.693349 0.511436
vt 0.462475 0.511436
vt 0.462475 0.773530
vt 0.486652 0.773529
vt 0.756727 0.517825
vt 0.744592 0.517825
vt 0.706213 0.517824
vt 0.231681 0.767109
vt 0.462451 0.767109
vt 0.462361 0.255706
vt 0.693130 0.255706
vt 0.000766 0.255698
vt 0.231534 0.255698
vt 0.000070 0.511395
vt 0.230838 0.511396
vt 0.474570 0.517829
vt 0.462529 0.511437
vt 0.731924 0.262123
vt 0.719291 0.255731
vt 0.719096 0.262123
vt 0.706415 0.255731
vt 0.769230 0.262123
vt 0.756941 0.255731
vt 0.706276 0.262123
vt 0.705894 0.255731
vt 0.693396 0.518091
vt 0.705468 0.748690
vt 0.693365 0.748860
vt 0.486662 0.517829
vt 0.486642 0.511437
vt 0.974858 0.748951
vt 0.962359 0.979542
vt 0.962359 0.748825
vt 0.756740 0.262123
vt 0.756941 0.255731
vt 0.557967 0.511730
vt 0.570621 0.742564
vt 0.558105 0.742498
vt 0.744639 0.262123
vt 0.744468 0.255731
vt 0.962359 0.518008
vt 0.950031 0.748818
vt 0.950031 0.517825
vt 0.570119 0.973382
vt 0.558064 0.742564
vt 0.570004 0.742614
vt 0.719068 0.006073
vt 0.731930 0.000000
vt 0.532452 0.742238
vt 0.545313 0.511436
vt 0.545286 0.742446
vt 0.607043 0.517509
vt 0.618957 0.511436
vt 0.545180 0.973214
vt 0.532452 0.742520
vt 0.545203 0.742446
vt 0.582662 0.517509
vt 0.594602 0.511436
vt 0.950031 0.979587
vt 0.961968 0.748868
vt 0.962000 0.979678
vt 0.693270 0.006073
vt 0.706052 0.000000
vt 0.594925 0.517509
vt 0.595015 0.511436
vt 0.706248 0.006073
vt 0.706181 0.000000
vt 0.731939 0.006073
vt 0.570697 0.517509
vt 0.570755 0.511436
vt 0.000070 0.268479
vt 0.693365 0.255731
vt 0.706993 0.979719
vt 0.000000 0.000000
vt 0.545313 0.742564
vt 0.462467 0.255731
vt 0.975477 0.000005
vt 0.719134 0.517824
vt 0.519590 0.742410
vt 0.462361 0.012790
vt 0.462361 0.000000
vt 0.231534 0.511438
vt 0.962359 0.517824
vt 0.230769 0.511396
vt 0.531908 0.742488
vt 0.557967 0.742564
vt 0.705966 0.748860
vt 0.719096 0.748860
vt 1.000000 0.255731
vt 0.000000 0.767093
vt 0.231534 0.767109
vt 0.719096 0.749302
vt 0.705468 0.517825
vt 0.974961 0.979719
vt 0.570621 0.511436
vt 0.962348 0.748776
vt 0.558064 0.973565
vt 0.532452 0.511470
vt 0.532452 0.973418
vt 0.950031 0.748818
s 0
usemtl Material.002
f 85/1/1 11/2/1 20/3/1
f 17/4/2 58/5/2 62/6/2
f 29/7/3 60/8/3 68/9/3
f 25/10/4 59/11/4 65/12/4
f 21/13/5 57/14/5 64/15/5
f 78/16/6 69/17/6 16/18/6
f 86/19/7 10/20/7 24/21/7
f 87/22/8 12/23/8 28/24/8
f 88/25/9 9/26/9 32/27/9
f 76/28/10 71/29/10 14/30/10
f 73/31/11 70/32/11 15/33/11
f 80/34/12 72/35/12 13/36/12
f 75/37/13 15/38/13 13/39/13
f 69/40/14 74/41/14 16/42/14
f 87/43/15 19/44/15 12/45/15
f 5/46/16 61/47/16 60/48/16
f 23/49/17 62/50/17 63/51/17
f 85/52/18 22/53/18 88/54/18
f 88/55/19 22/56/19 9/57/19
f 3/58/20 63/59/20 59/60/20
f 72/61/21 75/62/21 13/63/21
f 76/64/22 16/65/22 74/66/22
f 87/67/23 24/68/23 19/69/23
f 18/70/24 64/71/24 61/72/24
f 2/73/25 8/74/25 6/75/25
f 13/76/26 16/77/26 14/78/26
f 71/79/27 77/80/27 14/81/27
f 86/82/28 27/83/28 10/84/28
f 87/85/29 30/86/29 85/87/29
f 79/88/30 16/89/30 15/90/30
f 31/91/31 65/92/31 67/93/31
f 7/94/32 66/95/32 58/96/32
f 1/97/33 67/98/33 57/99/33
f 70/100/34 79/101/34 15/102/34
f 85/103/35 30/104/35 11/105/35
f 80/106/36 14/107/36 77/108/36
f 86/109/37 32/110/37 27/111/37
f 26/112/38 68/113/38 66/114/38
f 81/115/39 41/116/39 84/117/39
f 83/118/40 43/119/40 33/120/40
f 83/121/41 42/122/41 43/123/41
f 84/124/42 41/125/42 35/126/42
f 84/127/43 37/128/43 82/129/43
f 81/130/44 39/131/44 34/132/44
f 81/133/45 38/134/45 39/135/45
f 82/136/46 37/137/46 36/138/46
f 81/139/47 34/140/47 44/141/47
f 82/142/48 36/143/48 42/144/48
f 84/145/49 35/146/49 40/147/49
f 83/148/50 33/149/50 38/150/50
f 44/151/31 51/152/31 41/153/31
f 43/119/3 45/154/3 33/120/3
f 42/155/38 53/156/38 43/157/38
f 41/125/4 46/158/4 35/126/4
f 40/159/17 47/160/17 37/161/17
f 39/131/5 55/162/5 34/132/5
f 38/163/24 49/164/24 39/165/24
f 37/137/2 56/166/2 36/138/2
f 34/140/33 54/167/33 44/141/33
f 36/143/32 52/168/32 42/144/32
f 35/146/20 50/169/20 40/147/20
f 33/149/16 48/170/16 38/150/16
f 8/171/51 68/113/51 6/172/51
f 2/173/52 57/99/52 67/98/52
f 8/174/53 58/96/53 66/95/53
f 67/93/54 4/175/54 2/176/54
f 61/72/55 2/177/55 6/178/55
f 4/179/56 59/60/56 63/59/56
f 63/51/57 8/180/57 4/181/57
f 6/182/58 60/48/58 61/47/58
f 2/183/59 64/15/59 57/14/59
f 4/184/60 65/12/60 59/11/60
f 6/185/61 68/9/61 60/8/61
f 8/186/62 62/6/62 58/5/62
f 32/187/31 77/108/31 27/188/31
f 30/104/3 70/100/3 11/105/3
f 28/189/38 79/88/38 30/190/38
f 27/83/4 71/79/4 10/84/4
f 24/191/17 74/66/17 19/192/17
f 22/56/5 72/61/5 9/57/5
f 19/44/2 69/40/2 12/45/2
f 20/193/24 75/37/24 22/194/24
f 9/26/33 80/34/33 32/27/33
f 11/2/16 73/31/16 20/3/16
f 10/20/20 76/28/20 24/21/20
f 12/23/32 78/16/32 28/24/32
f 18/195/63 5/46/63 83/196/63
f 23/197/64 3/58/64 84/198/64
f 26/199/65 7/94/65 82/200/65
f 31/201/66 1/97/66 81/202/66
f 7/203/67 17/4/67 82/204/67
f 18/205/68 81/206/68 21/207/68
f 1/208/69 21/13/69 81/209/69
f 17/210/70 84/211/70 82/212/70
f 3/213/71 25/10/71 84/214/71
f 26/215/72 83/216/72 29/217/72
f 5/218/73 29/7/73 83/219/73
f 25/220/74 81/221/74 84/222/74
f 54/223/75 86/224/75 51/225/75
f 45/154/76 53/226/76 85/227/76
f 53/228/77 87/229/77 85/230/77
f 46/158/78 51/231/78 86/232/78
f 50/233/79 87/234/79 47/235/79
f 55/162/80 49/236/80 88/237/80
f 49/238/81 85/239/81 88/240/81
f 56/166/82 47/241/82 87/242/82
f 54/167/83 55/243/83 88/244/83
f 52/168/84 56/245/84 87/246/84
f 50/169/85 46/247/85 86/227/85
f 48/170/86 45/248/86 85/249/86
f 17/4/2 7/203/2 58/5/2
f 29/7/3 5/218/3 60/8/3
f 25/10/4 3/213/4 59/11/4
f 21/13/5 1/208/5 57/14/5
f 75/37/87 73/250/87 15/38/87
f 5/46/16 18/195/16 61/47/16
f 23/49/17 17/251/17 62/50/17
f 85/52/88 20/252/88 22/53/88
f 3/58/20 23/197/20 63/59/20
f 76/64/89 14/253/89 16/65/89
f 87/67/90 86/254/90 24/68/90
f 18/70/24 21/255/24 64/71/24
f 2/73/25 4/256/25 8/74/25
f 13/76/26 15/257/26 16/77/26
f 87/85/91 28/258/91 30/86/91
f 79/88/92 78/259/92 16/89/92
f 31/91/31 25/260/31 65/92/31
f 7/94/32 26/199/32 66/95/32
f 1/97/33 31/201/33 67/98/33
f 80/106/93 13/261/93 14/107/93
f 86/109/94 88/262/94 32/110/94
f 26/112/38 29/263/38 68/113/38
f 81/115/95 44/264/95 41/116/95
f 83/121/96 82/265/96 42/122/96
f 84/127/97 40/266/97 37/128/97
f 81/133/98 83/267/98 38/134/98
f 44/151/31 54/268/31 51/152/31
f 43/119/3 53/226/3 45/154/3
f 42/155/38 52/269/38 53/156/38
f 41/125/4 51/231/4 46/158/4
f 40/159/17 50/270/17 47/160/17
f 39/131/5 49/236/5 55/162/5
f 38/163/24 48/271/24 49/164/24
f 37/137/2 47/241/2 56/166/2
f 34/140/33 55/243/33 54/167/33
f 36/143/32 56/245/32 52/168/32
f 35/146/20 46/247/20 50/169/20
f 33/149/16 45/248/16 48/170/16
f 8/171/99 66/114/99 68/113/99
f 67/93/100 65/92/100 4/175/100
f 61/72/101 64/71/101 2/177/101
f 63/51/102 62/50/102 8/180/102
f 32/187/31 80/106/31 77/108/31
f 30/104/3 79/101/3 70/100/3
f 28/189/38 78/259/38 79/88/38
f 27/83/4 77/80/4 71/79/4
f 24/191/17 76/64/17 74/66/17
f 22/56/5 75/62/5 72/61/5
f 19/44/2 74/41/2 69/40/2
f 20/193/24 73/250/24 75/37/24
f 9/26/33 72/35/33 80/34/33
f 11/2/16 70/32/16 73/31/16
f 10/20/20 71/29/20 76/28/20
f 12/23/32 69/17/32 78/16/32
f 18/205/103 83/272/103 81/206/103
f 17/210/104 23/273/104 84/211/104
f 26/215/105 82/274/105 83/216/105
f 25/220/106 31/275/106 81/221/106
f 54/223/107 88/276/107 86/224/107
f 53/228/108 52/277/108 87/229/108
f 50/233/109 86/278/109 87/234/109
f 49/238/110 48/279/110 85/239/110
