# Blender 4.0.2
# www.blender.org
mtllib Escaleras1.mtl
o Cubo
v -0.500000 -0.875000 0.500000
v -0.500000 -0.657676 0.500000
v -0.500000 -0.875000 -0.500000
v -0.500000 -0.657676 -0.500000
v 0.500000 -0.875000 0.500000
v 0.500000 -0.657676 0.500000
v 0.500000 -0.875000 -0.500000
v 0.500000 -0.657676 -0.500000
v -0.500000 -0.648667 0.266455
v -0.500000 -0.648667 -0.500000
v 0.500000 -0.648667 -0.500000
v 0.500000 -0.648667 0.266455
v -0.500000 -0.458341 0.266455
v -0.500000 -0.458341 -0.500000
v 0.500000 -0.458341 -0.500000
v 0.500000 -0.458341 0.266455
v -0.500000 -0.451466 0.266455
v -0.500000 -0.451466 -0.500000
v 0.500000 -0.451466 -0.500000
v 0.500000 -0.451466 0.266455
v -0.500000 -0.451466 0.051451
v -0.500000 -0.451466 -0.500000
v 0.500000 -0.451466 -0.500000
v 0.500000 -0.451466 0.051451
v -0.500000 -0.251466 0.051451
v -0.500000 -0.251466 -0.500000
v 0.500000 -0.251466 -0.500000
v 0.500000 -0.251466 0.051451
v -0.500000 -0.242544 -0.227827
v -0.500000 -0.242544 -0.500000
v 0.500000 -0.242544 -0.500000
v 0.500000 -0.242544 -0.227827
v -0.500000 -0.042544 -0.227827
v -0.500000 -0.042544 -0.500000
v 0.500000 -0.042544 -0.500000
v 0.500000 -0.042544 -0.227827
v -0.500000 -0.035962 -0.479908
v -0.500000 -0.035962 -0.500000
v 0.500000 -0.035962 -0.500000
v 0.500000 -0.035962 -0.479908
v -0.500000 0.453101 -0.479908
v -0.500000 0.453101 -0.500000
v 0.500000 0.453101 -0.500000
v 0.500000 0.453101 -0.479908
v -0.500000 1.350964 -0.479908
v -0.500000 1.350964 -0.500000
v 0.500000 1.350964 -0.500000
v 0.500000 1.350964 -0.479908
vn -1.0000 -0.0000 -0.0000
vn -0.0000 -0.0000 -1.0000
vn 1.0000 -0.0000 -0.0000
vn -0.0000 -0.0000 1.0000
vn -0.0000 -1.0000 -0.0000
vn -0.0000 0.9993 0.0385
vn -0.0000 1.0000 -0.0000
vn -0.0000 0.9995 0.0319
vn -0.0000 0.9997 0.0261
vt 0.644802 0.706277
vt 0.708635 0.412554
vt 0.708635 0.706277
vt 0.678240 0.293723
vt 0.742073 -0.000000
vt 0.742073 0.293723
vt 0.769204 0.706277
vt 0.833037 0.412554
vt 0.833037 0.706277
vt 0.898204 0.293723
vt 0.962037 -0.000000
vt 0.962037 0.293723
vt 0.000000 0.706277
vt 0.293723 0.412554
vt 0.293723 0.706277
vt 0.766558 0.481151
vt 0.769204 0.412554
vt 0.175412 1.000000
vt 0.119509 0.706277
vt 0.175412 0.706277
vt 0.644802 0.412554
vt 0.642156 0.637679
vt 0.642156 0.412554
vt 0.901673 0.706277
vt 0.901673 0.412554
vt 0.675593 -0.000000
vt 0.678240 -0.000000
vt 0.710655 0.706277
vt 0.708635 0.481151
vt 0.710655 0.481151
vt 0.675593 0.293723
vt 0.619690 -0.000000
vt 0.766558 0.706277
vt 0.586253 0.412554
vt 0.964813 0.706277
vt 0.901673 0.412554
vt 0.964813 0.412554
vt 0.586253 0.637679
vt 0.584234 0.412554
vt 0.119509 1.000000
vt 0.117489 0.706277
vt 0.619690 0.293723
vt 0.617671 -0.000000
vt 0.293723 0.412554
vt 0.455697 0.353809
vt 0.455697 0.412554
vt 0.455697 0.412554
vt 0.617671 0.187428
vt 0.617671 0.412554
vt 0.617671 0.250580
vt 0.824138 0.293723
vt 0.742073 0.000000
vt 0.824138 -0.000000
vt 0.455697 0.412554
vt 0.617671 0.353809
vt 0.058745 1.000000
vt 0.000000 0.706277
vt 0.058745 0.706277
vt 0.000000 0.412554
vt 0.293723 0.353809
vt 0.000000 0.351188
vt 0.293723 0.292444
vt 0.293723 0.351188
vt 0.000000 0.353809
vt 0.373667 0.351188
vt 0.537727 0.351188
vt 0.617671 0.351188
vt 0.299625 0.290510
vt 0.373667 0.292444
vt 0.617671 0.292444
vt 0.117489 1.000000
vt 0.058745 0.706277
vt 0.117489 0.706277
vt 0.584234 0.706277
vt 0.440585 0.412554
vt 0.584234 0.412554
vt 0.611769 0.290510
vt 0.617671 0.290510
vt 0.898204 0.293723
vt 0.824138 -0.000000
vt 0.898204 -0.000000
vt 0.000000 0.292444
vt 0.293723 0.290510
vt 0.293723 0.146862
vt 0.299625 0.000000
vt 0.299625 0.146862
vt 0.000000 0.290510
vt 0.617671 0.146862
vt 0.962037 0.000000
vt 0.967937 0.293723
vt 0.962037 0.293723
vt 0.611769 0.146862
vt 0.617671 0.000000
vt 0.440585 0.706277
vt 0.293723 0.412554
vt 0.000000 0.146862
vt 0.293723 0.000000
vt 0.898204 -0.000000
vt 0.000000 0.412554
vt 0.833037 0.706277
vt 0.584234 0.637679
vt 0.117489 1.000000
vt 0.617671 0.293723
vt 0.742073 0.293723
vt 0.455697 0.353809
vt 0.000000 1.000000
vt 0.537727 0.292444
vt 0.058745 1.000000
vt 0.967937 0.000000
vt 0.611769 0.000000
vt 0.293723 0.706277
vt 0.000000 0.000000
s 0
usemtl Material.001
f 2/1/1 3/2/1 1/3/1
f 4/4/2 7/5/2 3/6/2
f 8/7/3 5/8/3 7/9/3
f 6/10/4 1/11/4 5/12/4
f 7/13/5 1/14/5 3/15/5
f 8/7/3 12/16/3 6/17/3
f 12/18/4 13/19/4 9/20/4
f 4/21/1 9/22/1 10/23/1
f 6/24/6 9/8/6 2/25/6
f 4/4/2 11/26/2 8/27/2
f 15/28/3 20/29/3 16/30/3
f 10/31/2 15/32/2 11/26/2
f 11/33/3 16/30/3 12/16/3
f 9/22/1 14/34/1 10/23/1
f 20/35/7 21/36/7 17/37/7
f 13/38/1 18/39/1 14/34/1
f 16/40/4 17/41/4 13/19/4
f 14/42/2 19/43/2 15/32/2
f 23/44/3 28/45/3 24/46/3
f 19/47/7 22/47/7 23/47/7
f 20/48/1 23/49/1 24/50/1
f 18/47/7 21/47/7 22/47/7
f 28/51/8 29/52/8 25/53/8
f 21/54/1 26/55/1 22/49/1
f 24/56/4 25/57/4 21/58/4
f 22/59/2 27/60/2 23/44/2
f 30/61/2 35/62/2 31/63/2
f 26/64/2 31/63/2 27/60/2
f 27/60/3 32/65/3 28/45/3
f 26/55/1 29/66/1 30/67/1
f 35/62/3 40/68/3 36/69/3
f 31/63/3 36/69/3 32/65/3
f 29/66/1 34/70/1 30/67/1
f 32/71/4 33/72/4 29/73/4
f 40/74/4 41/75/4 37/76/4
f 34/70/1 37/77/1 38/78/1
f 36/79/9 37/80/9 33/81/9
f 34/82/2 39/83/2 35/62/2
f 43/84/3 48/85/3 44/86/3
f 38/87/2 43/84/2 39/83/2
f 39/83/3 44/86/3 40/68/3
f 37/77/1 42/88/1 38/78/1
f 46/89/7 48/90/7 47/91/7
f 41/92/1 46/93/1 42/88/1
f 44/94/4 45/95/4 41/75/4
f 42/96/2 47/97/2 43/84/2
f 2/1/1 4/21/1 3/2/1
f 4/4/2 8/27/2 7/5/2
f 8/7/3 6/17/3 5/8/3
f 6/10/4 2/98/4 1/11/4
f 7/13/5 5/99/5 1/14/5
f 8/7/3 11/33/3 12/16/3
f 12/18/4 16/40/4 13/19/4
f 4/21/1 2/1/1 9/22/1
f 6/24/6 12/100/6 9/8/6
f 4/4/2 10/31/2 11/26/2
f 15/28/3 19/3/3 20/29/3
f 10/31/2 14/42/2 15/32/2
f 11/33/3 15/28/3 16/30/3
f 9/22/1 13/38/1 14/34/1
f 20/35/7 24/24/7 21/36/7
f 13/38/1 17/101/1 18/39/1
f 16/40/4 20/102/4 17/41/4
f 14/42/2 18/103/2 19/43/2
f 23/44/3 27/60/3 28/45/3
f 19/47/7 18/47/7 22/47/7
f 20/47/7 19/47/7 23/47/7
f 18/49/3 17/48/3 21/50/3
f 28/51/8 32/104/8 29/52/8
f 21/54/1 25/105/1 26/55/1
f 24/56/4 28/106/4 25/57/4
f 22/59/2 26/64/2 27/60/2
f 30/61/2 34/82/2 35/62/2
f 26/64/2 30/61/2 31/63/2
f 27/60/3 31/63/3 32/65/3
f 26/55/1 25/105/1 29/66/1
f 35/62/3 39/83/3 40/68/3
f 31/63/3 35/62/3 36/69/3
f 29/66/1 33/107/1 34/70/1
f 32/71/4 36/108/4 33/72/4
f 40/74/4 44/94/4 41/75/4
f 34/70/1 33/107/1 37/77/1
f 36/79/9 40/51/9 37/80/9
f 34/82/2 38/87/2 39/83/2
f 43/84/3 47/97/3 48/85/3
f 38/87/2 42/96/2 43/84/2
f 39/83/3 43/84/3 44/86/3
f 37/77/1 41/92/1 42/88/1
f 46/89/7 45/109/7 48/90/7
f 41/92/1 45/110/1 46/93/1
f 44/94/4 48/111/4 45/95/4
f 42/96/2 46/112/2 47/97/2
