# Blender 4.0.2
# www.blender.org
mtllib Protagonista125.mtl
o Cube
v 0.280311 -0.980940 -0.217080
v 0.364112 -0.862494 -0.179027
v 0.211336 -0.946248 -0.173168
v 0.295137 -0.827802 -0.135115
v 0.247448 -0.927555 -0.310877
v 0.331248 -0.809109 -0.272824
v 0.178473 -0.892863 -0.266965
v 0.262273 -0.774417 -0.228912
v 0.469489 -0.779098 -0.079391
v 0.400514 -0.744406 -0.035480
v 0.399459 -0.704015 -0.158880
v 0.218087 -1.134436 -0.193550
v 0.149112 -1.099744 -0.149638
v 0.148057 -1.059352 -0.273039
v -0.099819 -0.392891 -1.210354
v -0.016018 -0.274445 -1.172301
v -0.116271 -0.384616 -1.199880
v -0.032470 -0.266170 -1.161827
v 0.247448 -0.927555 -0.310877
v 0.469489 -0.779098 -0.079391
v 0.400514 -0.744406 -0.035480
v 0.399459 -0.704015 -0.158880
v 0.491852 -0.736948 -0.077565
v 0.422877 -0.702256 -0.033653
v 0.468462 -0.591201 -0.139620
v 0.188784 -1.165312 -0.215185
v 0.119809 -1.130620 -0.171273
v 0.068992 -1.155823 -0.321015
v -0.099819 -0.392891 -1.210354
v -0.016018 -0.274445 -1.172301
v -0.116271 -0.384616 -1.199880
v -0.032470 -0.266170 -1.161827
v -0.099819 -0.392891 -1.210354
v -0.016018 -0.274445 -1.172301
v -0.116271 -0.384616 -1.199880
v -0.032470 -0.266170 -1.161827
v -0.120386 -0.241418 -1.340903
v -0.099819 -0.392891 -1.210354
v -0.016018 -0.274445 -1.172301
v -0.116271 -0.384616 -1.199880
v -0.032470 -0.266170 -1.161827
v 0.331248 -0.809109 -0.272824
v 0.178473 -0.892863 -0.266965
v 0.262273 -0.774417 -0.228912
v 0.193415 -0.873883 -0.312843
v 0.220656 -0.887584 -0.330185
v 0.291387 -0.787611 -0.298067
v 0.264147 -0.773909 -0.280725
v 0.288655 -0.905883 -0.173442
v 0.389045 -1.068907 0.112917
v 0.287948 -0.904679 -0.175630
v 0.367139 -1.099869 0.102970
v 0.373500 -1.102262 0.099379
v 0.380459 -1.103373 0.096309
v 0.387748 -1.103159 0.093877
v 0.395086 -1.101629 0.092176
v 0.402192 -1.098842 0.091273
v 0.408793 -1.094905 0.091201
v 0.414635 -1.089968 0.091964
v 0.419494 -1.084222 0.093532
v 0.423182 -1.077887 0.095845
v 0.425559 -1.071207 0.098814
v 0.426532 -1.064439 0.102325
v 0.426065 -1.057842 0.106244
v 0.424175 -1.051671 0.110418
v 0.420935 -1.046162 0.114689
v 0.416470 -1.041527 0.118891
v 0.410951 -1.037945 0.122864
v 0.404589 -1.035552 0.126455
v 0.397631 -1.034441 0.129525
v 0.390342 -1.034654 0.131957
v 0.383004 -1.036184 0.133658
v 0.375898 -1.038971 0.134561
v 0.369297 -1.042909 0.134633
v 0.363455 -1.047846 0.133870
v 0.358596 -1.053592 0.132302
v 0.354907 -1.059927 0.129989
v 0.352531 -1.066606 0.127020
v 0.351557 -1.073375 0.123509
v 0.352025 -1.079971 0.119590
v 0.353914 -1.086142 0.115416
v 0.357154 -1.091651 0.111145
v 0.361620 -1.096286 0.106943
v 0.272403 -0.938034 -0.189168
v 0.266042 -0.935641 -0.185577
v 0.279362 -0.939145 -0.192238
v 0.286650 -0.938932 -0.194670
v 0.293988 -0.937402 -0.196371
v 0.301095 -0.934615 -0.197274
v 0.307696 -0.930677 -0.197346
v 0.313538 -0.925740 -0.196583
v 0.318396 -0.919994 -0.195015
v 0.322085 -0.913660 -0.192702
v 0.324462 -0.906980 -0.189733
v 0.325435 -0.900212 -0.186222
v 0.324968 -0.893615 -0.182304
v 0.323078 -0.887444 -0.178129
v 0.319838 -0.881935 -0.173858
v 0.315373 -0.877300 -0.169656
v 0.309853 -0.873717 -0.165683
v 0.303492 -0.871324 -0.162092
v 0.296533 -0.870213 -0.159022
v 0.289245 -0.870427 -0.156590
v 0.281907 -0.871957 -0.154889
v 0.274800 -0.874744 -0.153986
v 0.268199 -0.878681 -0.153914
v 0.262357 -0.883618 -0.154677
v 0.257499 -0.889364 -0.156245
v 0.253810 -0.895699 -0.158558
v 0.251433 -0.902379 -0.161527
v 0.250460 -0.909147 -0.165038
v 0.250927 -0.915744 -0.168957
v 0.252817 -0.921915 -0.173131
v 0.256057 -0.927424 -0.177402
v 0.260522 -0.932059 -0.181604
vn -0.9108 0.3900 0.1354
vn 0.3148 -0.4392 0.8414
vn 0.2348 -0.4440 0.8647
vn 0.3463 -0.5000 0.7938
vn 0.2673 -0.5064 0.8199
vn -0.5554 -0.7948 -0.2445
vn 0.7143 -0.0708 -0.6962
vn -0.7766 0.3906 0.4944
vn 0.7766 -0.3906 -0.4944
vn -0.2913 0.4732 -0.8314
vn -0.0456 0.7478 -0.6624
vn -0.5860 0.5987 0.5461
vn 0.0138 -0.7739 0.6331
vn 0.6466 -0.1589 -0.7461
vn 0.5085 -0.0747 0.8578
vn 0.5860 -0.5987 -0.5461
vn -0.4891 0.1209 -0.8638
vn 0.7746 -0.3875 -0.4998
vn -0.7784 0.3937 0.4889
vn 0.5619 0.7844 0.2629
vn -0.8545 0.4965 0.1528
vn 0.6259 0.3884 0.6763
vn 0.5786 -0.2737 -0.7683
vn 0.4215 -0.2612 0.8684
vn -0.2992 -0.9192 0.2562
vn 0.1427 -0.6552 0.7418
vn -0.7771 0.5961 0.2018
vn 0.7588 -0.3631 -0.5408
vn -0.7918 0.4168 0.4464
vn 0.4094 0.9092 -0.0753
vn -0.6270 -0.5557 -0.5459
vn 0.4620 0.8865 0.0254
vn -0.8125 0.5825 -0.0237
vn 0.5026 -0.0790 -0.8609
vn -0.6157 -0.6368 -0.4640
vn -0.4799 -0.8241 -0.3009
vn -0.3092 -0.8690 -0.3863
vn -0.1266 -0.8805 -0.4568
vn 0.0608 -0.8582 -0.5097
vn 0.2459 -0.8029 -0.5431
vn 0.4215 -0.7167 -0.5556
vn 0.5809 -0.6030 -0.5467
vn 0.7181 -0.4661 -0.5169
vn 0.8276 -0.3113 -0.4671
vn 0.9053 -0.1445 -0.3995
vn 0.9482 0.0278 -0.3164
vn 0.9547 0.1990 -0.2212
vn 0.9245 0.3626 -0.1175
vn 0.8588 0.5123 -0.0093
vn 0.7600 0.6423 0.0993
vn 0.6321 0.7476 0.2040
vn 0.4799 0.8241 0.3009
vn 0.3092 0.8690 0.3863
vn 0.1266 0.8805 0.4568
vn -0.0608 0.8582 0.5097
vn -0.2459 0.8029 0.5431
vn -0.4215 0.7167 0.5556
vn -0.5809 0.6030 0.5467
vn -0.7181 0.4661 0.5169
vn -0.8276 0.3113 0.4671
vn -0.9053 0.1445 0.3995
vn -0.9482 -0.0278 0.3164
vn -0.9547 -0.1990 0.2212
vn -0.9245 -0.3626 0.1175
vn -0.8588 -0.5123 0.0093
vn -0.7600 -0.6423 -0.0993
vn -0.6321 -0.7476 -0.2040
vn 0.2913 -0.4732 0.8314
vn -0.9032 0.1503 0.4020
vn 0.9032 -0.1503 -0.4020
vn -0.7247 0.6530 0.2199
vn 0.6767 -0.1351 -0.7238
vn 0.5283 -0.3338 -0.7807
vn -0.8752 0.4575 0.1572
vn 0.5946 -0.2323 -0.7697
vn -0.8025 0.5700 0.1764
vt 0.202199 0.815245
vt 0.303299 0.779456
vt 0.303299 0.864781
vt 0.934897 0.151649
vt 0.904964 0.101100
vt 0.964829 0.101100
vt 0.964829 0.202199
vt 0.904964 0.202199
vt 0.803344 0.712431
vt 0.822305 0.000000
vt 0.826987 0.712431
vt 0.684133 0.815245
vt 0.785232 0.779456
vt 0.785232 0.864781
vt 0.101100 0.815245
vt 0.202199 0.739798
vt 0.583033 0.815245
vt 0.684133 0.739798
vt 0.845098 0.741644
vt 0.151172 0.953223
vt 0.093769 0.970218
vt 0.093769 0.864781
vt 0.000000 0.779456
vt 0.101100 0.739798
vt 0.964829 0.000000
vt 0.481934 0.779456
vt 0.450768 0.856814
vt 0.392616 0.767907
vt 0.904964 0.303299
vt 0.583033 0.739798
vt 0.151172 0.864781
vt 0.208575 0.881776
vt 0.151172 0.970218
vt 0.590917 0.708940
vt 0.684133 0.000000
vt 0.676249 0.708940
vt 0.108983 0.708940
vt 0.202199 0.000000
vt 0.194316 0.708940
vt 0.886853 0.712431
vt 0.867891 0.000000
vt 0.882170 0.000000
vt 0.377815 0.954842
vt 0.297099 0.933853
vt 0.377815 0.864781
vt 0.434096 0.952609
vt 0.377815 0.932206
vt 0.434096 0.864781
vt 0.208575 0.954842
vt 0.289290 0.933853
vt 0.293195 0.965783
vt 0.521544 0.924646
vt 0.490378 0.864781
vt 0.521544 0.864781
vt 0.490378 0.932206
vt 0.434096 0.952609
vt 0.434096 0.864781
vt 0.964829 0.303299
vt 0.904964 0.334465
vt 0.334465 0.856814
vt 0.093769 0.962205
vt -0.000000 1.000000
vt -0.000000 0.864781
vt 0.998733 0.899877
vt 0.904964 0.937671
vt 0.904964 0.802452
vt 0.874238 0.869107
vt 0.859981 0.869901
vt 0.859981 0.741644
vt 0.888495 0.869901
vt 0.874238 0.869107
vt 0.888495 0.741644
vt 0.904964 0.741644
vt 0.785232 0.741644
vt 0.845098 0.741644
vt 0.923651 0.334884
vt 0.928807 0.568431
vt 0.923651 0.568458
vt 0.928807 0.334857
vt 0.933764 0.568349
vt 0.933764 0.334775
vt 0.938333 0.568217
vt 0.938333 0.334643
vt 0.942338 0.568039
vt 0.822607 0.741644
vt 0.826612 0.974152
vt 0.822607 0.973743
vt 0.826612 0.742053
vt 0.831181 0.974456
vt 0.831181 0.742357
vt 0.836138 0.974643
vt 0.836138 0.742544
vt 0.841294 0.974706
vt 0.841294 0.742608
vt 0.846450 0.974643
vt 0.846450 0.742544
vt 0.851408 0.974456
vt 0.851408 0.742357
vt 0.855977 0.974152
vt 0.855977 0.742053
vt 0.859981 0.973743
vt 0.904964 0.568458
vt 0.908968 0.802210
vt 0.904964 0.802032
vt 0.908968 0.568636
vt 0.913537 0.802342
vt 0.913537 0.568769
vt 0.918495 0.802424
vt 0.918495 0.568850
vt 0.923651 0.802452
vt 0.923651 0.568878
vt 0.928807 0.802424
vt 0.928807 0.568850
vt 0.933764 0.802342
vt 0.933764 0.568769
vt 0.938333 0.802210
vt 0.938333 0.568636
vt 0.942338 0.802032
vt 0.789237 0.974152
vt 0.785232 0.973743
vt 0.789237 0.742053
vt 0.793806 0.974456
vt 0.793806 0.742357
vt 0.798764 0.974643
vt 0.798764 0.742544
vt 0.803920 0.974706
vt 0.803920 0.742608
vt 0.809075 0.974643
vt 0.809075 0.742544
vt 0.814033 0.974456
vt 0.814033 0.742357
vt 0.818602 0.974152
vt 0.818602 0.742053
vt 0.822607 0.973743
vt 0.908968 0.568217
vt 0.904964 0.568039
vt 0.908968 0.334643
vt 0.913538 0.568349
vt 0.913538 0.334775
vt 0.918495 0.568431
vt 0.918495 0.334857
vt 0.547844 0.891081
vt 0.522555 0.898753
vt 0.521544 0.893671
vt 0.521544 0.888491
vt 0.522555 0.883410
vt 0.524537 0.878623
vt 0.527415 0.874316
vt 0.531079 0.870652
vt 0.535386 0.867774
vt 0.540173 0.865791
vt 0.545254 0.864781
vt 0.550435 0.864781
vt 0.555516 0.865791
vt 0.560302 0.867774
vt 0.564610 0.870652
vt 0.568273 0.874316
vt 0.571151 0.878623
vt 0.573134 0.883410
vt 0.574145 0.888491
vt 0.574145 0.893671
vt 0.573134 0.898753
vt 0.571151 0.903539
vt 0.568273 0.907847
vt 0.564610 0.911510
vt 0.560302 0.914388
vt 0.555516 0.916371
vt 0.550435 0.917382
vt 0.545254 0.917382
vt 0.540173 0.916371
vt 0.535386 0.914388
vt 0.531079 0.911510
vt 0.527415 0.907847
vt 0.524537 0.903539
vt 0.600445 0.891081
vt 0.577138 0.903539
vt 0.575156 0.898753
vt 0.580016 0.907847
vt 0.583680 0.911510
vt 0.587987 0.914388
vt 0.592774 0.916371
vt 0.597855 0.917382
vt 0.603036 0.917382
vt 0.608117 0.916371
vt 0.612903 0.914388
vt 0.617211 0.911510
vt 0.620874 0.907847
vt 0.623752 0.903539
vt 0.625735 0.898753
vt 0.626746 0.893671
vt 0.626746 0.888491
vt 0.625735 0.883410
vt 0.623752 0.878623
vt 0.620874 0.874316
vt 0.617211 0.870652
vt 0.612903 0.867774
vt 0.608117 0.865791
vt 0.603036 0.864781
vt 0.597855 0.864781
vt 0.592774 0.865791
vt 0.587987 0.867774
vt 0.583680 0.870652
vt 0.580016 0.874315
vt 0.577138 0.878623
vt 0.575156 0.883410
vt 0.574145 0.888491
vt 0.574145 0.893671
vt 0.808026 0.000000
vt 0.000000 0.864781
vt 0.904964 0.000000
vt 0.481934 0.864781
vt 0.583033 0.000000
vt 0.101100 0.000000
vt 0.863209 0.712431
vt 0.293195 0.965783
vt 0.208575 0.864781
vt 0.490378 0.924646
vt 0.964829 0.334465
vt 0.942338 0.334465
vt 0.859981 0.741644
vt 0.942338 0.568458
vt 0.822607 0.741644
s 0
usemtl Material
f 3/1/1 14/2/1 13/3/1
f 49/4/2 2/5/2 4/6/2
f 49/4/3 4/6/3 3/7/3
f 49/4/4 1/8/4 2/5/4
f 49/4/5 3/7/5 1/8/5
f 45/9/6 15/10/6 46/11/6
f 2/12/7 11/13/7 9/14/7
f 4/15/8 7/16/8 3/1/8
f 1/17/9 6/18/9 2/12/9
f 11/19/10 21/19/10 22/19/10
f 6/20/11 8/21/11 11/22/11
f 4/15/12 11/23/12 8/24/12
f 2/5/13 10/25/13 4/6/13
f 14/26/14 26/27/14 28/28/14
f 3/7/15 12/29/15 1/8/15
f 1/17/16 14/26/16 5/30/16
f 7/31/17 5/32/17 14/33/17
f 6/19/10 44/19/10 42/19/10
f 46/34/18 16/35/18 47/36/18
f 48/37/19 17/38/19 45/39/19
f 48/40/20 16/41/20 18/42/20
f 8/19/10 43/19/10 44/19/10
f 5/19/10 42/19/10 19/19/10
f 5/19/10 43/19/10 19/19/10
f 22/43/21 24/44/21 25/45/21
f 9/19/10 22/19/10 20/19/10
f 10/19/10 20/19/10 21/19/10
f 24/46/22 23/47/22 25/48/22
f 22/49/23 23/50/23 20/51/23
f 20/52/24 24/53/24 21/54/24
f 26/55/25 27/56/25 28/57/25
f 13/58/26 26/59/26 12/29/26
f 14/2/27 27/60/27 13/3/27
f 29/19/10 39/19/10 38/19/10
f 29/19/10 40/19/10 38/19/10
f 32/19/10 39/19/10 41/19/10
f 31/19/10 41/19/10 40/19/10
f 34/61/28 33/62/28 37/63/28
f 35/64/29 36/65/29 37/66/29
f 36/67/30 34/68/30 37/69/30
f 33/70/31 35/71/31 37/72/31
f 35/19/10 38/19/10 40/19/10
f 34/19/10 38/19/10 39/19/10
f 36/19/10 40/19/10 41/19/10
f 34/19/10 41/19/10 39/19/10
f 6/19/32 48/40/32 8/73/32
f 8/24/33 45/39/33 7/16/33
f 5/30/34 47/36/34 6/18/34
f 7/74/35 46/11/35 5/75/35
f 85/76/36 53/77/36 52/78/36
f 84/79/37 54/80/37 53/77/37
f 86/81/38 55/82/38 54/80/38
f 87/83/39 56/84/39 55/82/39
f 88/85/40 57/86/40 56/87/40
f 89/88/41 58/89/41 57/86/41
f 90/90/42 59/91/42 58/89/42
f 91/92/43 60/93/43 59/91/43
f 92/94/44 61/95/44 60/93/44
f 93/96/45 62/97/45 61/95/45
f 94/98/46 63/99/46 62/97/46
f 95/100/47 64/101/47 63/99/47
f 96/102/48 65/103/48 64/104/48
f 97/105/49 66/106/49 65/103/49
f 98/107/50 67/108/50 66/106/50
f 99/109/51 68/110/51 67/108/51
f 100/111/52 69/112/52 68/110/52
f 101/113/53 70/114/53 69/112/53
f 102/115/54 71/116/54 70/114/54
f 103/117/55 72/118/55 71/116/55
f 104/74/56 73/119/56 72/120/56
f 105/121/57 74/122/57 73/119/57
f 106/123/58 75/124/58 74/122/58
f 107/125/59 76/126/59 75/124/59
f 108/127/60 77/128/60 76/126/60
f 109/129/61 78/130/61 77/128/61
f 110/131/62 79/132/62 78/130/62
f 111/133/63 80/134/63 79/132/63
f 112/59/64 81/135/64 80/136/64
f 113/137/65 82/138/65 81/135/65
f 114/139/66 83/140/66 82/138/66
f 115/141/67 52/78/67 83/140/67
f 50/142/68 52/143/68 53/144/68
f 50/142/68 53/144/68 54/145/68
f 50/142/68 54/145/68 55/146/68
f 50/142/68 55/146/68 56/147/68
f 50/142/68 56/147/68 57/148/68
f 50/142/68 57/148/68 58/149/68
f 50/142/68 58/149/68 59/150/68
f 50/142/68 59/150/68 60/151/68
f 50/142/68 60/151/68 61/152/68
f 50/142/68 61/152/68 62/153/68
f 50/142/68 62/153/68 63/154/68
f 50/142/68 63/154/68 64/155/68
f 50/142/68 64/155/68 65/156/68
f 50/142/68 65/156/68 66/157/68
f 50/142/68 66/157/68 67/158/68
f 50/142/68 67/158/68 68/159/68
f 50/142/68 68/159/68 69/160/68
f 50/142/68 69/160/68 70/161/68
f 50/142/68 70/161/68 71/162/68
f 50/142/68 71/162/68 72/163/68
f 50/142/68 72/163/68 73/164/68
f 50/142/68 73/164/68 74/165/68
f 50/142/68 74/165/68 75/166/68
f 50/142/68 75/166/68 76/167/68
f 50/142/68 76/167/68 77/168/68
f 50/142/68 77/168/68 78/169/68
f 50/142/68 78/169/68 79/170/68
f 50/142/68 79/170/68 80/171/68
f 50/142/68 80/171/68 81/172/68
f 50/142/68 81/172/68 82/173/68
f 50/142/68 82/173/68 83/174/68
f 50/142/68 83/174/68 52/143/68
f 51/175/10 84/176/10 85/177/10
f 51/175/10 86/178/10 84/176/10
f 51/175/10 87/179/10 86/178/10
f 51/175/10 88/180/10 87/179/10
f 51/175/10 89/181/10 88/180/10
f 51/175/10 90/182/10 89/181/10
f 51/175/10 91/183/10 90/182/10
f 51/175/10 92/184/10 91/183/10
f 51/175/10 93/185/10 92/184/10
f 51/175/10 94/186/10 93/185/10
f 51/175/10 95/187/10 94/186/10
f 51/175/10 96/188/10 95/187/10
f 51/175/10 97/189/10 96/188/10
f 51/175/10 98/190/10 97/189/10
f 51/175/10 99/191/10 98/190/10
f 51/175/10 100/192/10 99/191/10
f 51/175/10 101/193/10 100/192/10
f 51/175/10 102/194/10 101/193/10
f 51/175/10 103/195/10 102/194/10
f 51/175/10 104/196/10 103/195/10
f 51/175/10 105/197/10 104/196/10
f 51/175/10 106/198/10 105/197/10
f 51/175/10 107/199/10 106/198/10
f 51/175/10 108/200/10 107/199/10
f 51/175/10 109/201/10 108/200/10
f 51/175/10 110/202/10 109/201/10
f 51/175/10 111/203/10 110/202/10
f 51/175/10 112/204/10 111/203/10
f 51/175/10 113/205/10 112/204/10
f 51/175/10 114/206/10 113/205/10
f 51/175/10 115/207/10 114/206/10
f 51/175/10 85/177/10 115/207/10
f 3/1/69 7/16/69 14/2/69
f 45/9/6 17/208/6 15/10/6
f 2/12/70 6/18/70 11/13/70
f 4/15/8 8/24/8 7/16/8
f 1/17/9 5/30/9 6/18/9
f 11/19/10 10/19/10 21/19/10
f 4/15/71 10/209/71 11/23/71
f 2/5/13 9/210/13 10/25/13
f 14/26/72 12/211/72 26/27/72
f 3/7/15 13/58/15 12/29/15
f 1/17/73 12/211/73 14/26/73
f 6/19/10 8/19/10 44/19/10
f 46/34/18 15/212/18 16/35/18
f 48/37/19 18/213/19 17/38/19
f 48/40/20 47/214/20 16/41/20
f 8/19/10 7/19/10 43/19/10
f 5/19/10 6/19/10 42/19/10
f 5/19/10 7/19/10 43/19/10
f 22/43/74 21/215/74 24/44/74
f 9/19/10 11/19/10 22/19/10
f 10/19/10 9/19/10 20/19/10
f 22/49/75 25/216/75 23/50/75
f 20/52/24 23/217/24 24/53/24
f 13/58/26 27/218/26 26/59/26
f 14/2/76 28/28/76 27/60/76
f 29/19/10 30/19/10 39/19/10
f 29/19/10 31/19/10 40/19/10
f 32/19/10 30/19/10 39/19/10
f 31/19/10 32/19/10 41/19/10
f 35/19/10 33/19/10 38/19/10
f 34/19/10 33/19/10 38/19/10
f 36/19/10 35/19/10 40/19/10
f 34/19/10 36/19/10 41/19/10
f 6/19/32 47/214/32 48/40/32
f 8/24/33 48/37/33 45/39/33
f 5/30/34 46/34/34 47/36/34
f 7/74/35 45/9/35 46/11/35
f 85/76/36 84/79/36 53/77/36
f 84/79/37 86/81/37 54/80/37
f 86/81/38 87/83/38 55/82/38
f 87/83/39 88/219/39 56/84/39
f 88/85/40 89/88/40 57/86/40
f 89/88/41 90/90/41 58/89/41
f 90/90/42 91/92/42 59/91/42
f 91/92/43 92/94/43 60/93/43
f 92/94/44 93/96/44 61/95/44
f 93/96/45 94/98/45 62/97/45
f 94/98/46 95/100/46 63/99/46
f 95/100/47 96/220/47 64/101/47
f 96/102/48 97/105/48 65/103/48
f 97/105/49 98/107/49 66/106/49
f 98/107/50 99/109/50 67/108/50
f 99/109/51 100/111/51 68/110/51
f 100/111/52 101/113/52 69/112/52
f 101/113/53 102/115/53 70/114/53
f 102/115/54 103/117/54 71/116/54
f 103/117/55 104/221/55 72/118/55
f 104/74/56 105/121/56 73/119/56
f 105/121/57 106/123/57 74/122/57
f 106/123/58 107/125/58 75/124/58
f 107/125/59 108/127/59 76/126/59
f 108/127/60 109/129/60 77/128/60
f 109/129/61 110/131/61 78/130/61
f 110/131/62 111/133/62 79/132/62
f 111/133/63 112/222/63 80/134/63
f 112/59/64 113/137/64 81/135/64
f 113/137/65 114/139/65 82/138/65
f 114/139/66 115/141/66 83/140/66
f 115/141/67 85/76/67 52/78/67
