# Blender 4.0.2
# www.blender.org
mtllib Protagonista112.mtl
o Cube
v 0.391393 -0.575588 -0.451803
v 0.442146 -0.552786 -0.312504
v 0.311652 -0.544684 -0.427808
v 0.362405 -0.521882 -0.288509
v 0.423212 -0.471218 -0.480480
v 0.473965 -0.448416 -0.341181
v 0.343471 -0.440315 -0.456486
v 0.394224 -0.417513 -0.317187
v 0.472008 -0.598508 -0.154376
v 0.392267 -0.567604 -0.130382
v 0.466551 -0.470177 -0.173395
v 0.319750 -0.666914 -0.572274
v 0.240009 -0.636010 -0.548279
v 0.314292 -0.538583 -0.591292
v 0.703655 0.560013 -0.751462
v 0.754408 0.582816 -0.612163
v 0.684635 0.567384 -0.745739
v 0.735388 0.590187 -0.606440
v 0.423212 -0.471218 -0.480480
v 0.472008 -0.598508 -0.154376
v 0.392267 -0.567604 -0.130382
v 0.466551 -0.470177 -0.173395
v 0.491013 -0.580458 -0.114463
v 0.411272 -0.549555 -0.090468
v 0.516259 -0.434056 -0.054720
v 0.307464 -0.662923 -0.618243
v 0.227723 -0.632019 -0.594249
v 0.274325 -0.542752 -0.718747
v 0.703655 0.560013 -0.751462
v 0.754408 0.582816 -0.612163
v 0.684635 0.567384 -0.745739
v 0.735388 0.590187 -0.606440
v 0.703655 0.560013 -0.751462
v 0.754408 0.582816 -0.612163
v 0.684635 0.567384 -0.745739
v 0.735388 0.590187 -0.606440
v 0.772039 0.747363 -0.726283
v 0.703655 0.560013 -0.751462
v 0.754408 0.582816 -0.612163
v 0.684635 0.567384 -0.745739
v 0.735388 0.590187 -0.606440
v 0.473965 -0.448416 -0.341181
v 0.343471 -0.440315 -0.456486
v 0.394224 -0.417513 -0.317187
v 0.383616 -0.408318 -0.463755
v 0.415109 -0.420522 -0.473231
v 0.457946 -0.401276 -0.355657
v 0.426454 -0.389072 -0.346180
v 0.375998 -0.551690 -0.369344
v 0.278902 -0.870383 -0.281800
v 0.376786 -0.549312 -0.370021
v 0.265635 -0.876343 -0.318214
v 0.272757 -0.878890 -0.319580
v 0.280116 -0.881110 -0.319495
v 0.287428 -0.882918 -0.317962
v 0.294412 -0.884244 -0.315038
v 0.300800 -0.885037 -0.310838
v 0.306347 -0.885267 -0.305521
v 0.310839 -0.884926 -0.299293
v 0.314103 -0.884025 -0.292393
v 0.316015 -0.882600 -0.285085
v 0.316501 -0.880706 -0.277652
v 0.315542 -0.878414 -0.270378
v 0.313174 -0.875814 -0.263542
v 0.309490 -0.873006 -0.257409
v 0.304630 -0.870097 -0.252213
v 0.298781 -0.867198 -0.248153
v 0.292169 -0.864422 -0.245387
v 0.285046 -0.861875 -0.244020
v 0.277688 -0.859655 -0.244106
v 0.270376 -0.857847 -0.245639
v 0.263392 -0.856521 -0.248563
v 0.257004 -0.855728 -0.252763
v 0.251457 -0.855498 -0.258080
v 0.246965 -0.855840 -0.264308
v 0.243700 -0.856740 -0.271208
v 0.241789 -0.858165 -0.278515
v 0.241303 -0.860060 -0.285949
v 0.242262 -0.862351 -0.293223
v 0.244630 -0.864951 -0.300058
v 0.248314 -0.867759 -0.306192
v 0.253174 -0.870669 -0.311388
v 0.259022 -0.873567 -0.315447
v 0.370642 -0.557819 -0.407801
v 0.363520 -0.555272 -0.406434
v 0.378000 -0.560039 -0.407715
v 0.385312 -0.561847 -0.406182
v 0.392297 -0.563173 -0.403259
v 0.398685 -0.563966 -0.399058
v 0.404231 -0.564197 -0.393741
v 0.408723 -0.563855 -0.387513
v 0.411988 -0.562954 -0.380613
v 0.413900 -0.561529 -0.373306
v 0.414385 -0.559635 -0.365872
v 0.413426 -0.557343 -0.358598
v 0.411059 -0.554744 -0.351763
v 0.407374 -0.551935 -0.345629
v 0.402515 -0.549026 -0.340433
v 0.396666 -0.546127 -0.336374
v 0.390053 -0.543351 -0.333607
v 0.382931 -0.540804 -0.332241
v 0.375572 -0.538584 -0.332326
v 0.368261 -0.536776 -0.333859
v 0.361276 -0.535450 -0.336783
v 0.354888 -0.534657 -0.340983
v 0.349342 -0.534427 -0.346300
v 0.344850 -0.534769 -0.352528
v 0.341585 -0.535669 -0.359428
v 0.339673 -0.537094 -0.366736
v 0.339187 -0.538989 -0.374169
v 0.340147 -0.541280 -0.381444
v 0.342514 -0.543880 -0.388279
v 0.346199 -0.546688 -0.394412
v 0.351058 -0.549598 -0.399608
v 0.356907 -0.552496 -0.403668
vn -0.7931 0.6091 0.0099
vn -0.2674 -0.9178 0.2935
vn -0.3457 -0.8978 0.2729
vn -0.2169 -0.9477 0.2342
vn -0.2962 -0.9307 0.2144
vn -0.3414 -0.1622 -0.9258
vn 0.9833 0.0149 -0.1814
vn -0.8978 0.3479 0.2701
vn 0.8978 -0.3479 -0.2701
vn 0.2820 0.9251 -0.2542
vn 0.3932 0.9095 0.1353
vn -0.7648 0.3768 0.5227
vn -0.4027 -0.8968 -0.1833
vn 0.9540 0.0125 -0.2996
vn -0.1031 -0.7622 0.6391
vn 0.7648 -0.3768 -0.5227
vn 0.1246 0.7888 -0.6019
vn 0.8996 -0.3419 -0.2718
vn -0.8959 0.3540 0.2685
vn 0.3352 0.1418 0.9314
vn -0.7527 0.6476 0.1182
vn 0.1220 -0.3930 0.9114
vn 0.9068 -0.0238 -0.4210
vn -0.1887 -0.8579 0.4778
vn -0.4383 -0.6447 -0.6263
vn -0.3575 -0.9338 0.0145
vn -0.7146 0.6542 0.2478
vn 0.9123 -0.2948 -0.2841
vn -0.8803 0.3999 0.2553
vn 0.4192 0.4866 0.7664
vn -0.2085 0.2046 -0.9564
vn 0.4008 0.3907 0.8287
vn -0.6101 0.7868 0.0935
vn 0.9102 0.1975 -0.3640
vn -0.2520 0.0974 -0.9628
vn -0.2487 -0.1854 -0.9507
vn -0.0632 -0.2465 -0.9671
vn 0.1248 -0.2981 -0.9463
vn 0.3080 -0.3382 -0.8892
vn 0.4793 -0.3654 -0.7980
vn 0.6323 -0.3785 -0.6760
vn 0.7609 -0.3771 -0.5281
vn 0.8603 -0.3611 -0.3599
vn 0.9266 -0.3313 -0.1778
vn 0.9573 -0.2888 0.0111
vn 0.9513 -0.2352 0.1995
vn 0.9086 -0.1725 0.3803
vn 0.8311 -0.1032 0.5465
vn 0.7216 -0.0299 0.6917
vn 0.5844 0.0445 0.8103
vn 0.4247 0.1172 0.8977
vn 0.2487 0.1854 0.9507
vn 0.0632 0.2465 0.9671
vn -0.1248 0.2981 0.9463
vn -0.3080 0.3382 0.8892
vn -0.4793 0.3654 0.7980
vn -0.6323 0.3785 0.6760
vn -0.7609 0.3771 0.5281
vn -0.8603 0.3611 0.3599
vn -0.9266 0.3314 0.1778
vn -0.9573 0.2888 -0.0111
vn -0.9513 0.2352 -0.1995
vn -0.9086 0.1725 -0.3803
vn -0.8311 0.1032 -0.5465
vn -0.7216 0.0299 -0.6917
vn -0.5844 -0.0445 -0.8103
vn -0.4247 -0.1172 -0.8977
vn -0.2820 -0.9251 0.2542
vn -0.9569 0.2905 -0.0046
vn 0.9569 -0.2905 0.0046
vn -0.6804 0.6597 0.3192
vn 0.9662 0.0029 -0.2580
vn 0.8706 -0.0357 -0.4907
vn -0.7740 0.6275 0.0848
vn 0.9225 -0.0016 -0.3859
vn -0.7213 0.6618 0.2045
vn -0.6101 0.7867 0.0935
vn 0.9266 -0.3314 -0.1778
vn -0.9266 0.3313 0.1778
vt 0.202199 0.815245
vt 0.303299 0.779456
vt 0.303299 0.864781
vt 0.934897 0.151649
vt 0.904964 0.101100
vt 0.964829 0.101100
vt 0.964829 0.202199
vt 0.904964 0.202199
vt 0.803344 0.712431
vt 0.822305 0.000000
vt 0.826987 0.712431
vt 0.684133 0.815245
vt 0.785232 0.779456
vt 0.785232 0.864781
vt 0.101100 0.815245
vt 0.202199 0.739798
vt 0.583033 0.815245
vt 0.684133 0.739798
vt 0.845098 0.741644
vt 0.151172 0.953223
vt 0.093769 0.970218
vt 0.093769 0.864781
vt 0.000000 0.779456
vt 0.101100 0.739798
vt 0.964829 0.000000
vt 0.481934 0.779456
vt 0.450768 0.856814
vt 0.392616 0.767907
vt 0.904964 0.303299
vt 0.583033 0.739798
vt 0.151172 0.864781
vt 0.208575 0.881776
vt 0.151172 0.970218
vt 0.590917 0.708940
vt 0.684133 0.000000
vt 0.676249 0.708940
vt 0.108983 0.708940
vt 0.202199 0.000000
vt 0.194316 0.708940
vt 0.886853 0.712431
vt 0.867891 0.000000
vt 0.882170 0.000000
vt 0.377815 0.954842
vt 0.297099 0.933853
vt 0.377815 0.864781
vt 0.434096 0.952609
vt 0.377815 0.932206
vt 0.434096 0.864781
vt 0.208575 0.954842
vt 0.289290 0.933853
vt 0.293195 0.965783
vt 0.521544 0.924646
vt 0.490378 0.864781
vt 0.521544 0.864781
vt 0.490378 0.932206
vt 0.434096 0.952609
vt 0.434096 0.864781
vt 0.964829 0.303299
vt 0.904964 0.334465
vt 0.334465 0.856814
vt 0.093769 0.962205
vt -0.000000 1.000000
vt -0.000000 0.864781
vt 0.998733 0.899877
vt 0.904964 0.937671
vt 0.904964 0.802452
vt 0.874238 0.869107
vt 0.859981 0.869901
vt 0.859981 0.741644
vt 0.888495 0.869901
vt 0.874238 0.869107
vt 0.888495 0.741644
vt 0.904964 0.741644
vt 0.785232 0.741644
vt 0.845098 0.741644
vt 0.923651 0.334884
vt 0.928807 0.568431
vt 0.923651 0.568458
vt 0.928807 0.334857
vt 0.933764 0.568349
vt 0.933764 0.334775
vt 0.938333 0.568217
vt 0.938333 0.334643
vt 0.942338 0.568039
vt 0.822607 0.741644
vt 0.826612 0.974152
vt 0.822607 0.973743
vt 0.826612 0.742053
vt 0.831181 0.974456
vt 0.831181 0.742357
vt 0.836138 0.974643
vt 0.836138 0.742544
vt 0.841294 0.974706
vt 0.841294 0.742608
vt 0.846450 0.974643
vt 0.846450 0.742544
vt 0.851408 0.974456
vt 0.851408 0.742357
vt 0.855977 0.974152
vt 0.855977 0.742053
vt 0.859981 0.973743
vt 0.904964 0.568458
vt 0.908968 0.802210
vt 0.904964 0.802032
vt 0.908968 0.568636
vt 0.913537 0.802342
vt 0.913537 0.568769
vt 0.918495 0.802424
vt 0.918495 0.568850
vt 0.923651 0.802452
vt 0.923651 0.568878
vt 0.928807 0.802424
vt 0.928807 0.568850
vt 0.933764 0.802342
vt 0.933764 0.568769
vt 0.938333 0.802210
vt 0.938333 0.568636
vt 0.942338 0.802032
vt 0.789237 0.974152
vt 0.785232 0.973743
vt 0.789237 0.742053
vt 0.793806 0.974456
vt 0.793806 0.742357
vt 0.798764 0.974643
vt 0.798764 0.742544
vt 0.803920 0.974706
vt 0.803920 0.742608
vt 0.809075 0.974643
vt 0.809075 0.742544
vt 0.814033 0.974456
vt 0.814033 0.742357
vt 0.818602 0.974152
vt 0.818602 0.742053
vt 0.822607 0.973743
vt 0.908968 0.568217
vt 0.904964 0.568039
vt 0.908968 0.334643
vt 0.913538 0.568349
vt 0.913538 0.334775
vt 0.918495 0.568431
vt 0.918495 0.334857
vt 0.547844 0.891081
vt 0.522555 0.898753
vt 0.521544 0.893671
vt 0.521544 0.888491
vt 0.522555 0.883410
vt 0.524537 0.878623
vt 0.527415 0.874316
vt 0.531079 0.870652
vt 0.535386 0.867774
vt 0.540173 0.865791
vt 0.545254 0.864781
vt 0.550435 0.864781
vt 0.555516 0.865791
vt 0.560302 0.867774
vt 0.564610 0.870652
vt 0.568273 0.874316
vt 0.571151 0.878623
vt 0.573134 0.883410
vt 0.574145 0.888491
vt 0.574145 0.893671
vt 0.573134 0.898753
vt 0.571151 0.903539
vt 0.568273 0.907847
vt 0.564610 0.911510
vt 0.560302 0.914388
vt 0.555516 0.916371
vt 0.550435 0.917382
vt 0.545254 0.917382
vt 0.540173 0.916371
vt 0.535386 0.914388
vt 0.531079 0.911510
vt 0.527415 0.907847
vt 0.524537 0.903539
vt 0.600445 0.891081
vt 0.577138 0.903539
vt 0.575156 0.898753
vt 0.580016 0.907847
vt 0.583680 0.911510
vt 0.587987 0.914388
vt 0.592774 0.916371
vt 0.597855 0.917382
vt 0.603036 0.917382
vt 0.608117 0.916371
vt 0.612903 0.914388
vt 0.617211 0.911510
vt 0.620874 0.907847
vt 0.623752 0.903539
vt 0.625735 0.898753
vt 0.626746 0.893671
vt 0.626746 0.888491
vt 0.625735 0.883410
vt 0.623752 0.878623
vt 0.620874 0.874316
vt 0.617211 0.870652
vt 0.612903 0.867774
vt 0.608117 0.865791
vt 0.603036 0.864781
vt 0.597855 0.864781
vt 0.592774 0.865791
vt 0.587987 0.867774
vt 0.583680 0.870652
vt 0.580016 0.874315
vt 0.577138 0.878623
vt 0.575156 0.883410
vt 0.574145 0.888491
vt 0.574145 0.893671
vt 0.808026 0.000000
vt 0.000000 0.864781
vt 0.904964 0.000000
vt 0.481934 0.864781
vt 0.583033 0.000000
vt 0.101100 0.000000
vt 0.863209 0.712431
vt 0.293195 0.965783
vt 0.208575 0.864781
vt 0.490378 0.924646
vt 0.964829 0.334465
vt 0.942338 0.334465
vt 0.859981 0.741644
vt 0.942338 0.568458
vt 0.822607 0.741644
s 0
usemtl Material
f 3/1/1 14/2/1 13/3/1
f 49/4/2 2/5/2 4/6/2
f 49/4/3 4/6/3 3/7/3
f 49/4/4 1/8/4 2/5/4
f 49/4/5 3/7/5 1/8/5
f 45/9/6 15/10/6 46/11/6
f 2/12/7 11/13/7 9/14/7
f 4/15/8 7/16/8 3/1/8
f 1/17/9 6/18/9 2/12/9
f 11/19/10 21/19/10 22/19/10
f 6/20/11 8/21/11 11/22/11
f 4/15/12 11/23/12 8/24/12
f 2/5/13 10/25/13 4/6/13
f 14/26/14 26/27/14 28/28/14
f 3/7/15 12/29/15 1/8/15
f 1/17/16 14/26/16 5/30/16
f 7/31/17 5/32/17 14/33/17
f 6/19/10 44/19/10 42/19/10
f 46/34/18 16/35/18 47/36/18
f 48/37/19 17/38/19 45/39/19
f 48/40/20 16/41/20 18/42/20
f 8/19/10 43/19/10 44/19/10
f 5/19/10 42/19/10 19/19/10
f 5/19/10 43/19/10 19/19/10
f 22/43/21 24/44/21 25/45/21
f 9/19/10 22/19/10 20/19/10
f 10/19/10 20/19/10 21/19/10
f 24/46/22 23/47/22 25/48/22
f 22/49/23 23/50/23 20/51/23
f 20/52/24 24/53/24 21/54/24
f 26/55/25 27/56/25 28/57/25
f 13/58/26 26/59/26 12/29/26
f 14/2/27 27/60/27 13/3/27
f 29/19/10 39/19/10 38/19/10
f 29/19/10 40/19/10 38/19/10
f 32/19/10 39/19/10 41/19/10
f 31/19/10 41/19/10 40/19/10
f 34/61/28 33/62/28 37/63/28
f 35/64/29 36/65/29 37/66/29
f 36/67/30 34/68/30 37/69/30
f 33/70/31 35/71/31 37/72/31
f 35/19/10 38/19/10 40/19/10
f 34/19/10 38/19/10 39/19/10
f 36/19/10 40/19/10 41/19/10
f 34/19/10 41/19/10 39/19/10
f 6/19/32 48/40/32 8/73/32
f 8/24/33 45/39/33 7/16/33
f 5/30/34 47/36/34 6/18/34
f 7/74/35 46/11/35 5/75/35
f 85/76/36 53/77/36 52/78/36
f 84/79/37 54/80/37 53/77/37
f 86/81/38 55/82/38 54/80/38
f 87/83/39 56/84/39 55/82/39
f 88/85/40 57/86/40 56/87/40
f 89/88/41 58/89/41 57/86/41
f 90/90/42 59/91/42 58/89/42
f 91/92/43 60/93/43 59/91/43
f 92/94/44 61/95/44 60/93/44
f 93/96/45 62/97/45 61/95/45
f 94/98/46 63/99/46 62/97/46
f 95/100/47 64/101/47 63/99/47
f 96/102/48 65/103/48 64/104/48
f 97/105/49 66/106/49 65/103/49
f 98/107/50 67/108/50 66/106/50
f 99/109/51 68/110/51 67/108/51
f 100/111/52 69/112/52 68/110/52
f 101/113/53 70/114/53 69/112/53
f 102/115/54 71/116/54 70/114/54
f 103/117/55 72/118/55 71/116/55
f 104/74/56 73/119/56 72/120/56
f 105/121/57 74/122/57 73/119/57
f 106/123/58 75/124/58 74/122/58
f 107/125/59 76/126/59 75/124/59
f 108/127/60 77/128/60 76/126/60
f 109/129/61 78/130/61 77/128/61
f 110/131/62 79/132/62 78/130/62
f 111/133/63 80/134/63 79/132/63
f 112/59/64 81/135/64 80/136/64
f 113/137/65 82/138/65 81/135/65
f 114/139/66 83/140/66 82/138/66
f 115/141/67 52/78/67 83/140/67
f 50/142/68 52/143/68 53/144/68
f 50/142/68 53/144/68 54/145/68
f 50/142/68 54/145/68 55/146/68
f 50/142/68 55/146/68 56/147/68
f 50/142/68 56/147/68 57/148/68
f 50/142/68 57/148/68 58/149/68
f 50/142/68 58/149/68 59/150/68
f 50/142/68 59/150/68 60/151/68
f 50/142/68 60/151/68 61/152/68
f 50/142/68 61/152/68 62/153/68
f 50/142/68 62/153/68 63/154/68
f 50/142/68 63/154/68 64/155/68
f 50/142/68 64/155/68 65/156/68
f 50/142/68 65/156/68 66/157/68
f 50/142/68 66/157/68 67/158/68
f 50/142/68 67/158/68 68/159/68
f 50/142/68 68/159/68 69/160/68
f 50/142/68 69/160/68 70/161/68
f 50/142/68 70/161/68 71/162/68
f 50/142/68 71/162/68 72/163/68
f 50/142/68 72/163/68 73/164/68
f 50/142/68 73/164/68 74/165/68
f 50/142/68 74/165/68 75/166/68
f 50/142/68 75/166/68 76/167/68
f 50/142/68 76/167/68 77/168/68
f 50/142/68 77/168/68 78/169/68
f 50/142/68 78/169/68 79/170/68
f 50/142/68 79/170/68 80/171/68
f 50/142/68 80/171/68 81/172/68
f 50/142/68 81/172/68 82/173/68
f 50/142/68 82/173/68 83/174/68
f 50/142/68 83/174/68 52/143/68
f 51/175/10 84/176/10 85/177/10
f 51/175/10 86/178/10 84/176/10
f 51/175/10 87/179/10 86/178/10
f 51/175/10 88/180/10 87/179/10
f 51/175/10 89/181/10 88/180/10
f 51/175/10 90/182/10 89/181/10
f 51/175/10 91/183/10 90/182/10
f 51/175/10 92/184/10 91/183/10
f 51/175/10 93/185/10 92/184/10
f 51/175/10 94/186/10 93/185/10
f 51/175/10 95/187/10 94/186/10
f 51/175/10 96/188/10 95/187/10
f 51/175/10 97/189/10 96/188/10
f 51/175/10 98/190/10 97/189/10
f 51/175/10 99/191/10 98/190/10
f 51/175/10 100/192/10 99/191/10
f 51/175/10 101/193/10 100/192/10
f 51/175/10 102/194/10 101/193/10
f 51/175/10 103/195/10 102/194/10
f 51/175/10 104/196/10 103/195/10
f 51/175/10 105/197/10 104/196/10
f 51/175/10 106/198/10 105/197/10
f 51/175/10 107/199/10 106/198/10
f 51/175/10 108/200/10 107/199/10
f 51/175/10 109/201/10 108/200/10
f 51/175/10 110/202/10 109/201/10
f 51/175/10 111/203/10 110/202/10
f 51/175/10 112/204/10 111/203/10
f 51/175/10 113/205/10 112/204/10
f 51/175/10 114/206/10 113/205/10
f 51/175/10 115/207/10 114/206/10
f 51/175/10 85/177/10 115/207/10
f 3/1/69 7/16/69 14/2/69
f 45/9/6 17/208/6 15/10/6
f 2/12/70 6/18/70 11/13/70
f 4/15/8 8/24/8 7/16/8
f 1/17/9 5/30/9 6/18/9
f 11/19/10 10/19/10 21/19/10
f 4/15/71 10/209/71 11/23/71
f 2/5/13 9/210/13 10/25/13
f 14/26/72 12/211/72 26/27/72
f 3/7/15 13/58/15 12/29/15
f 1/17/73 12/211/73 14/26/73
f 6/19/10 8/19/10 44/19/10
f 46/34/18 15/212/18 16/35/18
f 48/37/19 18/213/19 17/38/19
f 48/40/20 47/214/20 16/41/20
f 8/19/10 7/19/10 43/19/10
f 5/19/10 6/19/10 42/19/10
f 5/19/10 7/19/10 43/19/10
f 22/43/74 21/215/74 24/44/74
f 9/19/10 11/19/10 22/19/10
f 10/19/10 9/19/10 20/19/10
f 22/49/75 25/216/75 23/50/75
f 20/52/24 23/217/24 24/53/24
f 13/58/26 27/218/26 26/59/26
f 14/2/76 28/28/76 27/60/76
f 29/19/10 30/19/10 39/19/10
f 29/19/10 31/19/10 40/19/10
f 32/19/10 30/19/10 39/19/10
f 31/19/10 32/19/10 41/19/10
f 35/19/10 33/19/10 38/19/10
f 34/19/10 33/19/10 38/19/10
f 36/19/10 35/19/10 40/19/10
f 34/19/10 36/19/10 41/19/10
f 6/19/32 47/214/32 48/40/32
f 8/24/77 48/37/77 45/39/77
f 5/30/34 46/34/34 47/36/34
f 7/74/35 45/9/35 46/11/35
f 85/76/36 84/79/36 53/77/36
f 84/79/37 86/81/37 54/80/37
f 86/81/38 87/83/38 55/82/38
f 87/83/39 88/219/39 56/84/39
f 88/85/40 89/88/40 57/86/40
f 89/88/41 90/90/41 58/89/41
f 90/90/42 91/92/42 59/91/42
f 91/92/43 92/94/43 60/93/43
f 92/94/78 93/96/78 61/95/78
f 93/96/45 94/98/45 62/97/45
f 94/98/46 95/100/46 63/99/46
f 95/100/47 96/220/47 64/101/47
f 96/102/48 97/105/48 65/103/48
f 97/105/49 98/107/49 66/106/49
f 98/107/50 99/109/50 67/108/50
f 99/109/51 100/111/51 68/110/51
f 100/111/52 101/113/52 69/112/52
f 101/113/53 102/115/53 70/114/53
f 102/115/54 103/117/54 71/116/54
f 103/117/55 104/221/55 72/118/55
f 104/74/56 105/121/56 73/119/56
f 105/121/57 106/123/57 74/122/57
f 106/123/58 107/125/58 75/124/58
f 107/125/59 108/127/59 76/126/59
f 108/127/79 109/129/79 77/128/79
f 109/129/61 110/131/61 78/130/61
f 110/131/62 111/133/62 79/132/62
f 111/133/63 112/222/63 80/134/63
f 112/59/64 113/137/64 81/135/64
f 113/137/65 114/139/65 82/138/65
f 114/139/66 115/141/66 83/140/66
f 115/141/67 85/76/67 52/78/67
