# Blender 4.0.2
# www.blender.org
mtllib Protagonista115.mtl
o Cube
v 0.365030 -0.674466 -0.406348
v 0.433358 -0.621666 -0.283697
v 0.287534 -0.642580 -0.376904
v 0.355862 -0.589779 -0.254252
v 0.384982 -0.576945 -0.459446
v 0.453310 -0.524144 -0.336795
v 0.307487 -0.545058 -0.430001
v 0.375814 -0.492258 -0.307350
v 0.488586 -0.632893 -0.126184
v 0.411090 -0.601006 -0.096740
v 0.471417 -0.511477 -0.168889
v 0.283602 -0.791295 -0.494139
v 0.206107 -0.759408 -0.464694
v 0.266433 -0.669879 -0.536843
v 0.550367 0.387769 -0.966884
v 0.618695 0.440569 -0.844232
v 0.531883 0.395374 -0.959861
v 0.600211 0.448175 -0.837209
v 0.384982 -0.576945 -0.459446
v 0.488586 -0.632893 -0.126184
v 0.411090 -0.601006 -0.096740
v 0.471417 -0.511477 -0.168889
v 0.511756 -0.606319 -0.093981
v 0.434261 -0.574432 -0.064536
v 0.534836 -0.449902 -0.068659
v 0.264645 -0.797274 -0.537555
v 0.187150 -0.765387 -0.508110
v 0.209123 -0.701598 -0.653328
v 0.550367 0.387769 -0.966884
v 0.618695 0.440569 -0.844232
v 0.531883 0.395374 -0.959861
v 0.600211 0.448175 -0.837209
v 0.550367 0.387769 -0.966884
v 0.618695 0.440569 -0.844232
v 0.531883 0.395374 -0.959861
v 0.600211 0.448175 -0.837209
v 0.608221 0.578931 -0.989684
v 0.550367 0.387769 -0.966884
v 0.618695 0.440569 -0.844232
v 0.531883 0.395374 -0.959861
v 0.600211 0.448175 -0.837209
v 0.453310 -0.524144 -0.336795
v 0.307487 -0.545058 -0.430001
v 0.375814 -0.492258 -0.307350
v 0.343824 -0.513615 -0.449475
v 0.374430 -0.526209 -0.461104
v 0.432101 -0.481643 -0.357581
v 0.401495 -0.469049 -0.345952
v 0.359881 -0.634884 -0.328797
v 0.299016 -0.932667 -0.166695
v 0.360395 -0.632664 -0.330039
v 0.281155 -0.946470 -0.198757
v 0.288172 -0.948951 -0.200677
v 0.295606 -0.950806 -0.201291
v 0.303171 -0.951964 -0.200575
v 0.310576 -0.952381 -0.198558
v 0.317537 -0.952040 -0.195316
v 0.323787 -0.950954 -0.190974
v 0.329084 -0.949166 -0.185699
v 0.333226 -0.946744 -0.179694
v 0.336053 -0.943781 -0.173189
v 0.337457 -0.940391 -0.166435
v 0.337384 -0.936704 -0.159691
v 0.335836 -0.932861 -0.153216
v 0.332873 -0.929012 -0.147259
v 0.328609 -0.925303 -0.142049
v 0.323208 -0.921877 -0.137786
v 0.316877 -0.918865 -0.134634
v 0.309859 -0.916384 -0.132714
v 0.302425 -0.914529 -0.132100
v 0.294860 -0.913371 -0.132816
v 0.287455 -0.912954 -0.134833
v 0.280494 -0.913295 -0.138075
v 0.274245 -0.914381 -0.142417
v 0.268947 -0.916169 -0.147692
v 0.264805 -0.918591 -0.153697
v 0.261978 -0.921554 -0.160202
v 0.260574 -0.924944 -0.166956
v 0.260648 -0.928631 -0.173700
v 0.262196 -0.932473 -0.180175
v 0.265158 -0.936323 -0.186132
v 0.269422 -0.940032 -0.191342
v 0.274824 -0.943458 -0.195605
v 0.349551 -0.648947 -0.364020
v 0.342534 -0.646466 -0.362100
v 0.356985 -0.650802 -0.364634
v 0.364550 -0.651960 -0.363919
v 0.371955 -0.652377 -0.361901
v 0.378917 -0.652036 -0.358659
v 0.385166 -0.650951 -0.354317
v 0.390463 -0.649162 -0.349042
v 0.394605 -0.646740 -0.343037
v 0.397432 -0.643777 -0.336533
v 0.398836 -0.640387 -0.329779
v 0.398763 -0.636700 -0.323034
v 0.397215 -0.632858 -0.316559
v 0.394252 -0.629008 -0.310602
v 0.389988 -0.625299 -0.305392
v 0.384587 -0.621873 -0.301129
v 0.378256 -0.618861 -0.297978
v 0.371239 -0.616380 -0.296058
v 0.363805 -0.614525 -0.295444
v 0.356239 -0.613367 -0.296159
v 0.348834 -0.612950 -0.298177
v 0.341873 -0.613291 -0.301419
v 0.335624 -0.614377 -0.305761
v 0.330326 -0.616165 -0.311035
v 0.326184 -0.618587 -0.317041
v 0.323357 -0.621550 -0.323545
v 0.321953 -0.624941 -0.330299
v 0.322027 -0.628628 -0.337044
v 0.323575 -0.632470 -0.343519
v 0.326538 -0.636319 -0.349476
v 0.330801 -0.640028 -0.354686
v 0.336203 -0.643454 -0.358948
vn -0.8246 0.5655 0.0123
vn -0.1573 -0.8487 0.5050
vn -0.2390 -0.8364 0.4932
vn -0.1138 -0.8879 0.4457
vn -0.1961 -0.8786 0.4354
vn -0.4574 -0.3615 -0.8124
vn 0.9439 0.0175 -0.3297
vn -0.8725 0.3590 0.3315
vn 0.8725 -0.3590 -0.3315
vn 0.1769 0.8644 -0.4706
vn 0.3431 0.9331 -0.1074
vn -0.7073 0.4442 0.5500
vn -0.3603 -0.9309 0.0600
vn 0.8983 -0.0102 -0.4392
vn 0.0431 -0.6192 0.7840
vn 0.7073 -0.4442 -0.5500
vn -0.0185 0.6537 -0.7566
vn 0.8736 -0.3533 -0.3346
vn -0.8713 0.3647 0.3284
vn 0.4535 0.3424 0.8228
vn -0.7721 0.6270 0.1033
vn 0.2780 -0.1933 0.9409
vn 0.8370 -0.0724 -0.5424
vn -0.0576 -0.7493 0.6598
vn -0.4763 -0.7762 -0.4130
vn -0.2849 -0.9249 0.2518
vn -0.7165 0.6615 0.2217
vn 0.8811 -0.3093 -0.3577
vn -0.8610 0.4075 0.3042
vn 0.4886 0.6495 0.5826
vn -0.3565 -0.0036 -0.9343
vn 0.4860 0.5676 0.6646
vn -0.6447 0.7638 0.0303
vn 0.8329 0.1559 -0.5311
vn -0.3927 -0.1115 -0.9129
vn -0.3678 -0.3855 -0.8462
vn -0.1826 -0.4411 -0.8787
vn 0.0096 -0.4797 -0.8774
vn 0.2014 -0.4998 -0.8424
vn 0.3855 -0.5008 -0.7750
vn 0.5547 -0.4825 -0.6778
vn 0.7027 -0.4457 -0.5546
vn 0.8236 -0.3918 -0.4101
vn 0.9129 -0.3228 -0.2498
vn 0.9671 -0.2414 -0.0799
vn 0.9842 -0.1507 0.0931
vn 0.9634 -0.0542 0.2625
vn 0.9056 0.0444 0.4218
vn 0.8130 0.1412 0.5649
vn 0.6892 0.2326 0.6862
vn 0.5388 0.3151 0.7812
vn 0.3678 0.3855 0.8462
vn 0.1826 0.4411 0.8787
vn -0.0096 0.4797 0.8774
vn -0.2014 0.4998 0.8424
vn -0.3855 0.5008 0.7750
vn -0.5547 0.4825 0.6778
vn -0.7027 0.4457 0.5546
vn -0.8236 0.3918 0.4101
vn -0.9129 0.3228 0.2498
vn -0.9671 0.2414 0.0799
vn -0.9842 0.1507 -0.0931
vn -0.9634 0.0542 -0.2625
vn -0.9056 -0.0444 -0.4218
vn -0.8130 -0.1412 -0.5649
vn -0.6892 -0.2326 -0.6862
vn -0.5388 -0.3151 -0.7812
vn -0.1769 -0.8644 0.4706
vn -0.1769 -0.8644 0.4707
vn 0.1769 0.8644 -0.4707
vn -0.9659 0.2443 0.0857
vn 0.9659 -0.2443 -0.0857
vn -0.6729 0.6828 0.2846
vn 0.9169 -0.0106 -0.3989
vn 0.7922 -0.0997 -0.6021
vn -0.7964 0.5997 0.0782
vn 0.8560 -0.0429 -0.5153
vn -0.7298 0.6598 0.1794
vt 0.202199 0.815245
vt 0.303299 0.779456
vt 0.303299 0.864781
vt 0.934897 0.151649
vt 0.904964 0.101100
vt 0.964829 0.101100
vt 0.964829 0.202199
vt 0.904964 0.202199
vt 0.803344 0.712431
vt 0.822305 0.000000
vt 0.826987 0.712431
vt 0.684133 0.815245
vt 0.785232 0.779456
vt 0.785232 0.864781
vt 0.101100 0.815245
vt 0.202199 0.739798
vt 0.583033 0.815245
vt 0.684133 0.739798
vt 0.845098 0.741644
vt 0.151172 0.953223
vt 0.093769 0.970218
vt 0.093769 0.864781
vt 0.000000 0.779456
vt 0.101100 0.739798
vt 0.964829 0.000000
vt 0.481934 0.779456
vt 0.450768 0.856814
vt 0.392616 0.767907
vt 0.904964 0.303299
vt 0.583033 0.739798
vt 0.151172 0.864781
vt 0.208575 0.881776
vt 0.151172 0.970218
vt 0.590917 0.708940
vt 0.684133 0.000000
vt 0.676249 0.708940
vt 0.108983 0.708940
vt 0.202199 0.000000
vt 0.194316 0.708940
vt 0.886853 0.712431
vt 0.867891 0.000000
vt 0.882170 0.000000
vt 0.377815 0.954842
vt 0.297099 0.933853
vt 0.377815 0.864781
vt 0.434096 0.952609
vt 0.377815 0.932206
vt 0.434096 0.864781
vt 0.208575 0.954842
vt 0.289290 0.933853
vt 0.293195 0.965783
vt 0.521544 0.924646
vt 0.490378 0.864781
vt 0.521544 0.864781
vt 0.490378 0.932206
vt 0.434096 0.952609
vt 0.434096 0.864781
vt 0.964829 0.303299
vt 0.904964 0.334465
vt 0.334465 0.856814
vt 0.093769 0.962205
vt -0.000000 1.000000
vt -0.000000 0.864781
vt 0.998733 0.899877
vt 0.904964 0.937671
vt 0.904964 0.802452
vt 0.874238 0.869107
vt 0.859981 0.869901
vt 0.859981 0.741644
vt 0.888495 0.869901
vt 0.874238 0.869107
vt 0.888495 0.741644
vt 0.904964 0.741644
vt 0.785232 0.741644
vt 0.845098 0.741644
vt 0.923651 0.334884
vt 0.928807 0.568431
vt 0.923651 0.568458
vt 0.928807 0.334857
vt 0.933764 0.568349
vt 0.933764 0.334775
vt 0.938333 0.568217
vt 0.938333 0.334643
vt 0.942338 0.568039
vt 0.822607 0.741644
vt 0.826612 0.974152
vt 0.822607 0.973743
vt 0.826612 0.742053
vt 0.831181 0.974456
vt 0.831181 0.742357
vt 0.836138 0.974643
vt 0.836138 0.742544
vt 0.841294 0.974706
vt 0.841294 0.742608
vt 0.846450 0.974643
vt 0.846450 0.742544
vt 0.851408 0.974456
vt 0.851408 0.742357
vt 0.855977 0.974152
vt 0.855977 0.742053
vt 0.859981 0.973743
vt 0.904964 0.568458
vt 0.908968 0.802210
vt 0.904964 0.802032
vt 0.908968 0.568636
vt 0.913537 0.802342
vt 0.913537 0.568769
vt 0.918495 0.802424
vt 0.918495 0.568850
vt 0.923651 0.802452
vt 0.923651 0.568878
vt 0.928807 0.802424
vt 0.928807 0.568850
vt 0.933764 0.802342
vt 0.933764 0.568769
vt 0.938333 0.802210
vt 0.938333 0.568636
vt 0.942338 0.802032
vt 0.789237 0.974152
vt 0.785232 0.973743
vt 0.789237 0.742053
vt 0.793806 0.974456
vt 0.793806 0.742357
vt 0.798764 0.974643
vt 0.798764 0.742544
vt 0.803920 0.974706
vt 0.803920 0.742608
vt 0.809075 0.974643
vt 0.809075 0.742544
vt 0.814033 0.974456
vt 0.814033 0.742357
vt 0.818602 0.974152
vt 0.818602 0.742053
vt 0.822607 0.973743
vt 0.908968 0.568217
vt 0.904964 0.568039
vt 0.908968 0.334643
vt 0.913538 0.568349
vt 0.913538 0.334775
vt 0.918495 0.568431
vt 0.918495 0.334857
vt 0.547844 0.891081
vt 0.522555 0.898753
vt 0.521544 0.893671
vt 0.521544 0.888491
vt 0.522555 0.883410
vt 0.524537 0.878623
vt 0.527415 0.874316
vt 0.531079 0.870652
vt 0.535386 0.867774
vt 0.540173 0.865791
vt 0.545254 0.864781
vt 0.550435 0.864781
vt 0.555516 0.865791
vt 0.560302 0.867774
vt 0.564610 0.870652
vt 0.568273 0.874316
vt 0.571151 0.878623
vt 0.573134 0.883410
vt 0.574145 0.888491
vt 0.574145 0.893671
vt 0.573134 0.898753
vt 0.571151 0.903539
vt 0.568273 0.907847
vt 0.564610 0.911510
vt 0.560302 0.914388
vt 0.555516 0.916371
vt 0.550435 0.917382
vt 0.545254 0.917382
vt 0.540173 0.916371
vt 0.535386 0.914388
vt 0.531079 0.911510
vt 0.527415 0.907847
vt 0.524537 0.903539
vt 0.600445 0.891081
vt 0.577138 0.903539
vt 0.575156 0.898753
vt 0.580016 0.907847
vt 0.583680 0.911510
vt 0.587987 0.914388
vt 0.592774 0.916371
vt 0.597855 0.917382
vt 0.603036 0.917382
vt 0.608117 0.916371
vt 0.612903 0.914388
vt 0.617211 0.911510
vt 0.620874 0.907847
vt 0.623752 0.903539
vt 0.625735 0.898753
vt 0.626746 0.893671
vt 0.626746 0.888491
vt 0.625735 0.883410
vt 0.623752 0.878623
vt 0.620874 0.874316
vt 0.617211 0.870652
vt 0.612903 0.867774
vt 0.608117 0.865791
vt 0.603036 0.864781
vt 0.597855 0.864781
vt 0.592774 0.865791
vt 0.587987 0.867774
vt 0.583680 0.870652
vt 0.580016 0.874315
vt 0.577138 0.878623
vt 0.575156 0.883410
vt 0.574145 0.888491
vt 0.574145 0.893671
vt 0.808026 0.000000
vt 0.000000 0.864781
vt 0.904964 0.000000
vt 0.481934 0.864781
vt 0.583033 0.000000
vt 0.101100 0.000000
vt 0.863209 0.712431
vt 0.293195 0.965783
vt 0.208575 0.864781
vt 0.490378 0.924646
vt 0.964829 0.334465
vt 0.942338 0.334465
vt 0.859981 0.741644
vt 0.942338 0.568458
vt 0.822607 0.741644
s 0
usemtl Material
f 3/1/1 14/2/1 13/3/1
f 49/4/2 2/5/2 4/6/2
f 49/4/3 4/6/3 3/7/3
f 49/4/4 1/8/4 2/5/4
f 49/4/5 3/7/5 1/8/5
f 45/9/6 15/10/6 46/11/6
f 2/12/7 11/13/7 9/14/7
f 4/15/8 7/16/8 3/1/8
f 1/17/9 6/18/9 2/12/9
f 11/19/10 21/19/10 22/19/10
f 6/20/11 8/21/11 11/22/11
f 4/15/12 11/23/12 8/24/12
f 2/5/13 10/25/13 4/6/13
f 14/26/14 26/27/14 28/28/14
f 3/7/15 12/29/15 1/8/15
f 1/17/16 14/26/16 5/30/16
f 7/31/17 5/32/17 14/33/17
f 6/19/10 44/19/10 42/19/10
f 46/34/18 16/35/18 47/36/18
f 48/37/19 17/38/19 45/39/19
f 48/40/20 16/41/20 18/42/20
f 8/19/10 43/19/10 44/19/10
f 5/19/10 42/19/10 19/19/10
f 5/19/10 43/19/10 19/19/10
f 22/43/21 24/44/21 25/45/21
f 9/19/10 22/19/10 20/19/10
f 10/19/10 20/19/10 21/19/10
f 24/46/22 23/47/22 25/48/22
f 22/49/23 23/50/23 20/51/23
f 20/52/24 24/53/24 21/54/24
f 26/55/25 27/56/25 28/57/25
f 13/58/26 26/59/26 12/29/26
f 14/2/27 27/60/27 13/3/27
f 29/19/10 39/19/10 38/19/10
f 29/19/10 40/19/10 38/19/10
f 32/19/10 39/19/10 41/19/10
f 31/19/10 41/19/10 40/19/10
f 34/61/28 33/62/28 37/63/28
f 35/64/29 36/65/29 37/66/29
f 36/67/30 34/68/30 37/69/30
f 33/70/31 35/71/31 37/72/31
f 35/19/10 38/19/10 40/19/10
f 34/19/10 38/19/10 39/19/10
f 36/19/10 40/19/10 41/19/10
f 34/19/10 41/19/10 39/19/10
f 6/19/32 48/40/32 8/73/32
f 8/24/33 45/39/33 7/16/33
f 5/30/34 47/36/34 6/18/34
f 7/74/35 46/11/35 5/75/35
f 85/76/36 53/77/36 52/78/36
f 84/79/37 54/80/37 53/77/37
f 86/81/38 55/82/38 54/80/38
f 87/83/39 56/84/39 55/82/39
f 88/85/40 57/86/40 56/87/40
f 89/88/41 58/89/41 57/86/41
f 90/90/42 59/91/42 58/89/42
f 91/92/43 60/93/43 59/91/43
f 92/94/44 61/95/44 60/93/44
f 93/96/45 62/97/45 61/95/45
f 94/98/46 63/99/46 62/97/46
f 95/100/47 64/101/47 63/99/47
f 96/102/48 65/103/48 64/104/48
f 97/105/49 66/106/49 65/103/49
f 98/107/50 67/108/50 66/106/50
f 99/109/51 68/110/51 67/108/51
f 100/111/52 69/112/52 68/110/52
f 101/113/53 70/114/53 69/112/53
f 102/115/54 71/116/54 70/114/54
f 103/117/55 72/118/55 71/116/55
f 104/74/56 73/119/56 72/120/56
f 105/121/57 74/122/57 73/119/57
f 106/123/58 75/124/58 74/122/58
f 107/125/59 76/126/59 75/124/59
f 108/127/60 77/128/60 76/126/60
f 109/129/61 78/130/61 77/128/61
f 110/131/62 79/132/62 78/130/62
f 111/133/63 80/134/63 79/132/63
f 112/59/64 81/135/64 80/136/64
f 113/137/65 82/138/65 81/135/65
f 114/139/66 83/140/66 82/138/66
f 115/141/67 52/78/67 83/140/67
f 50/142/68 52/143/68 53/144/68
f 50/142/68 53/144/68 54/145/68
f 50/142/68 54/145/68 55/146/68
f 50/142/68 55/146/68 56/147/68
f 50/142/68 56/147/68 57/148/68
f 50/142/68 57/148/68 58/149/68
f 50/142/68 58/149/68 59/150/68
f 50/142/68 59/150/68 60/151/68
f 50/142/68 60/151/68 61/152/68
f 50/142/68 61/152/68 62/153/68
f 50/142/68 62/153/68 63/154/68
f 50/142/68 63/154/68 64/155/68
f 50/142/68 64/155/68 65/156/68
f 50/142/69 65/156/69 66/157/69
f 50/142/68 66/157/68 67/158/68
f 50/142/69 67/158/69 68/159/69
f 50/142/68 68/159/68 69/160/68
f 50/142/69 69/160/69 70/161/69
f 50/142/68 70/161/68 71/162/68
f 50/142/69 71/162/69 72/163/69
f 50/142/68 72/163/68 73/164/68
f 50/142/69 73/164/69 74/165/69
f 50/142/68 74/165/68 75/166/68
f 50/142/68 75/166/68 76/167/68
f 50/142/68 76/167/68 77/168/68
f 50/142/68 77/168/68 78/169/68
f 50/142/68 78/169/68 79/170/68
f 50/142/68 79/170/68 80/171/68
f 50/142/68 80/171/68 81/172/68
f 50/142/68 81/172/68 82/173/68
f 50/142/68 82/173/68 83/174/68
f 50/142/68 83/174/68 52/143/68
f 51/175/10 84/176/10 85/177/10
f 51/175/70 86/178/70 84/176/70
f 51/175/10 87/179/10 86/178/10
f 51/175/10 88/180/10 87/179/10
f 51/175/10 89/181/10 88/180/10
f 51/175/10 90/182/10 89/181/10
f 51/175/10 91/183/10 90/182/10
f 51/175/10 92/184/10 91/183/10
f 51/175/10 93/185/10 92/184/10
f 51/175/10 94/186/10 93/185/10
f 51/175/10 95/187/10 94/186/10
f 51/175/10 96/188/10 95/187/10
f 51/175/10 97/189/10 96/188/10
f 51/175/10 98/190/10 97/189/10
f 51/175/10 99/191/10 98/190/10
f 51/175/10 100/192/10 99/191/10
f 51/175/10 101/193/10 100/192/10
f 51/175/10 102/194/10 101/193/10
f 51/175/10 103/195/10 102/194/10
f 51/175/10 104/196/10 103/195/10
f 51/175/10 105/197/10 104/196/10
f 51/175/10 106/198/10 105/197/10
f 51/175/10 107/199/10 106/198/10
f 51/175/10 108/200/10 107/199/10
f 51/175/10 109/201/10 108/200/10
f 51/175/10 110/202/10 109/201/10
f 51/175/10 111/203/10 110/202/10
f 51/175/10 112/204/10 111/203/10
f 51/175/10 113/205/10 112/204/10
f 51/175/10 114/206/10 113/205/10
f 51/175/10 115/207/10 114/206/10
f 51/175/10 85/177/10 115/207/10
f 3/1/71 7/16/71 14/2/71
f 45/9/6 17/208/6 15/10/6
f 2/12/72 6/18/72 11/13/72
f 4/15/8 8/24/8 7/16/8
f 1/17/9 5/30/9 6/18/9
f 11/19/10 10/19/10 21/19/10
f 4/15/73 10/209/73 11/23/73
f 2/5/13 9/210/13 10/25/13
f 14/26/74 12/211/74 26/27/74
f 3/7/15 13/58/15 12/29/15
f 1/17/75 12/211/75 14/26/75
f 6/19/10 8/19/10 44/19/10
f 46/34/18 15/212/18 16/35/18
f 48/37/19 18/213/19 17/38/19
f 48/40/20 47/214/20 16/41/20
f 8/19/10 7/19/10 43/19/10
f 5/19/10 6/19/10 42/19/10
f 5/19/10 7/19/10 43/19/10
f 22/43/76 21/215/76 24/44/76
f 9/19/10 11/19/10 22/19/10
f 10/19/10 9/19/10 20/19/10
f 22/49/77 25/216/77 23/50/77
f 20/52/24 23/217/24 24/53/24
f 13/58/26 27/218/26 26/59/26
f 14/2/78 28/28/78 27/60/78
f 29/19/10 30/19/10 39/19/10
f 29/19/10 31/19/10 40/19/10
f 32/19/10 30/19/10 39/19/10
f 31/19/10 32/19/10 41/19/10
f 35/19/10 33/19/10 38/19/10
f 34/19/10 33/19/10 38/19/10
f 36/19/10 35/19/10 40/19/10
f 34/19/10 36/19/10 41/19/10
f 6/19/32 47/214/32 48/40/32
f 8/24/33 48/37/33 45/39/33
f 5/30/34 46/34/34 47/36/34
f 7/74/35 45/9/35 46/11/35
f 85/76/36 84/79/36 53/77/36
f 84/79/37 86/81/37 54/80/37
f 86/81/38 87/83/38 55/82/38
f 87/83/39 88/219/39 56/84/39
f 88/85/40 89/88/40 57/86/40
f 89/88/41 90/90/41 58/89/41
f 90/90/42 91/92/42 59/91/42
f 91/92/43 92/94/43 60/93/43
f 92/94/44 93/96/44 61/95/44
f 93/96/45 94/98/45 62/97/45
f 94/98/46 95/100/46 63/99/46
f 95/100/47 96/220/47 64/101/47
f 96/102/48 97/105/48 65/103/48
f 97/105/49 98/107/49 66/106/49
f 98/107/50 99/109/50 67/108/50
f 99/109/51 100/111/51 68/110/51
f 100/111/52 101/113/52 69/112/52
f 101/113/53 102/115/53 70/114/53
f 102/115/54 103/117/54 71/116/54
f 103/117/55 104/221/55 72/118/55
f 104/74/56 105/121/56 73/119/56
f 105/121/57 106/123/57 74/122/57
f 106/123/58 107/125/58 75/124/58
f 107/125/59 108/127/59 76/126/59
f 108/127/60 109/129/60 77/128/60
f 109/129/61 110/131/61 78/130/61
f 110/131/62 111/133/62 79/132/62
f 111/133/63 112/222/63 80/134/63
f 112/59/64 113/137/64 81/135/64
f 113/137/65 114/139/65 82/138/65
f 114/139/66 115/141/66 83/140/66
f 115/141/67 85/76/67 52/78/67
