# Blender 4.0.2
# www.blender.org
mtllib Protagonista110.mtl
o Cube
v 0.405220 -0.387063 -0.975951
v 0.443137 -0.383877 -0.830858
v 0.324273 -0.356778 -0.955462
v 0.362190 -0.353592 -0.810369
v 0.441875 -0.281032 -0.987858
v 0.479793 -0.277847 -0.842765
v 0.360929 -0.250748 -0.967369
v 0.398846 -0.247562 -0.822276
v 0.456988 -0.450306 -0.677946
v 0.376041 -0.420021 -0.657457
v 0.456159 -0.320488 -0.680580
v 0.343236 -0.459863 -1.113227
v 0.262290 -0.429578 -1.092738
v 0.342407 -0.330045 -1.115860
v 0.769101 0.766187 -1.096364
v 0.807018 0.769372 -0.951271
v 0.749794 0.773410 -1.091478
v 0.787711 0.776596 -0.946384
v 0.441875 -0.281032 -0.987858
v 0.456988 -0.450306 -0.677946
v 0.376041 -0.420021 -0.657457
v 0.456159 -0.320488 -0.680580
v 0.472547 -0.438128 -0.634476
v 0.391601 -0.407843 -0.613987
v 0.495268 -0.301443 -0.554218
v 0.335418 -0.449649 -1.159212
v 0.254471 -0.419364 -1.138723
v 0.314520 -0.316629 -1.245867
v 0.769101 0.766187 -1.096364
v 0.807018 0.769372 -0.951271
v 0.749794 0.773410 -1.091478
v 0.787711 0.776596 -0.946384
v 0.769101 0.766187 -1.096364
v 0.807018 0.769372 -0.951271
v 0.749794 0.773410 -1.091478
v 0.787711 0.776596 -0.946384
v 0.838906 0.946395 -1.041027
v 0.769101 0.766187 -1.096364
v 0.807018 0.769372 -0.951271
v 0.749794 0.773410 -1.091478
v 0.787711 0.776596 -0.946384
v 0.479793 -0.277847 -0.842765
v 0.360929 -0.250748 -0.967369
v 0.398846 -0.247562 -0.822276
v 0.402271 -0.219463 -0.966768
v 0.434240 -0.231424 -0.974860
v 0.466244 -0.228735 -0.852395
v 0.434275 -0.216774 -0.844303
v 0.382667 -0.373330 -0.892823
v 0.270805 -0.697093 -0.856481
v 0.383568 -0.370913 -0.893111
v 0.260893 -0.697925 -0.894409
v 0.268055 -0.700518 -0.895445
v 0.275322 -0.702978 -0.894983
v 0.282416 -0.705213 -0.893042
v 0.289064 -0.707135 -0.889696
v 0.295010 -0.708671 -0.885073
v 0.300025 -0.709763 -0.879352
v 0.303918 -0.710368 -0.872752
v 0.306538 -0.710462 -0.865526
v 0.307786 -0.710043 -0.857953
v 0.307611 -0.709126 -0.850323
v 0.306023 -0.707746 -0.842930
v 0.303081 -0.705957 -0.836058
v 0.298899 -0.703828 -0.829970
v 0.293637 -0.701440 -0.824902
v 0.287497 -0.698884 -0.821047
v 0.280716 -0.696260 -0.818553
v 0.273554 -0.693668 -0.817518
v 0.266287 -0.691207 -0.817979
v 0.259193 -0.688973 -0.819920
v 0.252546 -0.687050 -0.823267
v 0.246600 -0.685514 -0.827889
v 0.241584 -0.684422 -0.833611
v 0.237691 -0.683818 -0.840211
v 0.235071 -0.683724 -0.847436
v 0.233824 -0.684143 -0.855010
v 0.233998 -0.685060 -0.862639
v 0.235586 -0.686439 -0.870032
v 0.238528 -0.688228 -0.876905
v 0.242711 -0.690358 -0.882992
v 0.247973 -0.692746 -0.888061
v 0.254112 -0.695301 -0.891916
v 0.380818 -0.374337 -0.932075
v 0.373656 -0.371745 -0.931039
v 0.388085 -0.376798 -0.931613
v 0.395179 -0.379032 -0.929672
v 0.401827 -0.380955 -0.926326
v 0.407773 -0.382491 -0.921703
v 0.412788 -0.383583 -0.915982
v 0.416681 -0.384187 -0.909381
v 0.419302 -0.384282 -0.902156
v 0.420549 -0.383862 -0.894583
v 0.420374 -0.382945 -0.886953
v 0.418786 -0.381566 -0.879560
v 0.415844 -0.379777 -0.872688
v 0.411662 -0.377648 -0.866600
v 0.406400 -0.375259 -0.861532
v 0.400260 -0.372704 -0.857677
v 0.393479 -0.370080 -0.855183
v 0.386317 -0.367488 -0.854147
v 0.379050 -0.365027 -0.854609
v 0.371956 -0.362793 -0.856550
v 0.365309 -0.360870 -0.859896
v 0.359363 -0.359334 -0.864519
v 0.354347 -0.358242 -0.870240
v 0.350454 -0.357638 -0.876841
v 0.347834 -0.357543 -0.884066
v 0.346587 -0.357963 -0.891639
v 0.346761 -0.358880 -0.899269
v 0.348349 -0.360259 -0.906662
v 0.351291 -0.362048 -0.913534
v 0.355474 -0.364177 -0.919622
v 0.360736 -0.366566 -0.924691
v 0.366875 -0.369121 -0.928546
vn -0.7769 0.6293 0.0171
vn -0.3139 -0.9381 0.1466
vn -0.3895 -0.9130 0.1218
vn -0.2587 -0.9619 0.0887
vn -0.3354 -0.9399 0.0643
vn -0.2564 -0.0316 -0.9661
vn 0.9961 0.0046 -0.0882
vn -0.9113 0.3410 0.2307
vn 0.9113 -0.3410 -0.2307
vn 0.3249 0.9398 -0.1055
vn 0.3986 0.8711 0.2871
vn -0.8021 0.3330 0.4958
vn -0.4032 -0.8521 -0.3336
vn 0.9780 0.0182 -0.2079
vn -0.1794 -0.8333 0.5229
vn 0.8021 -0.3330 -0.4958
vn 0.1979 0.8542 -0.4808
vn 0.9134 -0.3348 -0.2314
vn -0.9092 0.3471 0.2300
vn 0.2492 0.0109 0.9684
vn -0.7461 0.6525 0.1326
vn 0.0271 -0.5095 0.8600
vn 0.9416 -0.0008 -0.3368
vn -0.2516 -0.9048 0.3435
vn -0.3915 -0.5447 -0.7417
vn -0.3777 -0.9154 -0.1391
vn -0.7202 0.6412 0.2649
vn 0.9283 -0.2870 -0.2363
vn -0.8914 0.3938 0.2243
vn 0.3559 0.3708 0.8578
vn -0.1131 0.3314 -0.9367
vn 0.3295 0.2684 0.9052
vn -0.5988 0.7887 0.1392
vn 0.9445 0.2113 -0.2515
vn -0.1581 0.2274 -0.9609
vn -0.1622 -0.0546 -0.9852
vn 0.0226 -0.1193 -0.9926
vn 0.2067 -0.1795 -0.9618
vn 0.3827 -0.2327 -0.8941
vn 0.5441 -0.2770 -0.7920
vn 0.6846 -0.3107 -0.6594
vn 0.7987 -0.3324 -0.5015
vn 0.8822 -0.3414 -0.3244
vn 0.9317 -0.3372 -0.1348
vn 0.9455 -0.3201 0.0600
vn 0.9229 -0.2907 0.2525
vn 0.8648 -0.2501 0.4353
vn 0.7735 -0.1999 0.6014
vn 0.6525 -0.1420 0.7443
vn 0.5064 -0.0787 0.8587
vn 0.3409 -0.0123 0.9400
vn 0.1622 0.0546 0.9852
vn -0.0226 0.1193 0.9926
vn -0.2067 0.1795 0.9618
vn -0.3827 0.2327 0.8941
vn -0.5441 0.2770 0.7920
vn -0.6846 0.3107 0.6594
vn -0.7987 0.3324 0.5015
vn -0.8822 0.3414 0.3244
vn -0.9317 0.3372 0.1348
vn -0.9455 0.3201 -0.0600
vn -0.9229 0.2907 -0.2525
vn -0.8648 0.2501 -0.4353
vn -0.7735 0.1999 -0.6014
vn -0.6525 0.1420 -0.7443
vn -0.5064 0.0787 -0.8587
vn -0.3409 0.0123 -0.9400
vn -0.3249 -0.9398 0.1055
vn -0.9456 0.3209 -0.0534
vn 0.9456 -0.3209 0.0534
vn -0.6927 0.6364 0.3392
vn 0.9860 0.0029 -0.1670
vn 0.9119 -0.0025 -0.4104
vn -0.7646 0.6375 0.0951
vn 0.9545 0.0162 -0.2979
vn -0.7226 0.6545 0.2225
vt 0.202199 0.815245
vt 0.303299 0.779456
vt 0.303299 0.864781
vt 0.934897 0.151649
vt 0.904964 0.101100
vt 0.964829 0.101100
vt 0.964829 0.202199
vt 0.904964 0.202199
vt 0.803344 0.712431
vt 0.822305 0.000000
vt 0.826987 0.712431
vt 0.684133 0.815245
vt 0.785232 0.779456
vt 0.785232 0.864781
vt 0.101100 0.815245
vt 0.202199 0.739798
vt 0.583033 0.815245
vt 0.684133 0.739798
vt 0.845098 0.741644
vt 0.151172 0.953223
vt 0.093769 0.970218
vt 0.093769 0.864781
vt 0.000000 0.779456
vt 0.101100 0.739798
vt 0.964829 0.000000
vt 0.481934 0.779456
vt 0.450768 0.856814
vt 0.392616 0.767907
vt 0.904964 0.303299
vt 0.583033 0.739798
vt 0.151172 0.864781
vt 0.208575 0.881776
vt 0.151172 0.970218
vt 0.590917 0.708940
vt 0.684133 0.000000
vt 0.676249 0.708940
vt 0.108983 0.708940
vt 0.202199 0.000000
vt 0.194316 0.708940
vt 0.886853 0.712431
vt 0.867891 0.000000
vt 0.882170 0.000000
vt 0.377815 0.954842
vt 0.297099 0.933853
vt 0.377815 0.864781
vt 0.434096 0.952609
vt 0.377815 0.932206
vt 0.434096 0.864781
vt 0.208575 0.954842
vt 0.289290 0.933853
vt 0.293195 0.965783
vt 0.521544 0.924646
vt 0.490378 0.864781
vt 0.521544 0.864781
vt 0.490378 0.932206
vt 0.434096 0.952609
vt 0.434096 0.864781
vt 0.964829 0.303299
vt 0.904964 0.334465
vt 0.334465 0.856814
vt 0.093769 0.962205
vt -0.000000 1.000000
vt -0.000000 0.864781
vt 0.998733 0.899877
vt 0.904964 0.937671
vt 0.904964 0.802452
vt 0.874238 0.869107
vt 0.859981 0.869901
vt 0.859981 0.741644
vt 0.888495 0.869901
vt 0.874238 0.869107
vt 0.888495 0.741644
vt 0.904964 0.741644
vt 0.785232 0.741644
vt 0.845098 0.741644
vt 0.923651 0.334884
vt 0.928807 0.568431
vt 0.923651 0.568458
vt 0.928807 0.334857
vt 0.933764 0.568349
vt 0.933764 0.334775
vt 0.938333 0.568217
vt 0.938333 0.334643
vt 0.942338 0.568039
vt 0.822607 0.741644
vt 0.826612 0.974152
vt 0.822607 0.973743
vt 0.826612 0.742053
vt 0.831181 0.974456
vt 0.831181 0.742357
vt 0.836138 0.974643
vt 0.836138 0.742544
vt 0.841294 0.974706
vt 0.841294 0.742608
vt 0.846450 0.974643
vt 0.846450 0.742544
vt 0.851408 0.974456
vt 0.851408 0.742357
vt 0.855977 0.974152
vt 0.855977 0.742053
vt 0.859981 0.973743
vt 0.904964 0.568458
vt 0.908968 0.802210
vt 0.904964 0.802032
vt 0.908968 0.568636
vt 0.913537 0.802342
vt 0.913537 0.568769
vt 0.918495 0.802424
vt 0.918495 0.568850
vt 0.923651 0.802452
vt 0.923651 0.568878
vt 0.928807 0.802424
vt 0.928807 0.568850
vt 0.933764 0.802342
vt 0.933764 0.568769
vt 0.938333 0.802210
vt 0.938333 0.568636
vt 0.942338 0.802032
vt 0.789237 0.974152
vt 0.785232 0.973743
vt 0.789237 0.742053
vt 0.793806 0.974456
vt 0.793806 0.742357
vt 0.798764 0.974643
vt 0.798764 0.742544
vt 0.803920 0.974706
vt 0.803920 0.742608
vt 0.809075 0.974643
vt 0.809075 0.742544
vt 0.814033 0.974456
vt 0.814033 0.742357
vt 0.818602 0.974152
vt 0.818602 0.742053
vt 0.822607 0.973743
vt 0.908968 0.568217
vt 0.904964 0.568039
vt 0.908968 0.334643
vt 0.913538 0.568349
vt 0.913538 0.334775
vt 0.918495 0.568431
vt 0.918495 0.334857
vt 0.547844 0.891081
vt 0.522555 0.898753
vt 0.521544 0.893671
vt 0.521544 0.888491
vt 0.522555 0.883410
vt 0.524537 0.878623
vt 0.527415 0.874316
vt 0.531079 0.870652
vt 0.535386 0.867774
vt 0.540173 0.865791
vt 0.545254 0.864781
vt 0.550435 0.864781
vt 0.555516 0.865791
vt 0.560302 0.867774
vt 0.564610 0.870652
vt 0.568273 0.874316
vt 0.571151 0.878623
vt 0.573134 0.883410
vt 0.574145 0.888491
vt 0.574145 0.893671
vt 0.573134 0.898753
vt 0.571151 0.903539
vt 0.568273 0.907847
vt 0.564610 0.911510
vt 0.560302 0.914388
vt 0.555516 0.916371
vt 0.550435 0.917382
vt 0.545254 0.917382
vt 0.540173 0.916371
vt 0.535386 0.914388
vt 0.531079 0.911510
vt 0.527415 0.907847
vt 0.524537 0.903539
vt 0.600445 0.891081
vt 0.577138 0.903539
vt 0.575156 0.898753
vt 0.580016 0.907847
vt 0.583680 0.911510
vt 0.587987 0.914388
vt 0.592774 0.916371
vt 0.597855 0.917382
vt 0.603036 0.917382
vt 0.608117 0.916371
vt 0.612903 0.914388
vt 0.617211 0.911510
vt 0.620874 0.907847
vt 0.623752 0.903539
vt 0.625735 0.898753
vt 0.626746 0.893671
vt 0.626746 0.888491
vt 0.625735 0.883410
vt 0.623752 0.878623
vt 0.620874 0.874316
vt 0.617211 0.870652
vt 0.612903 0.867774
vt 0.608117 0.865791
vt 0.603036 0.864781
vt 0.597855 0.864781
vt 0.592774 0.865791
vt 0.587987 0.867774
vt 0.583680 0.870652
vt 0.580016 0.874315
vt 0.577138 0.878623
vt 0.575156 0.883410
vt 0.574145 0.888491
vt 0.574145 0.893671
vt 0.808026 0.000000
vt 0.000000 0.864781
vt 0.904964 0.000000
vt 0.481934 0.864781
vt 0.583033 0.000000
vt 0.101100 0.000000
vt 0.863209 0.712431
vt 0.293195 0.965783
vt 0.208575 0.864781
vt 0.490378 0.924646
vt 0.964829 0.334465
vt 0.942338 0.334465
vt 0.859981 0.741644
vt 0.942338 0.568458
vt 0.822607 0.741644
s 0
usemtl Material
f 3/1/1 14/2/1 13/3/1
f 49/4/2 2/5/2 4/6/2
f 49/4/3 4/6/3 3/7/3
f 49/4/4 1/8/4 2/5/4
f 49/4/5 3/7/5 1/8/5
f 45/9/6 15/10/6 46/11/6
f 2/12/7 11/13/7 9/14/7
f 4/15/8 7/16/8 3/1/8
f 1/17/9 6/18/9 2/12/9
f 11/19/10 21/19/10 22/19/10
f 6/20/11 8/21/11 11/22/11
f 4/15/12 11/23/12 8/24/12
f 2/5/13 10/25/13 4/6/13
f 14/26/14 26/27/14 28/28/14
f 3/7/15 12/29/15 1/8/15
f 1/17/16 14/26/16 5/30/16
f 7/31/17 5/32/17 14/33/17
f 6/19/10 44/19/10 42/19/10
f 46/34/18 16/35/18 47/36/18
f 48/37/19 17/38/19 45/39/19
f 48/40/20 16/41/20 18/42/20
f 8/19/10 43/19/10 44/19/10
f 5/19/10 42/19/10 19/19/10
f 5/19/10 43/19/10 19/19/10
f 22/43/21 24/44/21 25/45/21
f 9/19/10 22/19/10 20/19/10
f 10/19/10 20/19/10 21/19/10
f 24/46/22 23/47/22 25/48/22
f 22/49/23 23/50/23 20/51/23
f 20/52/24 24/53/24 21/54/24
f 26/55/25 27/56/25 28/57/25
f 13/58/26 26/59/26 12/29/26
f 14/2/27 27/60/27 13/3/27
f 29/19/10 39/19/10 38/19/10
f 29/19/10 40/19/10 38/19/10
f 32/19/10 39/19/10 41/19/10
f 31/19/10 41/19/10 40/19/10
f 34/61/28 33/62/28 37/63/28
f 35/64/29 36/65/29 37/66/29
f 36/67/30 34/68/30 37/69/30
f 33/70/31 35/71/31 37/72/31
f 35/19/10 38/19/10 40/19/10
f 34/19/10 38/19/10 39/19/10
f 36/19/10 40/19/10 41/19/10
f 34/19/10 41/19/10 39/19/10
f 6/19/32 48/40/32 8/73/32
f 8/24/33 45/39/33 7/16/33
f 5/30/34 47/36/34 6/18/34
f 7/74/35 46/11/35 5/75/35
f 85/76/36 53/77/36 52/78/36
f 84/79/37 54/80/37 53/77/37
f 86/81/38 55/82/38 54/80/38
f 87/83/39 56/84/39 55/82/39
f 88/85/40 57/86/40 56/87/40
f 89/88/41 58/89/41 57/86/41
f 90/90/42 59/91/42 58/89/42
f 91/92/43 60/93/43 59/91/43
f 92/94/44 61/95/44 60/93/44
f 93/96/45 62/97/45 61/95/45
f 94/98/46 63/99/46 62/97/46
f 95/100/47 64/101/47 63/99/47
f 96/102/48 65/103/48 64/104/48
f 97/105/49 66/106/49 65/103/49
f 98/107/50 67/108/50 66/106/50
f 99/109/51 68/110/51 67/108/51
f 100/111/52 69/112/52 68/110/52
f 101/113/53 70/114/53 69/112/53
f 102/115/54 71/116/54 70/114/54
f 103/117/55 72/118/55 71/116/55
f 104/74/56 73/119/56 72/120/56
f 105/121/57 74/122/57 73/119/57
f 106/123/58 75/124/58 74/122/58
f 107/125/59 76/126/59 75/124/59
f 108/127/60 77/128/60 76/126/60
f 109/129/61 78/130/61 77/128/61
f 110/131/62 79/132/62 78/130/62
f 111/133/63 80/134/63 79/132/63
f 112/59/64 81/135/64 80/136/64
f 113/137/65 82/138/65 81/135/65
f 114/139/66 83/140/66 82/138/66
f 115/141/67 52/78/67 83/140/67
f 50/142/68 52/143/68 53/144/68
f 50/142/68 53/144/68 54/145/68
f 50/142/68 54/145/68 55/146/68
f 50/142/68 55/146/68 56/147/68
f 50/142/68 56/147/68 57/148/68
f 50/142/68 57/148/68 58/149/68
f 50/142/68 58/149/68 59/150/68
f 50/142/68 59/150/68 60/151/68
f 50/142/68 60/151/68 61/152/68
f 50/142/68 61/152/68 62/153/68
f 50/142/68 62/153/68 63/154/68
f 50/142/68 63/154/68 64/155/68
f 50/142/68 64/155/68 65/156/68
f 50/142/68 65/156/68 66/157/68
f 50/142/68 66/157/68 67/158/68
f 50/142/68 67/158/68 68/159/68
f 50/142/68 68/159/68 69/160/68
f 50/142/68 69/160/68 70/161/68
f 50/142/68 70/161/68 71/162/68
f 50/142/68 71/162/68 72/163/68
f 50/142/68 72/163/68 73/164/68
f 50/142/68 73/164/68 74/165/68
f 50/142/68 74/165/68 75/166/68
f 50/142/68 75/166/68 76/167/68
f 50/142/68 76/167/68 77/168/68
f 50/142/68 77/168/68 78/169/68
f 50/142/68 78/169/68 79/170/68
f 50/142/68 79/170/68 80/171/68
f 50/142/68 80/171/68 81/172/68
f 50/142/68 81/172/68 82/173/68
f 50/142/68 82/173/68 83/174/68
f 50/142/68 83/174/68 52/143/68
f 51/175/10 84/176/10 85/177/10
f 51/175/10 86/178/10 84/176/10
f 51/175/10 87/179/10 86/178/10
f 51/175/10 88/180/10 87/179/10
f 51/175/10 89/181/10 88/180/10
f 51/175/10 90/182/10 89/181/10
f 51/175/10 91/183/10 90/182/10
f 51/175/10 92/184/10 91/183/10
f 51/175/10 93/185/10 92/184/10
f 51/175/10 94/186/10 93/185/10
f 51/175/10 95/187/10 94/186/10
f 51/175/10 96/188/10 95/187/10
f 51/175/10 97/189/10 96/188/10
f 51/175/10 98/190/10 97/189/10
f 51/175/10 99/191/10 98/190/10
f 51/175/10 100/192/10 99/191/10
f 51/175/10 101/193/10 100/192/10
f 51/175/10 102/194/10 101/193/10
f 51/175/10 103/195/10 102/194/10
f 51/175/10 104/196/10 103/195/10
f 51/175/10 105/197/10 104/196/10
f 51/175/10 106/198/10 105/197/10
f 51/175/10 107/199/10 106/198/10
f 51/175/10 108/200/10 107/199/10
f 51/175/10 109/201/10 108/200/10
f 51/175/10 110/202/10 109/201/10
f 51/175/10 111/203/10 110/202/10
f 51/175/10 112/204/10 111/203/10
f 51/175/10 113/205/10 112/204/10
f 51/175/10 114/206/10 113/205/10
f 51/175/10 115/207/10 114/206/10
f 51/175/10 85/177/10 115/207/10
f 3/1/69 7/16/69 14/2/69
f 45/9/6 17/208/6 15/10/6
f 2/12/70 6/18/70 11/13/70
f 4/15/8 8/24/8 7/16/8
f 1/17/9 5/30/9 6/18/9
f 11/19/10 10/19/10 21/19/10
f 4/15/71 10/209/71 11/23/71
f 2/5/13 9/210/13 10/25/13
f 14/26/72 12/211/72 26/27/72
f 3/7/15 13/58/15 12/29/15
f 1/17/73 12/211/73 14/26/73
f 6/19/10 8/19/10 44/19/10
f 46/34/18 15/212/18 16/35/18
f 48/37/19 18/213/19 17/38/19
f 48/40/20 47/214/20 16/41/20
f 8/19/10 7/19/10 43/19/10
f 5/19/10 6/19/10 42/19/10
f 5/19/10 7/19/10 43/19/10
f 22/43/74 21/215/74 24/44/74
f 9/19/10 11/19/10 22/19/10
f 10/19/10 9/19/10 20/19/10
f 22/49/75 25/216/75 23/50/75
f 20/52/24 23/217/24 24/53/24
f 13/58/26 27/218/26 26/59/26
f 14/2/76 28/28/76 27/60/76
f 29/19/10 30/19/10 39/19/10
f 29/19/10 31/19/10 40/19/10
f 32/19/10 30/19/10 39/19/10
f 31/19/10 32/19/10 41/19/10
f 35/19/10 33/19/10 38/19/10
f 34/19/10 33/19/10 38/19/10
f 36/19/10 35/19/10 40/19/10
f 34/19/10 36/19/10 41/19/10
f 6/19/32 47/214/32 48/40/32
f 8/24/33 48/37/33 45/39/33
f 5/30/34 46/34/34 47/36/34
f 7/74/35 45/9/35 46/11/35
f 85/76/36 84/79/36 53/77/36
f 84/79/37 86/81/37 54/80/37
f 86/81/38 87/83/38 55/82/38
f 87/83/39 88/219/39 56/84/39
f 88/85/40 89/88/40 57/86/40
f 89/88/41 90/90/41 58/89/41
f 90/90/42 91/92/42 59/91/42
f 91/92/43 92/94/43 60/93/43
f 92/94/44 93/96/44 61/95/44
f 93/96/45 94/98/45 62/97/45
f 94/98/46 95/100/46 63/99/46
f 95/100/47 96/220/47 64/101/47
f 96/102/48 97/105/48 65/103/48
f 97/105/49 98/107/49 66/106/49
f 98/107/50 99/109/50 67/108/50
f 99/109/51 100/111/51 68/110/51
f 100/111/52 101/113/52 69/112/52
f 101/113/53 102/115/53 70/114/53
f 102/115/54 103/117/54 71/116/54
f 103/117/55 104/221/55 72/118/55
f 104/74/56 105/121/56 73/119/56
f 105/121/57 106/123/57 74/122/57
f 106/123/58 107/125/58 75/124/58
f 107/125/59 108/127/59 76/126/59
f 108/127/60 109/129/60 77/128/60
f 109/129/61 110/131/61 78/130/61
f 110/131/62 111/133/62 79/132/62
f 111/133/63 112/222/63 80/134/63
f 112/59/64 113/137/64 81/135/64
f 113/137/65 114/139/65 82/138/65
f 114/139/66 115/141/66 83/140/66
f 115/141/67 85/76/67 52/78/67
