# Blender 4.0.2
# www.blender.org
mtllib Protagonista111.mtl
o Cube
v 0.398742 -0.392886 -0.964480
v 0.443081 -0.380035 -0.821761
v 0.318367 -0.362298 -0.942264
v 0.362707 -0.349446 -0.799545
v 0.433291 -0.287411 -0.984711
v 0.477630 -0.274560 -0.841992
v 0.352916 -0.256823 -0.962495
v 0.397255 -0.243971 -0.819776
v 0.464738 -0.436433 -0.665759
v 0.384363 -0.405845 -0.643543
v 0.461916 -0.307065 -0.676531
v 0.331720 -0.474987 -1.093917
v 0.251345 -0.444398 -1.071701
v 0.328898 -0.345618 -1.104689
v 0.740156 0.754497 -1.173865
v 0.784495 0.767349 -1.031145
v 0.720985 0.761793 -1.168566
v 0.765324 0.774644 -1.025846
v 0.433291 -0.287411 -0.984711
v 0.464738 -0.436433 -0.665759
v 0.384363 -0.405845 -0.643543
v 0.461916 -0.307065 -0.676531
v 0.482054 -0.421334 -0.623899
v 0.401679 -0.390746 -0.601682
v 0.506376 -0.279566 -0.553541
v 0.321699 -0.467811 -1.140050
v 0.241325 -0.437223 -1.117834
v 0.295015 -0.340826 -1.233873
v 0.740156 0.754497 -1.173865
v 0.784495 0.767349 -1.031145
v 0.720985 0.761793 -1.168566
v 0.765324 0.774644 -1.025846
v 0.740156 0.754497 -1.173865
v 0.784495 0.767349 -1.031145
v 0.720985 0.761793 -1.168566
v 0.765324 0.774644 -1.025846
v 0.809763 0.938658 -1.133247
v 0.740156 0.754497 -1.173865
v 0.784495 0.767349 -1.031145
v 0.720985 0.761793 -1.168566
v 0.765324 0.774644 -1.025846
v 0.477630 -0.274560 -0.841992
v 0.352916 -0.256823 -0.962495
v 0.397255 -0.243971 -0.819776
v 0.393788 -0.225087 -0.965757
v 0.425531 -0.237167 -0.974531
v 0.462955 -0.226320 -0.854070
v 0.431212 -0.214240 -0.845296
v 0.379746 -0.374153 -0.881440
v 0.274316 -0.696220 -0.819685
v 0.380598 -0.371748 -0.881921
v 0.262725 -0.699579 -0.856992
v 0.269870 -0.702149 -0.858188
v 0.277186 -0.704491 -0.857905
v 0.284391 -0.706515 -0.856153
v 0.291209 -0.708143 -0.853000
v 0.297378 -0.709314 -0.848566
v 0.302661 -0.709981 -0.843022
v 0.306854 -0.710119 -0.836582
v 0.309797 -0.709723 -0.829492
v 0.311377 -0.708808 -0.822025
v 0.311532 -0.707409 -0.814469
v 0.310257 -0.705581 -0.807112
v 0.307601 -0.703392 -0.800239
v 0.303665 -0.700928 -0.794113
v 0.298602 -0.698283 -0.788970
v 0.292606 -0.695559 -0.785007
v 0.285906 -0.692860 -0.782377
v 0.278761 -0.690291 -0.781181
v 0.271446 -0.687949 -0.781464
v 0.264240 -0.685924 -0.783216
v 0.257422 -0.684296 -0.786370
v 0.251253 -0.683126 -0.790803
v 0.245971 -0.682459 -0.796347
v 0.241777 -0.682320 -0.802787
v 0.238834 -0.682716 -0.809877
v 0.237255 -0.683631 -0.817344
v 0.237100 -0.685030 -0.824901
v 0.238375 -0.686858 -0.832257
v 0.241031 -0.689047 -0.839130
v 0.244966 -0.691511 -0.845256
v 0.250029 -0.694156 -0.850399
v 0.256026 -0.696880 -0.854362
v 0.376152 -0.377678 -0.920424
v 0.369007 -0.375108 -0.919228
v 0.383468 -0.380019 -0.920141
v 0.390673 -0.382044 -0.918389
v 0.397491 -0.383672 -0.915236
v 0.403660 -0.384842 -0.910802
v 0.408943 -0.385509 -0.905258
v 0.413136 -0.385648 -0.898818
v 0.416079 -0.385252 -0.891728
v 0.417659 -0.384337 -0.884261
v 0.417814 -0.382938 -0.876705
v 0.416539 -0.381110 -0.869348
v 0.413883 -0.378921 -0.862475
v 0.409947 -0.376457 -0.856349
v 0.404884 -0.373812 -0.851206
v 0.398888 -0.371088 -0.847244
v 0.392188 -0.368389 -0.844613
v 0.385043 -0.365819 -0.843417
v 0.377728 -0.363477 -0.843700
v 0.370522 -0.361453 -0.845452
v 0.363704 -0.359825 -0.848606
v 0.357535 -0.358655 -0.853039
v 0.352253 -0.357987 -0.858583
v 0.348059 -0.357849 -0.865024
v 0.345116 -0.358245 -0.872113
v 0.343537 -0.359160 -0.879580
v 0.343382 -0.360559 -0.887137
v 0.344657 -0.362387 -0.894493
v 0.347313 -0.364576 -0.901366
v 0.351248 -0.367040 -0.907492
v 0.356311 -0.369685 -0.912635
v 0.362308 -0.372409 -0.916598
vn -0.7844 0.6201 0.0128
vn -0.2934 -0.9304 0.2197
vn -0.3704 -0.9078 0.1968
vn -0.2405 -0.9572 0.1609
vn -0.3185 -0.9377 0.1387
vn -0.2990 -0.0960 -0.9494
vn 0.9910 0.0105 -0.1338
vn -0.9049 0.3444 0.2501
vn 0.9049 -0.3444 -0.2501
vn 0.3062 0.9349 -0.1793
vn 0.3984 0.8921 0.2131
vn -0.7838 0.3545 0.5099
vn -0.4055 -0.8762 -0.2605
vn 0.9673 0.0163 -0.2531
vn -0.1437 -0.8003 0.5821
vn 0.7838 -0.3545 -0.5099
vn 0.1637 0.8241 -0.5423
vn 0.9069 -0.3382 -0.2513
vn -0.9029 0.3505 0.2489
vn 0.2922 0.0753 0.9534
vn -0.7488 0.6509 0.1251
vn 0.0730 -0.4534 0.8883
vn 0.9254 -0.0114 -0.3787
vn -0.2228 -0.8840 0.4110
vn -0.4165 -0.5953 -0.6872
vn -0.3703 -0.9267 -0.0637
vn -0.7168 0.6484 0.2565
vn 0.9208 -0.2907 -0.2599
vn -0.8860 0.3969 0.2395
vn 0.3886 0.4288 0.8156
vn -0.1598 0.2698 -0.9496
vn 0.3659 0.3293 0.8705
vn -0.6033 0.7890 0.1164
vn 0.9291 0.2057 -0.3072
vn -0.2043 0.1640 -0.9651
vn -0.2055 -0.1190 -0.9714
vn -0.0202 -0.1820 -0.9831
vn 0.1659 -0.2379 -0.9570
vn 0.3456 -0.2847 -0.8942
vn 0.5120 -0.3206 -0.7969
vn 0.6587 -0.3441 -0.6691
vn 0.7801 -0.3544 -0.5155
vn 0.8716 -0.3511 -0.3422
vn 0.9295 -0.3343 -0.1557
vn 0.9517 -0.3047 0.0368
vn 0.9374 -0.2633 0.2279
vn 0.8870 -0.2119 0.4103
vn 0.8026 -0.1522 0.5768
vn 0.6873 -0.0868 0.7212
vn 0.5455 -0.0180 0.8379
vn 0.3829 0.0515 0.9224
vn 0.2055 0.1190 0.9714
vn 0.0202 0.1820 0.9831
vn -0.1659 0.2379 0.9570
vn -0.3456 0.2847 0.8942
vn -0.5120 0.3206 0.7969
vn -0.6587 0.3441 0.6691
vn -0.7801 0.3544 0.5155
vn -0.8716 0.3511 0.3422
vn -0.9295 0.3343 0.1557
vn -0.9517 0.3047 -0.0368
vn -0.9374 0.2633 -0.2279
vn -0.8870 0.2119 -0.4103
vn -0.8026 0.1522 -0.5768
vn -0.6873 0.0868 -0.7212
vn -0.5455 0.0180 -0.8379
vn -0.3829 -0.0515 -0.9224
vn -0.3062 -0.9349 0.1793
vn -0.9516 0.3059 -0.0303
vn 0.9516 -0.3059 0.0303
vn -0.6859 0.6487 0.3297
vn 0.9773 0.0037 -0.2117
vn 0.8925 -0.0181 -0.4507
vn -0.7687 0.6334 0.0895
vn 0.9398 0.0083 -0.3416
vn -0.7213 0.6589 0.2136
vt 0.202199 0.815245
vt 0.303299 0.779456
vt 0.303299 0.864781
vt 0.934897 0.151649
vt 0.904964 0.101100
vt 0.964829 0.101100
vt 0.964829 0.202199
vt 0.904964 0.202199
vt 0.803344 0.712431
vt 0.822305 0.000000
vt 0.826987 0.712431
vt 0.684133 0.815245
vt 0.785232 0.779456
vt 0.785232 0.864781
vt 0.101100 0.815245
vt 0.202199 0.739798
vt 0.583033 0.815245
vt 0.684133 0.739798
vt 0.845098 0.741644
vt 0.151172 0.953223
vt 0.093769 0.970218
vt 0.093769 0.864781
vt 0.000000 0.779456
vt 0.101100 0.739798
vt 0.964829 0.000000
vt 0.481934 0.779456
vt 0.450768 0.856814
vt 0.392616 0.767907
vt 0.904964 0.303299
vt 0.583033 0.739798
vt 0.151172 0.864781
vt 0.208575 0.881776
vt 0.151172 0.970218
vt 0.590917 0.708940
vt 0.684133 0.000000
vt 0.676249 0.708940
vt 0.108983 0.708940
vt 0.202199 0.000000
vt 0.194316 0.708940
vt 0.886853 0.712431
vt 0.867891 0.000000
vt 0.882170 0.000000
vt 0.377815 0.954842
vt 0.297099 0.933853
vt 0.377815 0.864781
vt 0.434096 0.952609
vt 0.377815 0.932206
vt 0.434096 0.864781
vt 0.208575 0.954842
vt 0.289290 0.933853
vt 0.293195 0.965783
vt 0.521544 0.924646
vt 0.490378 0.864781
vt 0.521544 0.864781
vt 0.490378 0.932206
vt 0.434096 0.952609
vt 0.434096 0.864781
vt 0.964829 0.303299
vt 0.904964 0.334465
vt 0.334465 0.856814
vt 0.093769 0.962205
vt -0.000000 1.000000
vt -0.000000 0.864781
vt 0.998733 0.899877
vt 0.904964 0.937671
vt 0.904964 0.802452
vt 0.874238 0.869107
vt 0.859981 0.869901
vt 0.859981 0.741644
vt 0.888495 0.869901
vt 0.874238 0.869107
vt 0.888495 0.741644
vt 0.904964 0.741644
vt 0.785232 0.741644
vt 0.845098 0.741644
vt 0.923651 0.334884
vt 0.928807 0.568431
vt 0.923651 0.568458
vt 0.928807 0.334857
vt 0.933764 0.568349
vt 0.933764 0.334775
vt 0.938333 0.568217
vt 0.938333 0.334643
vt 0.942338 0.568039
vt 0.822607 0.741644
vt 0.826612 0.974152
vt 0.822607 0.973743
vt 0.826612 0.742053
vt 0.831181 0.974456
vt 0.831181 0.742357
vt 0.836138 0.974643
vt 0.836138 0.742544
vt 0.841294 0.974706
vt 0.841294 0.742608
vt 0.846450 0.974643
vt 0.846450 0.742544
vt 0.851408 0.974456
vt 0.851408 0.742357
vt 0.855977 0.974152
vt 0.855977 0.742053
vt 0.859981 0.973743
vt 0.904964 0.568458
vt 0.908968 0.802210
vt 0.904964 0.802032
vt 0.908968 0.568636
vt 0.913537 0.802342
vt 0.913537 0.568769
vt 0.918495 0.802424
vt 0.918495 0.568850
vt 0.923651 0.802452
vt 0.923651 0.568878
vt 0.928807 0.802424
vt 0.928807 0.568850
vt 0.933764 0.802342
vt 0.933764 0.568769
vt 0.938333 0.802210
vt 0.938333 0.568636
vt 0.942338 0.802032
vt 0.789237 0.974152
vt 0.785232 0.973743
vt 0.789237 0.742053
vt 0.793806 0.974456
vt 0.793806 0.742357
vt 0.798764 0.974643
vt 0.798764 0.742544
vt 0.803920 0.974706
vt 0.803920 0.742608
vt 0.809075 0.974643
vt 0.809075 0.742544
vt 0.814033 0.974456
vt 0.814033 0.742357
vt 0.818602 0.974152
vt 0.818602 0.742053
vt 0.822607 0.973743
vt 0.908968 0.568217
vt 0.904964 0.568039
vt 0.908968 0.334643
vt 0.913538 0.568349
vt 0.913538 0.334775
vt 0.918495 0.568431
vt 0.918495 0.334857
vt 0.547844 0.891081
vt 0.522555 0.898753
vt 0.521544 0.893671
vt 0.521544 0.888491
vt 0.522555 0.883410
vt 0.524537 0.878623
vt 0.527415 0.874316
vt 0.531079 0.870652
vt 0.535386 0.867774
vt 0.540173 0.865791
vt 0.545254 0.864781
vt 0.550435 0.864781
vt 0.555516 0.865791
vt 0.560302 0.867774
vt 0.564610 0.870652
vt 0.568273 0.874316
vt 0.571151 0.878623
vt 0.573134 0.883410
vt 0.574145 0.888491
vt 0.574145 0.893671
vt 0.573134 0.898753
vt 0.571151 0.903539
vt 0.568273 0.907847
vt 0.564610 0.911510
vt 0.560302 0.914388
vt 0.555516 0.916371
vt 0.550435 0.917382
vt 0.545254 0.917382
vt 0.540173 0.916371
vt 0.535386 0.914388
vt 0.531079 0.911510
vt 0.527415 0.907847
vt 0.524537 0.903539
vt 0.600445 0.891081
vt 0.577138 0.903539
vt 0.575156 0.898753
vt 0.580016 0.907847
vt 0.583680 0.911510
vt 0.587987 0.914388
vt 0.592774 0.916371
vt 0.597855 0.917382
vt 0.603036 0.917382
vt 0.608117 0.916371
vt 0.612903 0.914388
vt 0.617211 0.911510
vt 0.620874 0.907847
vt 0.623752 0.903539
vt 0.625735 0.898753
vt 0.626746 0.893671
vt 0.626746 0.888491
vt 0.625735 0.883410
vt 0.623752 0.878623
vt 0.620874 0.874316
vt 0.617211 0.870652
vt 0.612903 0.867774
vt 0.608117 0.865791
vt 0.603036 0.864781
vt 0.597855 0.864781
vt 0.592774 0.865791
vt 0.587987 0.867774
vt 0.583680 0.870652
vt 0.580016 0.874315
vt 0.577138 0.878623
vt 0.575156 0.883410
vt 0.574145 0.888491
vt 0.574145 0.893671
vt 0.808026 0.000000
vt 0.000000 0.864781
vt 0.904964 0.000000
vt 0.481934 0.864781
vt 0.583033 0.000000
vt 0.101100 0.000000
vt 0.863209 0.712431
vt 0.293195 0.965783
vt 0.208575 0.864781
vt 0.490378 0.924646
vt 0.964829 0.334465
vt 0.942338 0.334465
vt 0.859981 0.741644
vt 0.942338 0.568458
vt 0.822607 0.741644
s 0
usemtl Material
f 3/1/1 14/2/1 13/3/1
f 49/4/2 2/5/2 4/6/2
f 49/4/3 4/6/3 3/7/3
f 49/4/4 1/8/4 2/5/4
f 49/4/5 3/7/5 1/8/5
f 45/9/6 15/10/6 46/11/6
f 2/12/7 11/13/7 9/14/7
f 4/15/8 7/16/8 3/1/8
f 1/17/9 6/18/9 2/12/9
f 11/19/10 21/19/10 22/19/10
f 6/20/11 8/21/11 11/22/11
f 4/15/12 11/23/12 8/24/12
f 2/5/13 10/25/13 4/6/13
f 14/26/14 26/27/14 28/28/14
f 3/7/15 12/29/15 1/8/15
f 1/17/16 14/26/16 5/30/16
f 7/31/17 5/32/17 14/33/17
f 6/19/10 44/19/10 42/19/10
f 46/34/18 16/35/18 47/36/18
f 48/37/19 17/38/19 45/39/19
f 48/40/20 16/41/20 18/42/20
f 8/19/10 43/19/10 44/19/10
f 5/19/10 42/19/10 19/19/10
f 5/19/10 43/19/10 19/19/10
f 22/43/21 24/44/21 25/45/21
f 9/19/10 22/19/10 20/19/10
f 10/19/10 20/19/10 21/19/10
f 24/46/22 23/47/22 25/48/22
f 22/49/23 23/50/23 20/51/23
f 20/52/24 24/53/24 21/54/24
f 26/55/25 27/56/25 28/57/25
f 13/58/26 26/59/26 12/29/26
f 14/2/27 27/60/27 13/3/27
f 29/19/10 39/19/10 38/19/10
f 29/19/10 40/19/10 38/19/10
f 32/19/10 39/19/10 41/19/10
f 31/19/10 41/19/10 40/19/10
f 34/61/28 33/62/28 37/63/28
f 35/64/29 36/65/29 37/66/29
f 36/67/30 34/68/30 37/69/30
f 33/70/31 35/71/31 37/72/31
f 35/19/10 38/19/10 40/19/10
f 34/19/10 38/19/10 39/19/10
f 36/19/10 40/19/10 41/19/10
f 34/19/10 41/19/10 39/19/10
f 6/19/32 48/40/32 8/73/32
f 8/24/33 45/39/33 7/16/33
f 5/30/34 47/36/34 6/18/34
f 7/74/35 46/11/35 5/75/35
f 85/76/36 53/77/36 52/78/36
f 84/79/37 54/80/37 53/77/37
f 86/81/38 55/82/38 54/80/38
f 87/83/39 56/84/39 55/82/39
f 88/85/40 57/86/40 56/87/40
f 89/88/41 58/89/41 57/86/41
f 90/90/42 59/91/42 58/89/42
f 91/92/43 60/93/43 59/91/43
f 92/94/44 61/95/44 60/93/44
f 93/96/45 62/97/45 61/95/45
f 94/98/46 63/99/46 62/97/46
f 95/100/47 64/101/47 63/99/47
f 96/102/48 65/103/48 64/104/48
f 97/105/49 66/106/49 65/103/49
f 98/107/50 67/108/50 66/106/50
f 99/109/51 68/110/51 67/108/51
f 100/111/52 69/112/52 68/110/52
f 101/113/53 70/114/53 69/112/53
f 102/115/54 71/116/54 70/114/54
f 103/117/55 72/118/55 71/116/55
f 104/74/56 73/119/56 72/120/56
f 105/121/57 74/122/57 73/119/57
f 106/123/58 75/124/58 74/122/58
f 107/125/59 76/126/59 75/124/59
f 108/127/60 77/128/60 76/126/60
f 109/129/61 78/130/61 77/128/61
f 110/131/62 79/132/62 78/130/62
f 111/133/63 80/134/63 79/132/63
f 112/59/64 81/135/64 80/136/64
f 113/137/65 82/138/65 81/135/65
f 114/139/66 83/140/66 82/138/66
f 115/141/67 52/78/67 83/140/67
f 50/142/68 52/143/68 53/144/68
f 50/142/68 53/144/68 54/145/68
f 50/142/68 54/145/68 55/146/68
f 50/142/68 55/146/68 56/147/68
f 50/142/68 56/147/68 57/148/68
f 50/142/68 57/148/68 58/149/68
f 50/142/68 58/149/68 59/150/68
f 50/142/68 59/150/68 60/151/68
f 50/142/68 60/151/68 61/152/68
f 50/142/68 61/152/68 62/153/68
f 50/142/68 62/153/68 63/154/68
f 50/142/68 63/154/68 64/155/68
f 50/142/68 64/155/68 65/156/68
f 50/142/68 65/156/68 66/157/68
f 50/142/68 66/157/68 67/158/68
f 50/142/68 67/158/68 68/159/68
f 50/142/68 68/159/68 69/160/68
f 50/142/68 69/160/68 70/161/68
f 50/142/68 70/161/68 71/162/68
f 50/142/68 71/162/68 72/163/68
f 50/142/68 72/163/68 73/164/68
f 50/142/68 73/164/68 74/165/68
f 50/142/68 74/165/68 75/166/68
f 50/142/68 75/166/68 76/167/68
f 50/142/68 76/167/68 77/168/68
f 50/142/68 77/168/68 78/169/68
f 50/142/68 78/169/68 79/170/68
f 50/142/68 79/170/68 80/171/68
f 50/142/68 80/171/68 81/172/68
f 50/142/68 81/172/68 82/173/68
f 50/142/68 82/173/68 83/174/68
f 50/142/68 83/174/68 52/143/68
f 51/175/10 84/176/10 85/177/10
f 51/175/10 86/178/10 84/176/10
f 51/175/10 87/179/10 86/178/10
f 51/175/10 88/180/10 87/179/10
f 51/175/10 89/181/10 88/180/10
f 51/175/10 90/182/10 89/181/10
f 51/175/10 91/183/10 90/182/10
f 51/175/10 92/184/10 91/183/10
f 51/175/10 93/185/10 92/184/10
f 51/175/10 94/186/10 93/185/10
f 51/175/10 95/187/10 94/186/10
f 51/175/10 96/188/10 95/187/10
f 51/175/10 97/189/10 96/188/10
f 51/175/10 98/190/10 97/189/10
f 51/175/10 99/191/10 98/190/10
f 51/175/10 100/192/10 99/191/10
f 51/175/10 101/193/10 100/192/10
f 51/175/10 102/194/10 101/193/10
f 51/175/10 103/195/10 102/194/10
f 51/175/10 104/196/10 103/195/10
f 51/175/10 105/197/10 104/196/10
f 51/175/10 106/198/10 105/197/10
f 51/175/10 107/199/10 106/198/10
f 51/175/10 108/200/10 107/199/10
f 51/175/10 109/201/10 108/200/10
f 51/175/10 110/202/10 109/201/10
f 51/175/10 111/203/10 110/202/10
f 51/175/10 112/204/10 111/203/10
f 51/175/10 113/205/10 112/204/10
f 51/175/10 114/206/10 113/205/10
f 51/175/10 115/207/10 114/206/10
f 51/175/10 85/177/10 115/207/10
f 3/1/69 7/16/69 14/2/69
f 45/9/6 17/208/6 15/10/6
f 2/12/70 6/18/70 11/13/70
f 4/15/8 8/24/8 7/16/8
f 1/17/9 5/30/9 6/18/9
f 11/19/10 10/19/10 21/19/10
f 4/15/71 10/209/71 11/23/71
f 2/5/13 9/210/13 10/25/13
f 14/26/72 12/211/72 26/27/72
f 3/7/15 13/58/15 12/29/15
f 1/17/73 12/211/73 14/26/73
f 6/19/10 8/19/10 44/19/10
f 46/34/18 15/212/18 16/35/18
f 48/37/19 18/213/19 17/38/19
f 48/40/20 47/214/20 16/41/20
f 8/19/10 7/19/10 43/19/10
f 5/19/10 6/19/10 42/19/10
f 5/19/10 7/19/10 43/19/10
f 22/43/74 21/215/74 24/44/74
f 9/19/10 11/19/10 22/19/10
f 10/19/10 9/19/10 20/19/10
f 22/49/75 25/216/75 23/50/75
f 20/52/24 23/217/24 24/53/24
f 13/58/26 27/218/26 26/59/26
f 14/2/76 28/28/76 27/60/76
f 29/19/10 30/19/10 39/19/10
f 29/19/10 31/19/10 40/19/10
f 32/19/10 30/19/10 39/19/10
f 31/19/10 32/19/10 41/19/10
f 35/19/10 33/19/10 38/19/10
f 34/19/10 33/19/10 38/19/10
f 36/19/10 35/19/10 40/19/10
f 34/19/10 36/19/10 41/19/10
f 6/19/32 47/214/32 48/40/32
f 8/24/33 48/37/33 45/39/33
f 5/30/34 46/34/34 47/36/34
f 7/74/35 45/9/35 46/11/35
f 85/76/36 84/79/36 53/77/36
f 84/79/37 86/81/37 54/80/37
f 86/81/38 87/83/38 55/82/38
f 87/83/39 88/219/39 56/84/39
f 88/85/40 89/88/40 57/86/40
f 89/88/41 90/90/41 58/89/41
f 90/90/42 91/92/42 59/91/42
f 91/92/43 92/94/43 60/93/43
f 92/94/44 93/96/44 61/95/44
f 93/96/45 94/98/45 62/97/45
f 94/98/46 95/100/46 63/99/46
f 95/100/47 96/220/47 64/101/47
f 96/102/48 97/105/48 65/103/48
f 97/105/49 98/107/49 66/106/49
f 98/107/50 99/109/50 67/108/50
f 99/109/51 100/111/51 68/110/51
f 100/111/52 101/113/52 69/112/52
f 101/113/53 102/115/53 70/114/53
f 102/115/54 103/117/54 71/116/54
f 103/117/55 104/221/55 72/118/55
f 104/74/56 105/121/56 73/119/56
f 105/121/57 106/123/57 74/122/57
f 106/123/58 107/125/58 75/124/58
f 107/125/59 108/127/59 76/126/59
f 108/127/60 109/129/60 77/128/60
f 109/129/61 110/131/61 78/130/61
f 110/131/62 111/133/62 79/132/62
f 111/133/63 112/222/63 80/134/63
f 112/59/64 113/137/64 81/135/64
f 113/137/65 114/139/65 82/138/65
f 114/139/66 115/141/66 83/140/66
f 115/141/67 85/76/67 52/78/67
