# Blender 4.0.2
# www.blender.org
mtllib Protagonista122.mtl
o Cube
v 0.299498 -0.494043 -0.770390
v 0.385386 -0.387459 -0.709045
v 0.228233 -0.460014 -0.729735
v 0.314122 -0.353431 -0.668391
v 0.280482 -0.427457 -0.859455
v 0.366371 -0.320874 -0.798111
v 0.209218 -0.393429 -0.818800
v 0.295107 -0.286846 -0.757456
v 0.483760 -0.324593 -0.589225
v 0.412496 -0.290565 -0.548570
v 0.427562 -0.235565 -0.665225
v 0.226093 -0.644342 -0.773258
v 0.154829 -0.610314 -0.732603
v 0.169895 -0.555314 -0.849258
v 0.067607 0.235896 -1.713952
v 0.153495 0.342479 -1.652607
v 0.050609 0.244013 -1.704255
v 0.136498 0.350596 -1.642910
v 0.280482 -0.427457 -0.859455
v 0.483760 -0.324593 -0.589225
v 0.412496 -0.290565 -0.548570
v 0.427562 -0.235565 -0.665225
v 0.508229 -0.284706 -0.579719
v 0.436965 -0.250678 -0.539064
v 0.500531 -0.131210 -0.624663
v 0.197608 -0.670168 -0.801573
v 0.126344 -0.636140 -0.760919
v 0.091105 -0.639283 -0.917087
v 0.067607 0.235896 -1.713952
v 0.153495 0.342479 -1.652607
v 0.050609 0.244013 -1.704255
v 0.136498 0.350596 -1.642910
v 0.067607 0.235896 -1.713952
v 0.153495 0.342479 -1.652607
v 0.050609 0.244013 -1.704255
v 0.136498 0.350596 -1.642910
v 0.070667 0.403146 -1.825434
v 0.067607 0.235896 -1.713952
v 0.153495 0.342479 -1.652607
v 0.050609 0.244013 -1.704255
v 0.136498 0.350596 -1.642910
v 0.366371 -0.320874 -0.798111
v 0.209218 -0.393429 -0.818800
v 0.295107 -0.286846 -0.757456
v 0.230266 -0.370168 -0.860082
v 0.258411 -0.383607 -0.876139
v 0.330905 -0.293647 -0.824361
v 0.302760 -0.280207 -0.808305
v 0.307348 -0.425622 -0.716868
v 0.365459 -0.628951 -0.444955
v 0.306962 -0.424115 -0.718946
v 0.343008 -0.656812 -0.460991
v 0.349577 -0.659208 -0.464184
v 0.356756 -0.660440 -0.466638
v 0.364269 -0.660463 -0.468259
v 0.371829 -0.659274 -0.468984
v 0.379143 -0.656920 -0.468786
v 0.385932 -0.653492 -0.467673
v 0.391934 -0.649120 -0.465686
v 0.396919 -0.643973 -0.462902
v 0.400694 -0.638249 -0.459429
v 0.403116 -0.632168 -0.455399
v 0.404090 -0.625963 -0.450969
v 0.403580 -0.619873 -0.446307
v 0.401605 -0.614131 -0.441593
v 0.398241 -0.608960 -0.437008
v 0.393617 -0.604556 -0.432729
v 0.387911 -0.601090 -0.428919
v 0.381342 -0.598695 -0.425726
v 0.374163 -0.597462 -0.423272
v 0.366649 -0.597440 -0.421651
v 0.359090 -0.598628 -0.420926
v 0.351775 -0.600982 -0.421124
v 0.344986 -0.604411 -0.422238
v 0.338984 -0.608783 -0.424224
v 0.334000 -0.613929 -0.427008
v 0.330224 -0.619653 -0.430481
v 0.327803 -0.625735 -0.434511
v 0.326828 -0.631940 -0.438942
v 0.327338 -0.638030 -0.443603
v 0.329313 -0.643771 -0.448317
v 0.332678 -0.648943 -0.452902
v 0.337302 -0.653346 -0.457181
v 0.291079 -0.454371 -0.738174
v 0.284510 -0.451976 -0.734981
v 0.298258 -0.455604 -0.740629
v 0.305772 -0.455626 -0.742250
v 0.313331 -0.454438 -0.742975
v 0.320646 -0.452084 -0.742777
v 0.327435 -0.448655 -0.741663
v 0.333436 -0.444283 -0.739676
v 0.338421 -0.439137 -0.736893
v 0.342197 -0.433413 -0.733419
v 0.344618 -0.427331 -0.729390
v 0.345593 -0.421126 -0.724959
v 0.345082 -0.415036 -0.720297
v 0.343107 -0.409295 -0.715583
v 0.339743 -0.404123 -0.710999
v 0.335119 -0.399720 -0.706719
v 0.329413 -0.396254 -0.702910
v 0.322844 -0.393858 -0.699717
v 0.315665 -0.392626 -0.697263
v 0.308151 -0.392604 -0.695642
v 0.300592 -0.393792 -0.694916
v 0.293277 -0.396146 -0.695114
v 0.286489 -0.399575 -0.696228
v 0.280487 -0.403946 -0.698215
v 0.275502 -0.409093 -0.700998
v 0.271726 -0.414817 -0.704472
v 0.269305 -0.420898 -0.708501
v 0.268330 -0.427103 -0.712932
v 0.268841 -0.433194 -0.717594
v 0.270816 -0.438935 -0.722308
v 0.274180 -0.444107 -0.726892
v 0.278804 -0.448510 -0.731172
vn -0.8956 0.4357 0.0898
vn 0.1928 -0.5594 0.8061
vn 0.1106 -0.5612 0.8203
vn 0.2257 -0.6162 0.7546
vn 0.1440 -0.6199 0.7713
vn -0.5707 -0.7170 -0.4002
vn 0.7819 -0.0376 -0.6222
vn -0.8023 0.3831 0.4577
vn 0.8023 -0.3831 -0.4577
vn -0.1686 0.5902 -0.7895
vn 0.0726 0.8238 -0.5623
vn -0.6068 0.5691 0.5550
vn -0.1024 -0.8438 0.5268
vn 0.7151 -0.1138 -0.6897
vn 0.4047 -0.2146 0.8889
vn 0.6068 -0.5691 -0.5550
vn -0.3820 0.2597 -0.8869
vn 0.8012 -0.3792 -0.4629
vn -0.8034 0.3870 0.4525
vn 0.5744 0.7040 0.4177
vn -0.8354 0.5350 0.1263
vn 0.5686 0.2573 0.7813
vn 0.6433 -0.2199 -0.7333
vn 0.3061 -0.3943 0.8665
vn -0.3795 -0.9193 0.1041
vn 0.0204 -0.7488 0.6625
vn -0.7582 0.6221 0.1954
vn 0.7915 -0.3490 -0.5018
vn -0.8106 0.4160 0.4121
vn 0.4682 0.8796 0.0844
vn -0.5941 -0.4386 -0.6743
vn 0.5079 0.8411 0.1862
vn -0.7690 0.6384 -0.0324
vn 0.5897 -0.0104 -0.8075
vn -0.5968 -0.5297 -0.6027
vn -0.4912 -0.7447 -0.4519
vn -0.3150 -0.7912 -0.5242
vn -0.1268 -0.8072 -0.5764
vn 0.0664 -0.7923 -0.6065
vn 0.2570 -0.7469 -0.6133
vn 0.4377 -0.6728 -0.5964
vn 0.6016 -0.5729 -0.5567
vn 0.7423 -0.4509 -0.4956
vn 0.8546 -0.3116 -0.4154
vn 0.9340 -0.1603 -0.3193
vn 0.9775 -0.0029 -0.2109
vn 0.9835 0.1546 -0.0944
vn 0.9516 0.3062 0.0258
vn 0.8832 0.4461 0.1449
vn 0.7808 0.5687 0.2585
vn 0.6485 0.6696 0.3621
vn 0.4912 0.7447 0.4519
vn 0.3150 0.7912 0.5242
vn 0.1268 0.8072 0.5764
vn -0.0664 0.7923 0.6065
vn -0.2570 0.7469 0.6133
vn -0.4377 0.6728 0.5964
vn -0.6016 0.5729 0.5567
vn -0.7423 0.4509 0.4956
vn -0.8546 0.3116 0.4154
vn -0.9340 0.1603 0.3193
vn -0.9775 0.0029 0.2109
vn -0.9835 -0.1546 0.0944
vn -0.9516 -0.3062 -0.0258
vn -0.8832 -0.4461 -0.1449
vn -0.7808 -0.5687 -0.2585
vn -0.6485 -0.6696 -0.3621
vn 0.1685 -0.5902 0.7895
vn 0.1686 -0.5902 0.7895
vn -0.9319 0.1656 0.3228
vn 0.9319 -0.1656 -0.3228
vn -0.7049 0.6724 0.2260
vn 0.7439 -0.0952 -0.6615
vn 0.5912 -0.2743 -0.7585
vn -0.8587 0.4973 0.1236
vn 0.6618 -0.1799 -0.7278
vn -0.7821 0.6011 0.1644
vt 0.202199 0.815245
vt 0.303299 0.779456
vt 0.303299 0.864781
vt 0.934897 0.151649
vt 0.904964 0.101100
vt 0.964829 0.101100
vt 0.964829 0.202199
vt 0.904964 0.202199
vt 0.803344 0.712431
vt 0.822305 0.000000
vt 0.826987 0.712431
vt 0.684133 0.815245
vt 0.785232 0.779456
vt 0.785232 0.864781
vt 0.101100 0.815245
vt 0.202199 0.739798
vt 0.583033 0.815245
vt 0.684133 0.739798
vt 0.845098 0.741644
vt 0.151172 0.953223
vt 0.093769 0.970218
vt 0.093769 0.864781
vt 0.000000 0.779456
vt 0.101100 0.739798
vt 0.964829 0.000000
vt 0.481934 0.779456
vt 0.450768 0.856814
vt 0.392616 0.767907
vt 0.904964 0.303299
vt 0.583033 0.739798
vt 0.151172 0.864781
vt 0.208575 0.881776
vt 0.151172 0.970218
vt 0.590917 0.708940
vt 0.684133 0.000000
vt 0.676249 0.708940
vt 0.108983 0.708940
vt 0.202199 0.000000
vt 0.194316 0.708940
vt 0.886853 0.712431
vt 0.867891 0.000000
vt 0.882170 0.000000
vt 0.377815 0.954842
vt 0.297099 0.933853
vt 0.377815 0.864781
vt 0.434096 0.952609
vt 0.377815 0.932206
vt 0.434096 0.864781
vt 0.208575 0.954842
vt 0.289290 0.933853
vt 0.293195 0.965783
vt 0.521544 0.924646
vt 0.490378 0.864781
vt 0.521544 0.864781
vt 0.490378 0.932206
vt 0.434096 0.952609
vt 0.434096 0.864781
vt 0.964829 0.303299
vt 0.904964 0.334465
vt 0.334465 0.856814
vt 0.093769 0.962205
vt -0.000000 1.000000
vt -0.000000 0.864781
vt 0.998733 0.899877
vt 0.904964 0.937671
vt 0.904964 0.802452
vt 0.874238 0.869107
vt 0.859981 0.869901
vt 0.859981 0.741644
vt 0.888495 0.869901
vt 0.874238 0.869107
vt 0.888495 0.741644
vt 0.904964 0.741644
vt 0.785232 0.741644
vt 0.845098 0.741644
vt 0.923651 0.334884
vt 0.928807 0.568431
vt 0.923651 0.568458
vt 0.928807 0.334857
vt 0.933764 0.568349
vt 0.933764 0.334775
vt 0.938333 0.568217
vt 0.938333 0.334643
vt 0.942338 0.568039
vt 0.822607 0.741644
vt 0.826612 0.974152
vt 0.822607 0.973743
vt 0.826612 0.742053
vt 0.831181 0.974456
vt 0.831181 0.742357
vt 0.836138 0.974643
vt 0.836138 0.742544
vt 0.841294 0.974706
vt 0.841294 0.742608
vt 0.846450 0.974643
vt 0.846450 0.742544
vt 0.851408 0.974456
vt 0.851408 0.742357
vt 0.855977 0.974152
vt 0.855977 0.742053
vt 0.859981 0.973743
vt 0.904964 0.568458
vt 0.908968 0.802210
vt 0.904964 0.802032
vt 0.908968 0.568636
vt 0.913537 0.802342
vt 0.913537 0.568769
vt 0.918495 0.802424
vt 0.918495 0.568850
vt 0.923651 0.802452
vt 0.923651 0.568878
vt 0.928807 0.802424
vt 0.928807 0.568850
vt 0.933764 0.802342
vt 0.933764 0.568769
vt 0.938333 0.802210
vt 0.938333 0.568636
vt 0.942338 0.802032
vt 0.789237 0.974152
vt 0.785232 0.973743
vt 0.789237 0.742053
vt 0.793806 0.974456
vt 0.793806 0.742357
vt 0.798764 0.974643
vt 0.798764 0.742544
vt 0.803920 0.974706
vt 0.803920 0.742608
vt 0.809075 0.974643
vt 0.809075 0.742544
vt 0.814033 0.974456
vt 0.814033 0.742357
vt 0.818602 0.974152
vt 0.818602 0.742053
vt 0.822607 0.973743
vt 0.908968 0.568217
vt 0.904964 0.568039
vt 0.908968 0.334643
vt 0.913538 0.568349
vt 0.913538 0.334775
vt 0.918495 0.568431
vt 0.918495 0.334857
vt 0.547844 0.891081
vt 0.522555 0.898753
vt 0.521544 0.893671
vt 0.521544 0.888491
vt 0.522555 0.883410
vt 0.524537 0.878623
vt 0.527415 0.874316
vt 0.531079 0.870652
vt 0.535386 0.867774
vt 0.540173 0.865791
vt 0.545254 0.864781
vt 0.550435 0.864781
vt 0.555516 0.865791
vt 0.560302 0.867774
vt 0.564610 0.870652
vt 0.568273 0.874316
vt 0.571151 0.878623
vt 0.573134 0.883410
vt 0.574145 0.888491
vt 0.574145 0.893671
vt 0.573134 0.898753
vt 0.571151 0.903539
vt 0.568273 0.907847
vt 0.564610 0.911510
vt 0.560302 0.914388
vt 0.555516 0.916371
vt 0.550435 0.917382
vt 0.545254 0.917382
vt 0.540173 0.916371
vt 0.535386 0.914388
vt 0.531079 0.911510
vt 0.527415 0.907847
vt 0.524537 0.903539
vt 0.600445 0.891081
vt 0.577138 0.903539
vt 0.575156 0.898753
vt 0.580016 0.907847
vt 0.583680 0.911510
vt 0.587987 0.914388
vt 0.592774 0.916371
vt 0.597855 0.917382
vt 0.603036 0.917382
vt 0.608117 0.916371
vt 0.612903 0.914388
vt 0.617211 0.911510
vt 0.620874 0.907847
vt 0.623752 0.903539
vt 0.625735 0.898753
vt 0.626746 0.893671
vt 0.626746 0.888491
vt 0.625735 0.883410
vt 0.623752 0.878623
vt 0.620874 0.874316
vt 0.617211 0.870652
vt 0.612903 0.867774
vt 0.608117 0.865791
vt 0.603036 0.864781
vt 0.597855 0.864781
vt 0.592774 0.865791
vt 0.587987 0.867774
vt 0.583680 0.870652
vt 0.580016 0.874315
vt 0.577138 0.878623
vt 0.575156 0.883410
vt 0.574145 0.888491
vt 0.574145 0.893671
vt 0.808026 0.000000
vt 0.000000 0.864781
vt 0.904964 0.000000
vt 0.481934 0.864781
vt 0.583033 0.000000
vt 0.101100 0.000000
vt 0.863209 0.712431
vt 0.293195 0.965783
vt 0.208575 0.864781
vt 0.490378 0.924646
vt 0.964829 0.334465
vt 0.942338 0.334465
vt 0.859981 0.741644
vt 0.942338 0.568458
vt 0.822607 0.741644
s 0
usemtl Material
f 3/1/1 14/2/1 13/3/1
f 49/4/2 2/5/2 4/6/2
f 49/4/3 4/6/3 3/7/3
f 49/4/4 1/8/4 2/5/4
f 49/4/5 3/7/5 1/8/5
f 45/9/6 15/10/6 46/11/6
f 2/12/7 11/13/7 9/14/7
f 4/15/8 7/16/8 3/1/8
f 1/17/9 6/18/9 2/12/9
f 11/19/10 21/19/10 22/19/10
f 6/20/11 8/21/11 11/22/11
f 4/15/12 11/23/12 8/24/12
f 2/5/13 10/25/13 4/6/13
f 14/26/14 26/27/14 28/28/14
f 3/7/15 12/29/15 1/8/15
f 1/17/16 14/26/16 5/30/16
f 7/31/17 5/32/17 14/33/17
f 6/19/10 44/19/10 42/19/10
f 46/34/18 16/35/18 47/36/18
f 48/37/19 17/38/19 45/39/19
f 48/40/20 16/41/20 18/42/20
f 8/19/10 43/19/10 44/19/10
f 5/19/10 42/19/10 19/19/10
f 5/19/10 43/19/10 19/19/10
f 22/43/21 24/44/21 25/45/21
f 9/19/10 22/19/10 20/19/10
f 10/19/10 20/19/10 21/19/10
f 24/46/22 23/47/22 25/48/22
f 22/49/23 23/50/23 20/51/23
f 20/52/24 24/53/24 21/54/24
f 26/55/25 27/56/25 28/57/25
f 13/58/26 26/59/26 12/29/26
f 14/2/27 27/60/27 13/3/27
f 29/19/10 39/19/10 38/19/10
f 29/19/10 40/19/10 38/19/10
f 32/19/10 39/19/10 41/19/10
f 31/19/10 41/19/10 40/19/10
f 34/61/28 33/62/28 37/63/28
f 35/64/29 36/65/29 37/66/29
f 36/67/30 34/68/30 37/69/30
f 33/70/31 35/71/31 37/72/31
f 35/19/10 38/19/10 40/19/10
f 34/19/10 38/19/10 39/19/10
f 36/19/10 40/19/10 41/19/10
f 34/19/10 41/19/10 39/19/10
f 6/19/32 48/40/32 8/73/32
f 8/24/33 45/39/33 7/16/33
f 5/30/34 47/36/34 6/18/34
f 7/74/35 46/11/35 5/75/35
f 85/76/36 53/77/36 52/78/36
f 84/79/37 54/80/37 53/77/37
f 86/81/38 55/82/38 54/80/38
f 87/83/39 56/84/39 55/82/39
f 88/85/40 57/86/40 56/87/40
f 89/88/41 58/89/41 57/86/41
f 90/90/42 59/91/42 58/89/42
f 91/92/43 60/93/43 59/91/43
f 92/94/44 61/95/44 60/93/44
f 93/96/45 62/97/45 61/95/45
f 94/98/46 63/99/46 62/97/46
f 95/100/47 64/101/47 63/99/47
f 96/102/48 65/103/48 64/104/48
f 97/105/49 66/106/49 65/103/49
f 98/107/50 67/108/50 66/106/50
f 99/109/51 68/110/51 67/108/51
f 100/111/52 69/112/52 68/110/52
f 101/113/53 70/114/53 69/112/53
f 102/115/54 71/116/54 70/114/54
f 103/117/55 72/118/55 71/116/55
f 104/74/56 73/119/56 72/120/56
f 105/121/57 74/122/57 73/119/57
f 106/123/58 75/124/58 74/122/58
f 107/125/59 76/126/59 75/124/59
f 108/127/60 77/128/60 76/126/60
f 109/129/61 78/130/61 77/128/61
f 110/131/62 79/132/62 78/130/62
f 111/133/63 80/134/63 79/132/63
f 112/59/64 81/135/64 80/136/64
f 113/137/65 82/138/65 81/135/65
f 114/139/66 83/140/66 82/138/66
f 115/141/67 52/78/67 83/140/67
f 50/142/68 52/143/68 53/144/68
f 50/142/69 53/144/69 54/145/69
f 50/142/69 54/145/69 55/146/69
f 50/142/69 55/146/69 56/147/69
f 50/142/69 56/147/69 57/148/69
f 50/142/69 57/148/69 58/149/69
f 50/142/69 58/149/69 59/150/69
f 50/142/69 59/150/69 60/151/69
f 50/142/69 60/151/69 61/152/69
f 50/142/69 61/152/69 62/153/69
f 50/142/69 62/153/69 63/154/69
f 50/142/69 63/154/69 64/155/69
f 50/142/69 64/155/69 65/156/69
f 50/142/69 65/156/69 66/157/69
f 50/142/69 66/157/69 67/158/69
f 50/142/69 67/158/69 68/159/69
f 50/142/69 68/159/69 69/160/69
f 50/142/69 69/160/69 70/161/69
f 50/142/69 70/161/69 71/162/69
f 50/142/69 71/162/69 72/163/69
f 50/142/69 72/163/69 73/164/69
f 50/142/69 73/164/69 74/165/69
f 50/142/69 74/165/69 75/166/69
f 50/142/69 75/166/69 76/167/69
f 50/142/69 76/167/69 77/168/69
f 50/142/69 77/168/69 78/169/69
f 50/142/68 78/169/68 79/170/68
f 50/142/69 79/170/69 80/171/69
f 50/142/69 80/171/69 81/172/69
f 50/142/69 81/172/69 82/173/69
f 50/142/68 82/173/68 83/174/68
f 50/142/69 83/174/69 52/143/69
f 51/175/10 84/176/10 85/177/10
f 51/175/10 86/178/10 84/176/10
f 51/175/10 87/179/10 86/178/10
f 51/175/10 88/180/10 87/179/10
f 51/175/10 89/181/10 88/180/10
f 51/175/10 90/182/10 89/181/10
f 51/175/10 91/183/10 90/182/10
f 51/175/10 92/184/10 91/183/10
f 51/175/10 93/185/10 92/184/10
f 51/175/10 94/186/10 93/185/10
f 51/175/10 95/187/10 94/186/10
f 51/175/10 96/188/10 95/187/10
f 51/175/10 97/189/10 96/188/10
f 51/175/10 98/190/10 97/189/10
f 51/175/10 99/191/10 98/190/10
f 51/175/10 100/192/10 99/191/10
f 51/175/10 101/193/10 100/192/10
f 51/175/10 102/194/10 101/193/10
f 51/175/10 103/195/10 102/194/10
f 51/175/10 104/196/10 103/195/10
f 51/175/10 105/197/10 104/196/10
f 51/175/10 106/198/10 105/197/10
f 51/175/10 107/199/10 106/198/10
f 51/175/10 108/200/10 107/199/10
f 51/175/10 109/201/10 108/200/10
f 51/175/10 110/202/10 109/201/10
f 51/175/10 111/203/10 110/202/10
f 51/175/10 112/204/10 111/203/10
f 51/175/10 113/205/10 112/204/10
f 51/175/10 114/206/10 113/205/10
f 51/175/10 115/207/10 114/206/10
f 51/175/10 85/177/10 115/207/10
f 3/1/70 7/16/70 14/2/70
f 45/9/6 17/208/6 15/10/6
f 2/12/71 6/18/71 11/13/71
f 4/15/8 8/24/8 7/16/8
f 1/17/9 5/30/9 6/18/9
f 11/19/10 10/19/10 21/19/10
f 4/15/72 10/209/72 11/23/72
f 2/5/13 9/210/13 10/25/13
f 14/26/73 12/211/73 26/27/73
f 3/7/15 13/58/15 12/29/15
f 1/17/74 12/211/74 14/26/74
f 6/19/10 8/19/10 44/19/10
f 46/34/18 15/212/18 16/35/18
f 48/37/19 18/213/19 17/38/19
f 48/40/20 47/214/20 16/41/20
f 8/19/10 7/19/10 43/19/10
f 5/19/10 6/19/10 42/19/10
f 5/19/10 7/19/10 43/19/10
f 22/43/75 21/215/75 24/44/75
f 9/19/10 11/19/10 22/19/10
f 10/19/10 9/19/10 20/19/10
f 22/49/76 25/216/76 23/50/76
f 20/52/24 23/217/24 24/53/24
f 13/58/26 27/218/26 26/59/26
f 14/2/77 28/28/77 27/60/77
f 29/19/10 30/19/10 39/19/10
f 29/19/10 31/19/10 40/19/10
f 32/19/10 30/19/10 39/19/10
f 31/19/10 32/19/10 41/19/10
f 35/19/10 33/19/10 38/19/10
f 34/19/10 33/19/10 38/19/10
f 36/19/10 35/19/10 40/19/10
f 34/19/10 36/19/10 41/19/10
f 6/19/32 47/214/32 48/40/32
f 8/24/33 48/37/33 45/39/33
f 5/30/34 46/34/34 47/36/34
f 7/74/35 45/9/35 46/11/35
f 85/76/36 84/79/36 53/77/36
f 84/79/37 86/81/37 54/80/37
f 86/81/38 87/83/38 55/82/38
f 87/83/39 88/219/39 56/84/39
f 88/85/40 89/88/40 57/86/40
f 89/88/41 90/90/41 58/89/41
f 90/90/42 91/92/42 59/91/42
f 91/92/43 92/94/43 60/93/43
f 92/94/44 93/96/44 61/95/44
f 93/96/45 94/98/45 62/97/45
f 94/98/46 95/100/46 63/99/46
f 95/100/47 96/220/47 64/101/47
f 96/102/48 97/105/48 65/103/48
f 97/105/49 98/107/49 66/106/49
f 98/107/50 99/109/50 67/108/50
f 99/109/51 100/111/51 68/110/51
f 100/111/52 101/113/52 69/112/52
f 101/113/53 102/115/53 70/114/53
f 102/115/54 103/117/54 71/116/54
f 103/117/55 104/221/55 72/118/55
f 104/74/56 105/121/56 73/119/56
f 105/121/57 106/123/57 74/122/57
f 106/123/58 107/125/58 75/124/58
f 107/125/59 108/127/59 76/126/59
f 108/127/60 109/129/60 77/128/60
f 109/129/61 110/131/61 78/130/61
f 110/131/62 111/133/62 79/132/62
f 111/133/63 112/222/63 80/134/63
f 112/59/64 113/137/64 81/135/64
f 113/137/65 114/139/65 82/138/65
f 114/139/66 115/141/66 83/140/66
f 115/141/67 85/76/67 52/78/67
