# Blender 4.0.2
# www.blender.org
mtllib Protagonista18.mtl
o Cube
v 0.415464 -0.378032 -0.995462
v 0.441130 -0.392739 -0.848408
v 0.333564 -0.348308 -0.978196
v 0.359230 -0.363015 -0.831141
v 0.454627 -0.272296 -0.991723
v 0.480293 -0.287003 -0.844669
v 0.372727 -0.242572 -0.974456
v 0.398393 -0.257279 -0.827402
v 0.441083 -0.476867 -0.703809
v 0.359182 -0.447143 -0.686542
v 0.442489 -0.347648 -0.691131
v 0.364086 -0.432746 -1.144972
v 0.282186 -0.403022 -1.127705
v 0.365492 -0.303527 -1.132294
v 0.805984 0.771835 -0.948623
v 0.831649 0.757128 -0.801569
v 0.786449 0.778925 -0.944505
v 0.812115 0.764218 -0.797450
v 0.454627 -0.272296 -0.991723
v 0.441083 -0.476867 -0.703809
v 0.359182 -0.447143 -0.686542
v 0.442489 -0.347648 -0.691131
v 0.453130 -0.470235 -0.658081
v 0.371230 -0.440511 -0.640815
v 0.471158 -0.344455 -0.560642
v 0.360310 -0.417048 -1.189909
v 0.278409 -0.387324 -1.172643
v 0.348813 -0.274349 -1.261638
v 0.805984 0.771835 -0.948623
v 0.831649 0.757128 -0.801569
v 0.786449 0.778925 -0.944505
v 0.812115 0.764218 -0.797450
v 0.805984 0.771835 -0.948623
v 0.831649 0.757128 -0.801569
v 0.786449 0.778925 -0.944505
v 0.812115 0.764218 -0.797450
v 0.873688 0.942544 -0.866865
v 0.805984 0.771835 -0.948623
v 0.831649 0.757128 -0.801569
v 0.786449 0.778925 -0.944505
v 0.812115 0.764218 -0.797450
v 0.480293 -0.287003 -0.844669
v 0.372727 -0.242572 -0.974456
v 0.398393 -0.257279 -0.827402
v 0.414353 -0.212624 -0.966795
v 0.446699 -0.224364 -0.973614
v 0.468362 -0.236777 -0.849494
v 0.436016 -0.225038 -0.842675
v 0.386238 -0.373517 -0.913408
v 0.266720 -0.696381 -0.924837
v 0.387197 -0.371106 -0.913334
v 0.260011 -0.692537 -0.963278
v 0.267193 -0.695171 -0.964026
v 0.274357 -0.697851 -0.963269
v 0.281228 -0.700475 -0.961034
v 0.287541 -0.702941 -0.957409
v 0.293054 -0.705156 -0.952531
v 0.297555 -0.707033 -0.946590
v 0.300871 -0.708501 -0.939813
v 0.302875 -0.709503 -0.932460
v 0.303489 -0.710001 -0.924814
v 0.302690 -0.709975 -0.917169
v 0.300509 -0.709427 -0.909819
v 0.297029 -0.708378 -0.903046
v 0.292385 -0.706868 -0.897110
v 0.286754 -0.704954 -0.892240
v 0.280353 -0.702712 -0.888623
v 0.273429 -0.700226 -0.886397
v 0.266246 -0.697592 -0.885648
v 0.259082 -0.694911 -0.886406
v 0.252211 -0.692288 -0.888640
v 0.245898 -0.689821 -0.892266
v 0.240385 -0.687607 -0.897143
v 0.235884 -0.685730 -0.903085
v 0.232568 -0.684262 -0.909862
v 0.230565 -0.683259 -0.917215
v 0.229951 -0.682762 -0.924861
v 0.230749 -0.682787 -0.932506
v 0.232931 -0.683335 -0.939856
v 0.236410 -0.684384 -0.946629
v 0.241055 -0.685895 -0.952565
v 0.246685 -0.687808 -0.957435
v 0.253086 -0.690051 -0.961052
v 0.387670 -0.369896 -0.952523
v 0.380488 -0.367262 -0.951774
v 0.394834 -0.372576 -0.951765
v 0.401705 -0.375200 -0.949531
v 0.408018 -0.377666 -0.945905
v 0.413531 -0.379881 -0.941028
v 0.418032 -0.381758 -0.935087
v 0.421348 -0.383226 -0.928309
v 0.423352 -0.384228 -0.920956
v 0.423966 -0.384726 -0.913310
v 0.423167 -0.384700 -0.905666
v 0.420986 -0.384153 -0.898315
v 0.417506 -0.383103 -0.891542
v 0.412862 -0.381593 -0.885607
v 0.407231 -0.379680 -0.880737
v 0.400830 -0.377437 -0.877119
v 0.393906 -0.374951 -0.874893
v 0.386723 -0.372317 -0.874145
v 0.379559 -0.369637 -0.874903
v 0.372689 -0.367013 -0.877137
v 0.366375 -0.364546 -0.880763
v 0.360862 -0.362332 -0.885640
v 0.356361 -0.360455 -0.891581
v 0.353045 -0.358987 -0.898359
v 0.351042 -0.357985 -0.905711
v 0.350428 -0.357487 -0.913357
v 0.351227 -0.357512 -0.921002
v 0.353408 -0.358060 -0.928352
v 0.356887 -0.359110 -0.935125
v 0.361532 -0.360620 -0.941061
v 0.367163 -0.362533 -0.945931
v 0.373563 -0.364776 -0.949549
vn -0.7658 0.6425 0.0280
vn -0.3395 -0.9406 0.0086
vn -0.4124 -0.9108 -0.0191
vn -0.2801 -0.9588 -0.0470
vn -0.3541 -0.9322 -0.0748
vn -0.1749 0.0877 -0.9807
vn 0.9999 -0.0103 -0.0057
vn -0.9221 0.3346 0.1944
vn 0.9221 -0.3346 -0.1944
vn 0.3471 0.9372 0.0331
vn 0.3865 0.8213 0.4196
vn -0.8356 0.2930 0.4647
vn -0.3870 -0.7969 -0.4638
vn 0.9921 0.0176 -0.1240
vn -0.2355 -0.8838 0.4043
vn 0.8356 -0.2930 -0.4647
vn 0.2507 0.8991 -0.3587
vn 0.9243 -0.3285 -0.1942
vn -0.9198 0.3408 0.1946
vn 0.1673 -0.1084 0.9799
vn -0.7444 0.6512 0.1476
vn -0.0530 -0.6068 0.7931
vn 0.9664 0.0147 -0.2567
vn -0.2935 -0.9321 0.2125
vn -0.3363 -0.4444 -0.8303
vn -0.3788 -0.8831 -0.2767
vn -0.7298 0.6240 0.2793
vn 0.9403 -0.2809 -0.1922
vn -0.9009 0.3873 0.1960
vn 0.2884 0.2592 0.9218
vn -0.0290 0.4411 -0.8970
vn 0.2566 0.1527 0.9544
vn -0.5961 0.7820 0.1822
vn 0.9654 0.2152 -0.1470
vn -0.0735 0.3418 -0.9369
vn -0.0799 0.0648 -0.9947
vn 0.1039 -0.0033 -0.9946
vn 0.2838 -0.0713 -0.9562
vn 0.4527 -0.1365 -0.8812
vn 0.6042 -0.1965 -0.7722
vn 0.7325 -0.2489 -0.6336
vn 0.8327 -0.2918 -0.4706
vn 0.9009 -0.3234 -0.2896
vn 0.9344 -0.3426 -0.0974
vn 0.9320 -0.3487 0.0986
vn 0.8939 -0.3414 0.2907
vn 0.8213 -0.3209 0.4717
vn 0.7172 -0.2881 0.6345
vn 0.5856 -0.2442 0.7730
vn 0.4314 -0.1910 0.8817
vn 0.2607 -0.1304 0.9566
vn 0.0799 -0.0648 0.9947
vn -0.1039 0.0033 0.9946
vn -0.2838 0.0713 0.9562
vn -0.4527 0.1365 0.8812
vn -0.6042 0.1965 0.7722
vn -0.7325 0.2489 0.6336
vn -0.8327 0.2918 0.4706
vn -0.9009 0.3234 0.2896
vn -0.9344 0.3426 0.0974
vn -0.9320 0.3487 -0.0986
vn -0.8939 0.3414 -0.2907
vn -0.8213 0.3209 -0.4717
vn -0.7172 0.2881 -0.6345
vn -0.5856 0.2442 -0.7730
vn -0.4314 0.1910 -0.8817
vn -0.2607 0.1304 -0.9566
vn -0.3471 -0.9372 -0.0331
vn -0.9327 0.3487 -0.0919
vn 0.9327 -0.3487 0.0919
vn -0.7088 0.6098 0.3546
vn 0.9964 -0.0025 -0.0846
vn 0.9429 0.0223 -0.3322
vn -0.7599 0.6412 0.1072
vn 0.9762 0.0267 -0.2151
vn -0.7285 0.6421 0.2388
vt 0.202199 0.815245
vt 0.303299 0.779456
vt 0.303299 0.864781
vt 0.934897 0.151649
vt 0.904964 0.101100
vt 0.964829 0.101100
vt 0.964829 0.202199
vt 0.904964 0.202199
vt 0.803344 0.712431
vt 0.822305 0.000000
vt 0.826987 0.712431
vt 0.684133 0.815245
vt 0.785232 0.779456
vt 0.785232 0.864781
vt 0.101100 0.815245
vt 0.202199 0.739798
vt 0.583033 0.815245
vt 0.684133 0.739798
vt 0.845098 0.741644
vt 0.151172 0.953223
vt 0.093769 0.970218
vt 0.093769 0.864781
vt 0.000000 0.779456
vt 0.101100 0.739798
vt 0.964829 0.000000
vt 0.481934 0.779456
vt 0.450768 0.856814
vt 0.392616 0.767907
vt 0.904964 0.303299
vt 0.583033 0.739798
vt 0.151172 0.864781
vt 0.208575 0.881776
vt 0.151172 0.970218
vt 0.590917 0.708940
vt 0.684133 0.000000
vt 0.676249 0.708940
vt 0.108983 0.708940
vt 0.202199 0.000000
vt 0.194316 0.708940
vt 0.886853 0.712431
vt 0.867891 0.000000
vt 0.882170 0.000000
vt 0.377815 0.954842
vt 0.297099 0.933853
vt 0.377815 0.864781
vt 0.434096 0.952609
vt 0.377815 0.932206
vt 0.434096 0.864781
vt 0.208575 0.954842
vt 0.289290 0.933853
vt 0.293195 0.965783
vt 0.521544 0.924646
vt 0.490378 0.864781
vt 0.521544 0.864781
vt 0.490378 0.932206
vt 0.434096 0.952609
vt 0.434096 0.864781
vt 0.964829 0.303299
vt 0.904964 0.334465
vt 0.334465 0.856814
vt 0.093769 0.962205
vt -0.000000 1.000000
vt -0.000000 0.864781
vt 0.998733 0.899877
vt 0.904964 0.937671
vt 0.904964 0.802452
vt 0.874238 0.869107
vt 0.859981 0.869901
vt 0.859981 0.741644
vt 0.888495 0.869901
vt 0.874238 0.869107
vt 0.888495 0.741644
vt 0.904964 0.741644
vt 0.785232 0.741644
vt 0.845098 0.741644
vt 0.923651 0.334884
vt 0.928807 0.568431
vt 0.923651 0.568458
vt 0.928807 0.334857
vt 0.933764 0.568349
vt 0.933764 0.334775
vt 0.938333 0.568217
vt 0.938333 0.334643
vt 0.942338 0.568039
vt 0.822607 0.741644
vt 0.826612 0.974152
vt 0.822607 0.973743
vt 0.826612 0.742053
vt 0.831181 0.974456
vt 0.831181 0.742357
vt 0.836138 0.974643
vt 0.836138 0.742544
vt 0.841294 0.974706
vt 0.841294 0.742608
vt 0.846450 0.974643
vt 0.846450 0.742544
vt 0.851408 0.974456
vt 0.851408 0.742357
vt 0.855977 0.974152
vt 0.855977 0.742053
vt 0.859981 0.973743
vt 0.904964 0.568458
vt 0.908968 0.802210
vt 0.904964 0.802032
vt 0.908968 0.568636
vt 0.913537 0.802342
vt 0.913537 0.568769
vt 0.918495 0.802424
vt 0.918495 0.568850
vt 0.923651 0.802452
vt 0.923651 0.568878
vt 0.928807 0.802424
vt 0.928807 0.568850
vt 0.933764 0.802342
vt 0.933764 0.568769
vt 0.938333 0.802210
vt 0.938333 0.568636
vt 0.942338 0.802032
vt 0.789237 0.974152
vt 0.785232 0.973743
vt 0.789237 0.742053
vt 0.793806 0.974456
vt 0.793806 0.742357
vt 0.798764 0.974643
vt 0.798764 0.742544
vt 0.803920 0.974706
vt 0.803920 0.742608
vt 0.809075 0.974643
vt 0.809075 0.742544
vt 0.814033 0.974456
vt 0.814033 0.742357
vt 0.818602 0.974152
vt 0.818602 0.742053
vt 0.822607 0.973743
vt 0.908968 0.568217
vt 0.904964 0.568039
vt 0.908968 0.334643
vt 0.913538 0.568349
vt 0.913538 0.334775
vt 0.918495 0.568431
vt 0.918495 0.334857
vt 0.547844 0.891081
vt 0.522555 0.898753
vt 0.521544 0.893671
vt 0.521544 0.888491
vt 0.522555 0.883410
vt 0.524537 0.878623
vt 0.527415 0.874316
vt 0.531079 0.870652
vt 0.535386 0.867774
vt 0.540173 0.865791
vt 0.545254 0.864781
vt 0.550435 0.864781
vt 0.555516 0.865791
vt 0.560302 0.867774
vt 0.564610 0.870652
vt 0.568273 0.874316
vt 0.571151 0.878623
vt 0.573134 0.883410
vt 0.574145 0.888491
vt 0.574145 0.893671
vt 0.573134 0.898753
vt 0.571151 0.903539
vt 0.568273 0.907847
vt 0.564610 0.911510
vt 0.560302 0.914388
vt 0.555516 0.916371
vt 0.550435 0.917382
vt 0.545254 0.917382
vt 0.540173 0.916371
vt 0.535386 0.914388
vt 0.531079 0.911510
vt 0.527415 0.907847
vt 0.524537 0.903539
vt 0.600445 0.891081
vt 0.577138 0.903539
vt 0.575156 0.898753
vt 0.580016 0.907847
vt 0.583680 0.911510
vt 0.587987 0.914388
vt 0.592774 0.916371
vt 0.597855 0.917382
vt 0.603036 0.917382
vt 0.608117 0.916371
vt 0.612903 0.914388
vt 0.617211 0.911510
vt 0.620874 0.907847
vt 0.623752 0.903539
vt 0.625735 0.898753
vt 0.626746 0.893671
vt 0.626746 0.888491
vt 0.625735 0.883410
vt 0.623752 0.878623
vt 0.620874 0.874316
vt 0.617211 0.870652
vt 0.612903 0.867774
vt 0.608117 0.865791
vt 0.603036 0.864781
vt 0.597855 0.864781
vt 0.592774 0.865791
vt 0.587987 0.867774
vt 0.583680 0.870652
vt 0.580016 0.874315
vt 0.577138 0.878623
vt 0.575156 0.883410
vt 0.574145 0.888491
vt 0.574145 0.893671
vt 0.808026 0.000000
vt 0.000000 0.864781
vt 0.904964 0.000000
vt 0.481934 0.864781
vt 0.583033 0.000000
vt 0.101100 0.000000
vt 0.863209 0.712431
vt 0.293195 0.965783
vt 0.208575 0.864781
vt 0.490378 0.924646
vt 0.964829 0.334465
vt 0.942338 0.334465
vt 0.859981 0.741644
vt 0.942338 0.568458
vt 0.822607 0.741644
s 0
usemtl Material
f 3/1/1 14/2/1 13/3/1
f 49/4/2 2/5/2 4/6/2
f 49/4/3 4/6/3 3/7/3
f 49/4/4 1/8/4 2/5/4
f 49/4/5 3/7/5 1/8/5
f 45/9/6 15/10/6 46/11/6
f 2/12/7 11/13/7 9/14/7
f 4/15/8 7/16/8 3/1/8
f 1/17/9 6/18/9 2/12/9
f 11/19/10 21/19/10 22/19/10
f 6/20/11 8/21/11 11/22/11
f 4/15/12 11/23/12 8/24/12
f 2/5/13 10/25/13 4/6/13
f 14/26/14 26/27/14 28/28/14
f 3/7/15 12/29/15 1/8/15
f 1/17/16 14/26/16 5/30/16
f 7/31/17 5/32/17 14/33/17
f 6/19/10 44/19/10 42/19/10
f 46/34/18 16/35/18 47/36/18
f 48/37/19 17/38/19 45/39/19
f 48/40/20 16/41/20 18/42/20
f 8/19/10 43/19/10 44/19/10
f 5/19/10 42/19/10 19/19/10
f 5/19/10 43/19/10 19/19/10
f 22/43/21 24/44/21 25/45/21
f 9/19/10 22/19/10 20/19/10
f 10/19/10 20/19/10 21/19/10
f 24/46/22 23/47/22 25/48/22
f 22/49/23 23/50/23 20/51/23
f 20/52/24 24/53/24 21/54/24
f 26/55/25 27/56/25 28/57/25
f 13/58/26 26/59/26 12/29/26
f 14/2/27 27/60/27 13/3/27
f 29/19/10 39/19/10 38/19/10
f 29/19/10 40/19/10 38/19/10
f 32/19/10 39/19/10 41/19/10
f 31/19/10 41/19/10 40/19/10
f 34/61/28 33/62/28 37/63/28
f 35/64/29 36/65/29 37/66/29
f 36/67/30 34/68/30 37/69/30
f 33/70/31 35/71/31 37/72/31
f 35/19/10 38/19/10 40/19/10
f 34/19/10 38/19/10 39/19/10
f 36/19/10 40/19/10 41/19/10
f 34/19/10 41/19/10 39/19/10
f 6/19/32 48/40/32 8/73/32
f 8/24/33 45/39/33 7/16/33
f 5/30/34 47/36/34 6/18/34
f 7/74/35 46/11/35 5/75/35
f 85/76/36 53/77/36 52/78/36
f 84/79/37 54/80/37 53/77/37
f 86/81/38 55/82/38 54/80/38
f 87/83/39 56/84/39 55/82/39
f 88/85/40 57/86/40 56/87/40
f 89/88/41 58/89/41 57/86/41
f 90/90/42 59/91/42 58/89/42
f 91/92/43 60/93/43 59/91/43
f 92/94/44 61/95/44 60/93/44
f 93/96/45 62/97/45 61/95/45
f 94/98/46 63/99/46 62/97/46
f 95/100/47 64/101/47 63/99/47
f 96/102/48 65/103/48 64/104/48
f 97/105/49 66/106/49 65/103/49
f 98/107/50 67/108/50 66/106/50
f 99/109/51 68/110/51 67/108/51
f 100/111/52 69/112/52 68/110/52
f 101/113/53 70/114/53 69/112/53
f 102/115/54 71/116/54 70/114/54
f 103/117/55 72/118/55 71/116/55
f 104/74/56 73/119/56 72/120/56
f 105/121/57 74/122/57 73/119/57
f 106/123/58 75/124/58 74/122/58
f 107/125/59 76/126/59 75/124/59
f 108/127/60 77/128/60 76/126/60
f 109/129/61 78/130/61 77/128/61
f 110/131/62 79/132/62 78/130/62
f 111/133/63 80/134/63 79/132/63
f 112/59/64 81/135/64 80/136/64
f 113/137/65 82/138/65 81/135/65
f 114/139/66 83/140/66 82/138/66
f 115/141/67 52/78/67 83/140/67
f 50/142/68 52/143/68 53/144/68
f 50/142/68 53/144/68 54/145/68
f 50/142/68 54/145/68 55/146/68
f 50/142/68 55/146/68 56/147/68
f 50/142/68 56/147/68 57/148/68
f 50/142/68 57/148/68 58/149/68
f 50/142/68 58/149/68 59/150/68
f 50/142/68 59/150/68 60/151/68
f 50/142/68 60/151/68 61/152/68
f 50/142/68 61/152/68 62/153/68
f 50/142/68 62/153/68 63/154/68
f 50/142/68 63/154/68 64/155/68
f 50/142/68 64/155/68 65/156/68
f 50/142/68 65/156/68 66/157/68
f 50/142/68 66/157/68 67/158/68
f 50/142/68 67/158/68 68/159/68
f 50/142/68 68/159/68 69/160/68
f 50/142/68 69/160/68 70/161/68
f 50/142/68 70/161/68 71/162/68
f 50/142/68 71/162/68 72/163/68
f 50/142/68 72/163/68 73/164/68
f 50/142/68 73/164/68 74/165/68
f 50/142/68 74/165/68 75/166/68
f 50/142/68 75/166/68 76/167/68
f 50/142/68 76/167/68 77/168/68
f 50/142/68 77/168/68 78/169/68
f 50/142/68 78/169/68 79/170/68
f 50/142/68 79/170/68 80/171/68
f 50/142/68 80/171/68 81/172/68
f 50/142/68 81/172/68 82/173/68
f 50/142/68 82/173/68 83/174/68
f 50/142/68 83/174/68 52/143/68
f 51/175/10 84/176/10 85/177/10
f 51/175/10 86/178/10 84/176/10
f 51/175/10 87/179/10 86/178/10
f 51/175/10 88/180/10 87/179/10
f 51/175/10 89/181/10 88/180/10
f 51/175/10 90/182/10 89/181/10
f 51/175/10 91/183/10 90/182/10
f 51/175/10 92/184/10 91/183/10
f 51/175/10 93/185/10 92/184/10
f 51/175/10 94/186/10 93/185/10
f 51/175/10 95/187/10 94/186/10
f 51/175/10 96/188/10 95/187/10
f 51/175/10 97/189/10 96/188/10
f 51/175/10 98/190/10 97/189/10
f 51/175/10 99/191/10 98/190/10
f 51/175/10 100/192/10 99/191/10
f 51/175/10 101/193/10 100/192/10
f 51/175/10 102/194/10 101/193/10
f 51/175/10 103/195/10 102/194/10
f 51/175/10 104/196/10 103/195/10
f 51/175/10 105/197/10 104/196/10
f 51/175/10 106/198/10 105/197/10
f 51/175/10 107/199/10 106/198/10
f 51/175/10 108/200/10 107/199/10
f 51/175/10 109/201/10 108/200/10
f 51/175/10 110/202/10 109/201/10
f 51/175/10 111/203/10 110/202/10
f 51/175/10 112/204/10 111/203/10
f 51/175/10 113/205/10 112/204/10
f 51/175/10 114/206/10 113/205/10
f 51/175/10 115/207/10 114/206/10
f 51/175/10 85/177/10 115/207/10
f 3/1/69 7/16/69 14/2/69
f 45/9/6 17/208/6 15/10/6
f 2/12/70 6/18/70 11/13/70
f 4/15/8 8/24/8 7/16/8
f 1/17/9 5/30/9 6/18/9
f 11/19/10 10/19/10 21/19/10
f 4/15/71 10/209/71 11/23/71
f 2/5/13 9/210/13 10/25/13
f 14/26/72 12/211/72 26/27/72
f 3/7/15 13/58/15 12/29/15
f 1/17/73 12/211/73 14/26/73
f 6/19/10 8/19/10 44/19/10
f 46/34/18 15/212/18 16/35/18
f 48/37/19 18/213/19 17/38/19
f 48/40/20 47/214/20 16/41/20
f 8/19/10 7/19/10 43/19/10
f 5/19/10 6/19/10 42/19/10
f 5/19/10 7/19/10 43/19/10
f 22/43/74 21/215/74 24/44/74
f 9/19/10 11/19/10 22/19/10
f 10/19/10 9/19/10 20/19/10
f 22/49/75 25/216/75 23/50/75
f 20/52/24 23/217/24 24/53/24
f 13/58/26 27/218/26 26/59/26
f 14/2/76 28/28/76 27/60/76
f 29/19/10 30/19/10 39/19/10
f 29/19/10 31/19/10 40/19/10
f 32/19/10 30/19/10 39/19/10
f 31/19/10 32/19/10 41/19/10
f 35/19/10 33/19/10 38/19/10
f 34/19/10 33/19/10 38/19/10
f 36/19/10 35/19/10 40/19/10
f 34/19/10 36/19/10 41/19/10
f 6/19/32 47/214/32 48/40/32
f 8/24/33 48/37/33 45/39/33
f 5/30/34 46/34/34 47/36/34
f 7/74/35 45/9/35 46/11/35
f 85/76/36 84/79/36 53/77/36
f 84/79/37 86/81/37 54/80/37
f 86/81/38 87/83/38 55/82/38
f 87/83/39 88/219/39 56/84/39
f 88/85/40 89/88/40 57/86/40
f 89/88/41 90/90/41 58/89/41
f 90/90/42 91/92/42 59/91/42
f 91/92/43 92/94/43 60/93/43
f 92/94/44 93/96/44 61/95/44
f 93/96/45 94/98/45 62/97/45
f 94/98/46 95/100/46 63/99/46
f 95/100/47 96/220/47 64/101/47
f 96/102/48 97/105/48 65/103/48
f 97/105/49 98/107/49 66/106/49
f 98/107/50 99/109/50 67/108/50
f 99/109/51 100/111/51 68/110/51
f 100/111/52 101/113/52 69/112/52
f 101/113/53 102/115/53 70/114/53
f 102/115/54 103/117/54 71/116/54
f 103/117/55 104/221/55 72/118/55
f 104/74/56 105/121/56 73/119/56
f 105/121/57 106/123/57 74/122/57
f 106/123/58 107/125/58 75/124/58
f 107/125/59 108/127/59 76/126/59
f 108/127/60 109/129/60 77/128/60
f 109/129/61 110/131/61 78/130/61
f 110/131/62 111/133/62 79/132/62
f 111/133/63 112/222/63 80/134/63
f 112/59/64 113/137/64 81/135/64
f 113/137/65 114/139/65 82/138/65
f 114/139/66 115/141/66 83/140/66
f 115/141/67 85/76/67 52/78/67
