# Blender 4.0.2
# www.blender.org
mtllib Protagonista11.mtl
o Cube
v 0.428713 -0.366930 -1.030713
v 0.429173 -0.417575 -0.889522
v 0.345271 -0.338361 -1.020193
v 0.345731 -0.389006 -0.879003
v 0.467380 -0.267129 -0.995040
v 0.467840 -0.317774 -0.853850
v 0.383938 -0.238560 -0.984521
v 0.384398 -0.289205 -0.843330
v 0.404246 -0.533744 -0.771752
v 0.320805 -0.505175 -0.761232
v 0.404345 -0.411522 -0.727911
v 0.402866 -0.381809 -1.195325
v 0.319425 -0.353240 -1.184805
v 0.402965 -0.259587 -1.151484
v 0.813303 0.718587 -0.642593
v 0.813763 0.667942 -0.501402
v 0.793401 0.725401 -0.640084
v 0.793861 0.674756 -0.498893
v 0.467380 -0.267129 -0.995040
v 0.404246 -0.533744 -0.771752
v 0.320805 -0.505175 -0.761232
v 0.404345 -0.411522 -0.727911
v 0.408471 -0.538818 -0.724460
v 0.325029 -0.510250 -0.713941
v 0.410670 -0.440988 -0.597714
v 0.406807 -0.355659 -1.235083
v 0.323366 -0.327090 -1.224563
v 0.408477 -0.199568 -1.270760
v 0.813303 0.718587 -0.642593
v 0.813763 0.667942 -0.501402
v 0.793401 0.725401 -0.640084
v 0.793861 0.674756 -0.498893
v 0.813303 0.718587 -0.642593
v 0.813763 0.667942 -0.501402
v 0.793401 0.725401 -0.640084
v 0.793861 0.674756 -0.498893
v 0.867402 0.861393 -0.511865
v 0.813303 0.718587 -0.642593
v 0.813763 0.667942 -0.501402
v 0.793401 0.725401 -0.640084
v 0.793861 0.674756 -0.498893
v 0.467840 -0.317774 -0.853850
v 0.383938 -0.238560 -0.984521
v 0.384398 -0.289205 -0.843330
v 0.423877 -0.213316 -0.963170
v 0.456832 -0.224599 -0.967324
v 0.457220 -0.267345 -0.848153
v 0.424265 -0.256063 -0.843998
v 0.386127 -0.380794 -0.955868
v 0.268125 -0.685535 -1.064793
v 0.387076 -0.378519 -0.955055
v 0.268005 -0.672296 -1.101701
v 0.275193 -0.675011 -1.101898
v 0.282110 -0.678130 -1.100669
v 0.288489 -0.681534 -1.098061
v 0.294086 -0.685091 -1.094175
v 0.298685 -0.688666 -1.089159
v 0.302110 -0.692120 -1.083208
v 0.304229 -0.695321 -1.076548
v 0.304960 -0.698146 -1.069437
v 0.304276 -0.700487 -1.062148
v 0.302202 -0.702253 -1.054960
v 0.298819 -0.703376 -1.048150
v 0.294256 -0.703814 -1.041979
v 0.288689 -0.703549 -1.036686
v 0.282332 -0.702592 -1.032472
v 0.275429 -0.700980 -1.029501
v 0.268245 -0.698774 -1.027886
v 0.261057 -0.696059 -1.027689
v 0.254140 -0.692939 -1.028918
v 0.247760 -0.689536 -1.031526
v 0.242163 -0.685978 -1.035412
v 0.237564 -0.682404 -1.040427
v 0.234140 -0.678949 -1.046379
v 0.232021 -0.675748 -1.053039
v 0.231290 -0.672923 -1.060150
v 0.231974 -0.670583 -1.067439
v 0.234047 -0.668817 -1.074627
v 0.237431 -0.667693 -1.081437
v 0.241993 -0.667256 -1.087608
v 0.247560 -0.667521 -1.092901
v 0.253918 -0.668477 -1.097115
v 0.260821 -0.670090 -1.100086
v 0.394144 -0.367995 -0.992159
v 0.386955 -0.365280 -0.991962
v 0.401061 -0.371114 -0.990930
v 0.407440 -0.374518 -0.988322
v 0.413037 -0.378075 -0.984436
v 0.417636 -0.381650 -0.979421
v 0.421061 -0.385104 -0.973469
v 0.423180 -0.388305 -0.966810
v 0.423911 -0.391130 -0.959699
v 0.423227 -0.393471 -0.952409
v 0.421153 -0.395237 -0.945221
v 0.417770 -0.396360 -0.938411
v 0.413207 -0.396798 -0.932241
v 0.407640 -0.396533 -0.926947
v 0.401283 -0.395576 -0.922734
v 0.394380 -0.393963 -0.919762
v 0.387196 -0.391757 -0.918147
v 0.380007 -0.389043 -0.917950
v 0.373091 -0.385923 -0.919179
v 0.366711 -0.382520 -0.921787
v 0.361114 -0.378962 -0.925673
v 0.356515 -0.375388 -0.930689
v 0.353090 -0.371933 -0.936641
v 0.350972 -0.368732 -0.943300
v 0.350240 -0.365907 -0.950411
v 0.350925 -0.363567 -0.957701
v 0.352998 -0.361801 -0.964888
v 0.356381 -0.360677 -0.971698
v 0.360944 -0.360240 -0.977869
v 0.366511 -0.360504 -0.983162
v 0.372868 -0.361461 -0.987376
v 0.379772 -0.363074 -0.990347
vn -0.7554 0.6526 0.0596
vn -0.3423 -0.8982 -0.2759
vn -0.4093 -0.8593 -0.3069
vn -0.2745 -0.9054 -0.3239
vn -0.3426 -0.8695 -0.3560
vn -0.0069 0.3278 -0.9447
vn 0.9865 -0.0559 0.1537
vn -0.9394 0.3216 0.1184
vn 0.9394 -0.3216 -0.1184
vn 0.3427 0.8846 0.3162
vn 0.3158 0.6779 0.6639
vn -0.8999 0.2126 0.3808
vn -0.3087 -0.6437 -0.7003
vn 0.9989 -0.0002 0.0461
vn -0.3060 -0.9427 0.1332
vn 0.8999 -0.2126 -0.3808
vn 0.3134 0.9460 -0.0834
vn 0.9417 -0.3158 -0.1164
vn -0.9372 0.3274 0.1205
vn -0.0007 -0.3474 0.9377
vn -0.7544 0.6314 0.1796
vn -0.1897 -0.7757 0.6020
vn 0.9959 0.0300 -0.0857
vn -0.3311 -0.9409 -0.0714
vn -0.1948 -0.2166 -0.9566
vn -0.3327 -0.7724 -0.5410
vn -0.7623 0.5728 0.3012
vn 0.9574 -0.2709 -0.1003
vn -0.9184 0.3714 0.1362
vn 0.1309 0.0173 0.9912
vn 0.1252 0.6437 -0.7550
vn 0.0934 -0.0923 0.9913
vn -0.6131 0.7430 0.2685
vn 0.9778 0.1982 0.0679
vn 0.0875 0.5590 -0.8245
vn 0.0890 0.3045 -0.9483
vn 0.2698 0.2297 -0.9351
vn 0.4401 0.1461 -0.8860
vn 0.5936 0.0569 -0.8027
vn 0.7242 -0.0344 -0.6887
vn 0.8271 -0.1245 -0.5482
vn 0.8981 -0.2098 -0.3866
vn 0.9346 -0.2870 -0.2101
vn 0.9352 -0.3532 -0.0256
vn 0.8999 -0.4058 0.1599
vn 0.8299 -0.4428 0.3393
vn 0.7281 -0.4628 0.5056
vn 0.5983 -0.4650 0.6525
vn 0.4455 -0.4494 0.7743
vn 0.2756 -0.4165 0.8664
vn 0.0951 -0.3675 0.9251
vn -0.0890 -0.3045 0.9483
vn -0.2698 -0.2297 0.9351
vn -0.4401 -0.1461 0.8860
vn -0.5936 -0.0569 0.8027
vn -0.7242 0.0344 0.6887
vn -0.8271 0.1245 0.5482
vn -0.8981 0.2098 0.3866
vn -0.9346 0.2870 0.2101
vn -0.9352 0.3532 0.0256
vn -0.8999 0.4058 -0.1599
vn -0.8299 0.4428 -0.3393
vn -0.7281 0.4628 -0.5056
vn -0.5983 0.4650 -0.6525
vn -0.4455 0.4494 -0.7743
vn -0.2756 0.4165 -0.8664
vn -0.0951 0.3675 -0.9251
vn -0.3427 -0.8846 -0.3162
vn -0.9016 0.4043 -0.1537
vn 0.9016 -0.4043 0.1537
vn -0.7543 0.5401 0.3731
vn 0.9964 -0.0293 0.0795
vn 0.9855 0.0565 -0.1599
vn -0.7629 0.6321 0.1360
vn 0.9987 0.0312 -0.0414
vn -0.7541 0.6000 0.2671
vn -0.6131 0.7429 0.2685
vt 0.202199 0.815245
vt 0.303299 0.779456
vt 0.303299 0.864781
vt 0.934897 0.151649
vt 0.904964 0.101100
vt 0.964829 0.101100
vt 0.964829 0.202199
vt 0.904964 0.202199
vt 0.803344 0.712431
vt 0.822305 0.000000
vt 0.826987 0.712431
vt 0.684133 0.815245
vt 0.785232 0.779456
vt 0.785232 0.864781
vt 0.101100 0.815245
vt 0.202199 0.739798
vt 0.583033 0.815245
vt 0.684133 0.739798
vt 0.845098 0.741644
vt 0.151172 0.953223
vt 0.093769 0.970218
vt 0.093769 0.864781
vt 0.000000 0.779456
vt 0.101100 0.739798
vt 0.964829 0.000000
vt 0.481934 0.779456
vt 0.450768 0.856814
vt 0.392616 0.767907
vt 0.904964 0.303299
vt 0.583033 0.739798
vt 0.151172 0.864781
vt 0.208575 0.881776
vt 0.151172 0.970218
vt 0.590917 0.708940
vt 0.684133 0.000000
vt 0.676249 0.708940
vt 0.108983 0.708940
vt 0.202199 0.000000
vt 0.194316 0.708940
vt 0.886853 0.712431
vt 0.867891 0.000000
vt 0.882170 0.000000
vt 0.377815 0.954842
vt 0.297099 0.933853
vt 0.377815 0.864781
vt 0.434096 0.952609
vt 0.377815 0.932206
vt 0.434096 0.864781
vt 0.208575 0.954842
vt 0.289290 0.933853
vt 0.293195 0.965783
vt 0.521544 0.924646
vt 0.490378 0.864781
vt 0.521544 0.864781
vt 0.490378 0.932206
vt 0.434096 0.952609
vt 0.434096 0.864781
vt 0.964829 0.303299
vt 0.904964 0.334465
vt 0.334465 0.856814
vt 0.093769 0.962205
vt -0.000000 1.000000
vt -0.000000 0.864781
vt 0.998733 0.899877
vt 0.904964 0.937671
vt 0.904964 0.802452
vt 0.874238 0.869107
vt 0.859981 0.869901
vt 0.859981 0.741644
vt 0.888495 0.869901
vt 0.874238 0.869107
vt 0.888495 0.741644
vt 0.904964 0.741644
vt 0.785232 0.741644
vt 0.845098 0.741644
vt 0.923651 0.334884
vt 0.928807 0.568431
vt 0.923651 0.568458
vt 0.928807 0.334857
vt 0.933764 0.568349
vt 0.933764 0.334775
vt 0.938333 0.568217
vt 0.938333 0.334643
vt 0.942338 0.568039
vt 0.822607 0.741644
vt 0.826612 0.974152
vt 0.822607 0.973743
vt 0.826612 0.742053
vt 0.831181 0.974456
vt 0.831181 0.742357
vt 0.836138 0.974643
vt 0.836138 0.742544
vt 0.841294 0.974706
vt 0.841294 0.742608
vt 0.846450 0.974643
vt 0.846450 0.742544
vt 0.851408 0.974456
vt 0.851408 0.742357
vt 0.855977 0.974152
vt 0.855977 0.742053
vt 0.859981 0.973743
vt 0.904964 0.568458
vt 0.908968 0.802210
vt 0.904964 0.802032
vt 0.908968 0.568636
vt 0.913537 0.802342
vt 0.913537 0.568769
vt 0.918495 0.802424
vt 0.918495 0.568850
vt 0.923651 0.802452
vt 0.923651 0.568878
vt 0.928807 0.802424
vt 0.928807 0.568850
vt 0.933764 0.802342
vt 0.933764 0.568769
vt 0.938333 0.802210
vt 0.938333 0.568636
vt 0.942338 0.802032
vt 0.789237 0.974152
vt 0.785232 0.973743
vt 0.789237 0.742053
vt 0.793806 0.974456
vt 0.793806 0.742357
vt 0.798764 0.974643
vt 0.798764 0.742544
vt 0.803920 0.974706
vt 0.803920 0.742608
vt 0.809075 0.974643
vt 0.809075 0.742544
vt 0.814033 0.974456
vt 0.814033 0.742357
vt 0.818602 0.974152
vt 0.818602 0.742053
vt 0.822607 0.973743
vt 0.908968 0.568217
vt 0.904964 0.568039
vt 0.908968 0.334643
vt 0.913538 0.568349
vt 0.913538 0.334775
vt 0.918495 0.568431
vt 0.918495 0.334857
vt 0.547844 0.891081
vt 0.522555 0.898753
vt 0.521544 0.893671
vt 0.521544 0.888491
vt 0.522555 0.883410
vt 0.524537 0.878623
vt 0.527415 0.874316
vt 0.531079 0.870652
vt 0.535386 0.867774
vt 0.540173 0.865791
vt 0.545254 0.864781
vt 0.550435 0.864781
vt 0.555516 0.865791
vt 0.560302 0.867774
vt 0.564610 0.870652
vt 0.568273 0.874316
vt 0.571151 0.878623
vt 0.573134 0.883410
vt 0.574145 0.888491
vt 0.574145 0.893671
vt 0.573134 0.898753
vt 0.571151 0.903539
vt 0.568273 0.907847
vt 0.564610 0.911510
vt 0.560302 0.914388
vt 0.555516 0.916371
vt 0.550435 0.917382
vt 0.545254 0.917382
vt 0.540173 0.916371
vt 0.535386 0.914388
vt 0.531079 0.911510
vt 0.527415 0.907847
vt 0.524537 0.903539
vt 0.600445 0.891081
vt 0.577138 0.903539
vt 0.575156 0.898753
vt 0.580016 0.907847
vt 0.583680 0.911510
vt 0.587987 0.914388
vt 0.592774 0.916371
vt 0.597855 0.917382
vt 0.603036 0.917382
vt 0.608117 0.916371
vt 0.612903 0.914388
vt 0.617211 0.911510
vt 0.620874 0.907847
vt 0.623752 0.903539
vt 0.625735 0.898753
vt 0.626746 0.893671
vt 0.626746 0.888491
vt 0.625735 0.883410
vt 0.623752 0.878623
vt 0.620874 0.874316
vt 0.617211 0.870652
vt 0.612903 0.867774
vt 0.608117 0.865791
vt 0.603036 0.864781
vt 0.597855 0.864781
vt 0.592774 0.865791
vt 0.587987 0.867774
vt 0.583680 0.870652
vt 0.580016 0.874315
vt 0.577138 0.878623
vt 0.575156 0.883410
vt 0.574145 0.888491
vt 0.574145 0.893671
vt 0.808026 0.000000
vt 0.000000 0.864781
vt 0.904964 0.000000
vt 0.481934 0.864781
vt 0.583033 0.000000
vt 0.101100 0.000000
vt 0.863209 0.712431
vt 0.293195 0.965783
vt 0.208575 0.864781
vt 0.490378 0.924646
vt 0.964829 0.334465
vt 0.942338 0.334465
vt 0.859981 0.741644
vt 0.942338 0.568458
vt 0.822607 0.741644
s 0
usemtl Material
f 3/1/1 14/2/1 13/3/1
f 49/4/2 2/5/2 4/6/2
f 49/4/3 4/6/3 3/7/3
f 49/4/4 1/8/4 2/5/4
f 49/4/5 3/7/5 1/8/5
f 45/9/6 15/10/6 46/11/6
f 2/12/7 11/13/7 9/14/7
f 4/15/8 7/16/8 3/1/8
f 1/17/9 6/18/9 2/12/9
f 11/19/10 21/19/10 22/19/10
f 6/20/11 8/21/11 11/22/11
f 4/15/12 11/23/12 8/24/12
f 2/5/13 10/25/13 4/6/13
f 14/26/14 26/27/14 28/28/14
f 3/7/15 12/29/15 1/8/15
f 1/17/16 14/26/16 5/30/16
f 7/31/17 5/32/17 14/33/17
f 6/19/10 44/19/10 42/19/10
f 46/34/18 16/35/18 47/36/18
f 48/37/19 17/38/19 45/39/19
f 48/40/20 16/41/20 18/42/20
f 8/19/10 43/19/10 44/19/10
f 5/19/10 42/19/10 19/19/10
f 5/19/10 43/19/10 19/19/10
f 22/43/21 24/44/21 25/45/21
f 9/19/10 22/19/10 20/19/10
f 10/19/10 20/19/10 21/19/10
f 24/46/22 23/47/22 25/48/22
f 22/49/23 23/50/23 20/51/23
f 20/52/24 24/53/24 21/54/24
f 26/55/25 27/56/25 28/57/25
f 13/58/26 26/59/26 12/29/26
f 14/2/27 27/60/27 13/3/27
f 29/19/10 39/19/10 38/19/10
f 29/19/10 40/19/10 38/19/10
f 32/19/10 39/19/10 41/19/10
f 31/19/10 41/19/10 40/19/10
f 34/61/28 33/62/28 37/63/28
f 35/64/29 36/65/29 37/66/29
f 36/67/30 34/68/30 37/69/30
f 33/70/31 35/71/31 37/72/31
f 35/19/10 38/19/10 40/19/10
f 34/19/10 38/19/10 39/19/10
f 36/19/10 40/19/10 41/19/10
f 34/19/10 41/19/10 39/19/10
f 6/19/32 48/40/32 8/73/32
f 8/24/33 45/39/33 7/16/33
f 5/30/34 47/36/34 6/18/34
f 7/74/35 46/11/35 5/75/35
f 85/76/36 53/77/36 52/78/36
f 84/79/37 54/80/37 53/77/37
f 86/81/38 55/82/38 54/80/38
f 87/83/39 56/84/39 55/82/39
f 88/85/40 57/86/40 56/87/40
f 89/88/41 58/89/41 57/86/41
f 90/90/42 59/91/42 58/89/42
f 91/92/43 60/93/43 59/91/43
f 92/94/44 61/95/44 60/93/44
f 93/96/45 62/97/45 61/95/45
f 94/98/46 63/99/46 62/97/46
f 95/100/47 64/101/47 63/99/47
f 96/102/48 65/103/48 64/104/48
f 97/105/49 66/106/49 65/103/49
f 98/107/50 67/108/50 66/106/50
f 99/109/51 68/110/51 67/108/51
f 100/111/52 69/112/52 68/110/52
f 101/113/53 70/114/53 69/112/53
f 102/115/54 71/116/54 70/114/54
f 103/117/55 72/118/55 71/116/55
f 104/74/56 73/119/56 72/120/56
f 105/121/57 74/122/57 73/119/57
f 106/123/58 75/124/58 74/122/58
f 107/125/59 76/126/59 75/124/59
f 108/127/60 77/128/60 76/126/60
f 109/129/61 78/130/61 77/128/61
f 110/131/62 79/132/62 78/130/62
f 111/133/63 80/134/63 79/132/63
f 112/59/64 81/135/64 80/136/64
f 113/137/65 82/138/65 81/135/65
f 114/139/66 83/140/66 82/138/66
f 115/141/67 52/78/67 83/140/67
f 50/142/68 52/143/68 53/144/68
f 50/142/68 53/144/68 54/145/68
f 50/142/68 54/145/68 55/146/68
f 50/142/68 55/146/68 56/147/68
f 50/142/68 56/147/68 57/148/68
f 50/142/68 57/148/68 58/149/68
f 50/142/68 58/149/68 59/150/68
f 50/142/68 59/150/68 60/151/68
f 50/142/68 60/151/68 61/152/68
f 50/142/68 61/152/68 62/153/68
f 50/142/68 62/153/68 63/154/68
f 50/142/68 63/154/68 64/155/68
f 50/142/68 64/155/68 65/156/68
f 50/142/68 65/156/68 66/157/68
f 50/142/68 66/157/68 67/158/68
f 50/142/68 67/158/68 68/159/68
f 50/142/68 68/159/68 69/160/68
f 50/142/68 69/160/68 70/161/68
f 50/142/68 70/161/68 71/162/68
f 50/142/68 71/162/68 72/163/68
f 50/142/68 72/163/68 73/164/68
f 50/142/68 73/164/68 74/165/68
f 50/142/68 74/165/68 75/166/68
f 50/142/68 75/166/68 76/167/68
f 50/142/68 76/167/68 77/168/68
f 50/142/68 77/168/68 78/169/68
f 50/142/68 78/169/68 79/170/68
f 50/142/68 79/170/68 80/171/68
f 50/142/68 80/171/68 81/172/68
f 50/142/68 81/172/68 82/173/68
f 50/142/68 82/173/68 83/174/68
f 50/142/68 83/174/68 52/143/68
f 51/175/10 84/176/10 85/177/10
f 51/175/10 86/178/10 84/176/10
f 51/175/10 87/179/10 86/178/10
f 51/175/10 88/180/10 87/179/10
f 51/175/10 89/181/10 88/180/10
f 51/175/10 90/182/10 89/181/10
f 51/175/10 91/183/10 90/182/10
f 51/175/10 92/184/10 91/183/10
f 51/175/10 93/185/10 92/184/10
f 51/175/10 94/186/10 93/185/10
f 51/175/10 95/187/10 94/186/10
f 51/175/10 96/188/10 95/187/10
f 51/175/10 97/189/10 96/188/10
f 51/175/10 98/190/10 97/189/10
f 51/175/10 99/191/10 98/190/10
f 51/175/10 100/192/10 99/191/10
f 51/175/10 101/193/10 100/192/10
f 51/175/10 102/194/10 101/193/10
f 51/175/10 103/195/10 102/194/10
f 51/175/10 104/196/10 103/195/10
f 51/175/10 105/197/10 104/196/10
f 51/175/10 106/198/10 105/197/10
f 51/175/10 107/199/10 106/198/10
f 51/175/10 108/200/10 107/199/10
f 51/175/10 109/201/10 108/200/10
f 51/175/10 110/202/10 109/201/10
f 51/175/10 111/203/10 110/202/10
f 51/175/10 112/204/10 111/203/10
f 51/175/10 113/205/10 112/204/10
f 51/175/10 114/206/10 113/205/10
f 51/175/10 115/207/10 114/206/10
f 51/175/10 85/177/10 115/207/10
f 3/1/69 7/16/69 14/2/69
f 45/9/6 17/208/6 15/10/6
f 2/12/70 6/18/70 11/13/70
f 4/15/8 8/24/8 7/16/8
f 1/17/9 5/30/9 6/18/9
f 11/19/10 10/19/10 21/19/10
f 4/15/71 10/209/71 11/23/71
f 2/5/13 9/210/13 10/25/13
f 14/26/72 12/211/72 26/27/72
f 3/7/15 13/58/15 12/29/15
f 1/17/73 12/211/73 14/26/73
f 6/19/10 8/19/10 44/19/10
f 46/34/18 15/212/18 16/35/18
f 48/37/19 18/213/19 17/38/19
f 48/40/20 47/214/20 16/41/20
f 8/19/10 7/19/10 43/19/10
f 5/19/10 6/19/10 42/19/10
f 5/19/10 7/19/10 43/19/10
f 22/43/74 21/215/74 24/44/74
f 9/19/10 11/19/10 22/19/10
f 10/19/10 9/19/10 20/19/10
f 22/49/75 25/216/75 23/50/75
f 20/52/24 23/217/24 24/53/24
f 13/58/26 27/218/26 26/59/26
f 14/2/76 28/28/76 27/60/76
f 29/19/10 30/19/10 39/19/10
f 29/19/10 31/19/10 40/19/10
f 32/19/10 30/19/10 39/19/10
f 31/19/10 32/19/10 41/19/10
f 35/19/10 33/19/10 38/19/10
f 34/19/10 33/19/10 38/19/10
f 36/19/10 35/19/10 40/19/10
f 34/19/10 36/19/10 41/19/10
f 6/19/32 47/214/32 48/40/32
f 8/24/77 48/37/77 45/39/77
f 5/30/34 46/34/34 47/36/34
f 7/74/35 45/9/35 46/11/35
f 85/76/36 84/79/36 53/77/36
f 84/79/37 86/81/37 54/80/37
f 86/81/38 87/83/38 55/82/38
f 87/83/39 88/219/39 56/84/39
f 88/85/40 89/88/40 57/86/40
f 89/88/41 90/90/41 58/89/41
f 90/90/42 91/92/42 59/91/42
f 91/92/43 92/94/43 60/93/43
f 92/94/44 93/96/44 61/95/44
f 93/96/45 94/98/45 62/97/45
f 94/98/46 95/100/46 63/99/46
f 95/100/47 96/220/47 64/101/47
f 96/102/48 97/105/48 65/103/48
f 97/105/49 98/107/49 66/106/49
f 98/107/50 99/109/50 67/108/50
f 99/109/51 100/111/51 68/110/51
f 100/111/52 101/113/52 69/112/52
f 101/113/53 102/115/53 70/114/53
f 102/115/54 103/117/54 71/116/54
f 103/117/55 104/221/55 72/118/55
f 104/74/56 105/121/56 73/119/56
f 105/121/57 106/123/57 74/122/57
f 106/123/58 107/125/58 75/124/58
f 107/125/59 108/127/59 76/126/59
f 108/127/60 109/129/60 77/128/60
f 109/129/61 110/131/61 78/130/61
f 110/131/62 111/133/62 79/132/62
f 111/133/63 112/222/63 80/134/63
f 112/59/64 113/137/64 81/135/64
f 113/137/65 114/139/65 82/138/65
f 114/139/66 115/141/66 83/140/66
f 115/141/67 85/76/67 52/78/67
