# Blender 4.0.2
# www.blender.org
mtllib Protagonista118.mtl
o Cube
v 0.335413 -0.454231 -0.850906
v 0.415957 -0.374336 -0.752777
v 0.260543 -0.421365 -0.816213
v 0.341087 -0.341470 -0.718083
v 0.339251 -0.368357 -0.923973
v 0.419795 -0.288462 -0.825844
v 0.264381 -0.335491 -0.889280
v 0.344925 -0.255596 -0.791150
v 0.493980 -0.350821 -0.606675
v 0.419111 -0.317955 -0.571981
v 0.460697 -0.241513 -0.668352
v 0.252349 -0.590507 -0.901063
v 0.177479 -0.557641 -0.866370
v 0.219065 -0.481198 -0.962741
v 0.348237 0.482958 -1.624473
v 0.428781 0.562853 -1.526344
v 0.330379 0.490797 -1.616198
v 0.410923 0.570692 -1.518069
v 0.339251 -0.368357 -0.923973
v 0.493980 -0.350821 -0.606675
v 0.419111 -0.317955 -0.571981
v 0.460697 -0.241513 -0.668352
v 0.519215 -0.317124 -0.584139
v 0.444345 -0.284258 -0.549446
v 0.532442 -0.157784 -0.592844
v 0.227925 -0.606068 -0.939029
v 0.153055 -0.573202 -0.904336
v 0.148495 -0.538638 -1.060619
v 0.348237 0.482958 -1.624473
v 0.428781 0.562853 -1.526344
v 0.330379 0.490797 -1.616198
v 0.410923 0.570692 -1.518069
v 0.348237 0.482958 -1.624473
v 0.428781 0.562853 -1.526344
v 0.330379 0.490797 -1.616198
v 0.410923 0.570692 -1.518069
v 0.385916 0.668560 -1.691869
v 0.348237 0.482958 -1.624473
v 0.428781 0.562853 -1.526344
v 0.330379 0.490797 -1.616198
v 0.410923 0.570692 -1.518069
v 0.419795 -0.288462 -0.825844
v 0.264381 -0.335491 -0.889280
v 0.344925 -0.255596 -0.791150
v 0.294767 -0.306648 -0.919825
v 0.324336 -0.319628 -0.933527
v 0.392319 -0.252193 -0.850701
v 0.362750 -0.239213 -0.836999
v 0.338141 -0.400282 -0.782426
v 0.326474 -0.662503 -0.559355
v 0.338282 -0.398330 -0.784131
v 0.305420 -0.683387 -0.585006
v 0.312273 -0.685817 -0.587501
v 0.319671 -0.687350 -0.588915
v 0.327331 -0.687928 -0.589192
v 0.334958 -0.687530 -0.588323
v 0.342258 -0.686169 -0.586340
v 0.348953 -0.683899 -0.583321
v 0.354783 -0.680807 -0.579380
v 0.359526 -0.677011 -0.574670
v 0.362998 -0.672658 -0.569372
v 0.365067 -0.667915 -0.563688
v 0.365653 -0.662963 -0.557838
v 0.364733 -0.657994 -0.552046
v 0.362343 -0.653198 -0.546535
v 0.358574 -0.648760 -0.541517
v 0.353572 -0.644850 -0.537184
v 0.347529 -0.641618 -0.533704
v 0.340676 -0.639188 -0.531209
v 0.333278 -0.637655 -0.529795
v 0.325618 -0.637077 -0.529518
v 0.317991 -0.637475 -0.530387
v 0.310690 -0.638836 -0.532369
v 0.303996 -0.641106 -0.535389
v 0.298166 -0.644198 -0.539329
v 0.293423 -0.647994 -0.544039
v 0.289951 -0.652347 -0.549338
v 0.287882 -0.657090 -0.555022
v 0.287296 -0.662042 -0.560872
v 0.288216 -0.667011 -0.566664
v 0.290606 -0.671807 -0.572174
v 0.294375 -0.676245 -0.577193
v 0.299377 -0.680156 -0.581526
v 0.324080 -0.421644 -0.812277
v 0.317228 -0.419215 -0.809782
v 0.331479 -0.423177 -0.813691
v 0.339139 -0.423756 -0.813968
v 0.346765 -0.423357 -0.813099
v 0.354066 -0.421997 -0.811116
v 0.360761 -0.419727 -0.808097
v 0.366591 -0.416634 -0.804156
v 0.371334 -0.412839 -0.799446
v 0.374806 -0.408486 -0.794148
v 0.376875 -0.403742 -0.788464
v 0.377461 -0.398791 -0.782614
v 0.376541 -0.393821 -0.776822
v 0.374151 -0.389026 -0.771311
v 0.370382 -0.384587 -0.766293
v 0.365380 -0.380677 -0.761960
v 0.359337 -0.377445 -0.758479
v 0.352484 -0.375016 -0.755984
v 0.345086 -0.373483 -0.754571
v 0.337426 -0.372904 -0.754294
v 0.329799 -0.373303 -0.755163
v 0.322498 -0.374663 -0.757145
v 0.315804 -0.376933 -0.760165
v 0.309974 -0.380026 -0.764105
v 0.305231 -0.383821 -0.768815
v 0.301759 -0.388174 -0.774114
v 0.299690 -0.392918 -0.779798
v 0.299104 -0.397869 -0.785648
v 0.300024 -0.402839 -0.791439
v 0.302414 -0.407634 -0.796950
v 0.306182 -0.412073 -0.801969
v 0.311184 -0.415983 -0.806301
vn -0.8590 0.5109 0.0345
vn -0.0111 -0.7378 0.6749
vn -0.0944 -0.7327 0.6740
vn 0.0265 -0.7858 0.6180
vn -0.0568 -0.7831 0.6192
vn -0.5373 -0.5410 -0.6470
vn 0.8819 0.0026 -0.4714
vn -0.8429 0.3700 0.3906
vn 0.8429 -0.3700 -0.3906
vn 0.0340 0.7612 -0.6477
vn 0.2444 0.9101 -0.3348
vn -0.6558 0.5060 0.5602
vn -0.2683 -0.9183 0.2911
vn 0.8236 -0.0489 -0.5651
vn 0.2072 -0.4467 0.8704
vn 0.6558 -0.5060 -0.5602
vn -0.1819 0.4872 -0.8541
vn 0.8431 -0.3650 -0.3948
vn -0.8427 0.3750 0.3863
vn 0.5366 0.5242 0.6613
vn -0.7993 0.5921 0.1029
vn 0.4255 0.0141 0.9049
vn 0.7535 -0.1338 -0.6437
vn 0.1010 -0.6042 0.7904
vn -0.4636 -0.8679 -0.1784
vn -0.1669 -0.8700 0.4640
vn -0.7303 0.6525 0.2024
vn 0.8435 -0.3262 -0.4268
vn -0.8396 0.4127 0.3532
vn 0.5108 0.7784 0.3649
vn -0.4854 -0.2097 -0.8488
vn 0.5269 0.7146 0.4602
vn -0.6957 0.7182 -0.0138
vn 0.7318 0.0916 -0.6753
vn -0.5090 -0.3130 -0.8019
vn -0.4518 -0.5663 -0.6893
vn -0.2692 -0.6171 -0.7394
vn -0.0762 -0.6442 -0.7611
vn 0.1197 -0.6465 -0.7535
vn 0.3109 -0.6239 -0.7170
vn 0.4903 -0.5774 -0.6529
vn 0.6508 -0.5087 -0.5637
vn 0.7862 -0.4204 -0.4528
vn 0.8915 -0.3160 -0.3246
vn 0.9625 -0.1995 -0.1839
vn 0.9965 -0.0752 -0.0361
vn 0.9922 0.0519 0.1131
vn 0.9498 0.1770 0.2579
vn 0.8709 0.2953 0.3928
vn 0.7585 0.4023 0.5126
vn 0.6170 0.4938 0.6128
vn 0.4518 0.5663 0.6893
vn 0.2692 0.6171 0.7394
vn 0.0762 0.6442 0.7611
vn -0.1197 0.6465 0.7535
vn -0.3109 0.6239 0.7170
vn -0.4903 0.5774 0.6529
vn -0.6508 0.5087 0.5637
vn -0.7862 0.4204 0.4528
vn -0.8915 0.3160 0.3246
vn -0.9625 0.1995 0.1839
vn -0.9965 0.0752 0.0361
vn -0.9922 -0.0519 -0.1131
vn -0.9498 -0.1770 -0.2579
vn -0.8709 -0.2953 -0.3928
vn -0.7585 -0.4023 -0.5126
vn -0.6170 -0.4938 -0.6128
vn -0.0340 -0.7612 0.6477
vn -0.9607 0.2036 0.1888
vn 0.9607 -0.2036 -0.1888
vn -0.6801 0.6883 0.2524
vn 0.8478 -0.0403 -0.5289
vn 0.7031 -0.1748 -0.6893
vn -0.8246 0.5589 0.0875
vn 0.7736 -0.0984 -0.6259
vn -0.7494 0.6416 0.1638
vt 0.202199 0.815245
vt 0.303299 0.779456
vt 0.303299 0.864781
vt 0.934897 0.151649
vt 0.904964 0.101100
vt 0.964829 0.101100
vt 0.964829 0.202199
vt 0.904964 0.202199
vt 0.803344 0.712431
vt 0.822305 0.000000
vt 0.826987 0.712431
vt 0.684133 0.815245
vt 0.785232 0.779456
vt 0.785232 0.864781
vt 0.101100 0.815245
vt 0.202199 0.739798
vt 0.583033 0.815245
vt 0.684133 0.739798
vt 0.845098 0.741644
vt 0.151172 0.953223
vt 0.093769 0.970218
vt 0.093769 0.864781
vt 0.000000 0.779456
vt 0.101100 0.739798
vt 0.964829 0.000000
vt 0.481934 0.779456
vt 0.450768 0.856814
vt 0.392616 0.767907
vt 0.904964 0.303299
vt 0.583033 0.739798
vt 0.151172 0.864781
vt 0.208575 0.881776
vt 0.151172 0.970218
vt 0.590917 0.708940
vt 0.684133 0.000000
vt 0.676249 0.708940
vt 0.108983 0.708940
vt 0.202199 0.000000
vt 0.194316 0.708940
vt 0.886853 0.712431
vt 0.867891 0.000000
vt 0.882170 0.000000
vt 0.377815 0.954842
vt 0.297099 0.933853
vt 0.377815 0.864781
vt 0.434096 0.952609
vt 0.377815 0.932206
vt 0.434096 0.864781
vt 0.208575 0.954842
vt 0.289290 0.933853
vt 0.293195 0.965783
vt 0.521544 0.924646
vt 0.490378 0.864781
vt 0.521544 0.864781
vt 0.490378 0.932206
vt 0.434096 0.952609
vt 0.434096 0.864781
vt 0.964829 0.303299
vt 0.904964 0.334465
vt 0.334465 0.856814
vt 0.093769 0.962205
vt -0.000000 1.000000
vt -0.000000 0.864781
vt 0.998733 0.899877
vt 0.904964 0.937671
vt 0.904964 0.802452
vt 0.874238 0.869107
vt 0.859981 0.869901
vt 0.859981 0.741644
vt 0.888495 0.869901
vt 0.874238 0.869107
vt 0.888495 0.741644
vt 0.904964 0.741644
vt 0.785232 0.741644
vt 0.845098 0.741644
vt 0.923651 0.334884
vt 0.928807 0.568431
vt 0.923651 0.568458
vt 0.928807 0.334857
vt 0.933764 0.568349
vt 0.933764 0.334775
vt 0.938333 0.568217
vt 0.938333 0.334643
vt 0.942338 0.568039
vt 0.822607 0.741644
vt 0.826612 0.974152
vt 0.822607 0.973743
vt 0.826612 0.742053
vt 0.831181 0.974456
vt 0.831181 0.742357
vt 0.836138 0.974643
vt 0.836138 0.742544
vt 0.841294 0.974706
vt 0.841294 0.742608
vt 0.846450 0.974643
vt 0.846450 0.742544
vt 0.851408 0.974456
vt 0.851408 0.742357
vt 0.855977 0.974152
vt 0.855977 0.742053
vt 0.859981 0.973743
vt 0.904964 0.568458
vt 0.908968 0.802210
vt 0.904964 0.802032
vt 0.908968 0.568636
vt 0.913537 0.802342
vt 0.913537 0.568769
vt 0.918495 0.802424
vt 0.918495 0.568850
vt 0.923651 0.802452
vt 0.923651 0.568878
vt 0.928807 0.802424
vt 0.928807 0.568850
vt 0.933764 0.802342
vt 0.933764 0.568769
vt 0.938333 0.802210
vt 0.938333 0.568636
vt 0.942338 0.802032
vt 0.789237 0.974152
vt 0.785232 0.973743
vt 0.789237 0.742053
vt 0.793806 0.974456
vt 0.793806 0.742357
vt 0.798764 0.974643
vt 0.798764 0.742544
vt 0.803920 0.974706
vt 0.803920 0.742608
vt 0.809075 0.974643
vt 0.809075 0.742544
vt 0.814033 0.974456
vt 0.814033 0.742357
vt 0.818602 0.974152
vt 0.818602 0.742053
vt 0.822607 0.973743
vt 0.908968 0.568217
vt 0.904964 0.568039
vt 0.908968 0.334643
vt 0.913538 0.568349
vt 0.913538 0.334775
vt 0.918495 0.568431
vt 0.918495 0.334857
vt 0.547844 0.891081
vt 0.522555 0.898753
vt 0.521544 0.893671
vt 0.521544 0.888491
vt 0.522555 0.883410
vt 0.524537 0.878623
vt 0.527415 0.874316
vt 0.531079 0.870652
vt 0.535386 0.867774
vt 0.540173 0.865791
vt 0.545254 0.864781
vt 0.550435 0.864781
vt 0.555516 0.865791
vt 0.560302 0.867774
vt 0.564610 0.870652
vt 0.568273 0.874316
vt 0.571151 0.878623
vt 0.573134 0.883410
vt 0.574145 0.888491
vt 0.574145 0.893671
vt 0.573134 0.898753
vt 0.571151 0.903539
vt 0.568273 0.907847
vt 0.564610 0.911510
vt 0.560302 0.914388
vt 0.555516 0.916371
vt 0.550435 0.917382
vt 0.545254 0.917382
vt 0.540173 0.916371
vt 0.535386 0.914388
vt 0.531079 0.911510
vt 0.527415 0.907847
vt 0.524537 0.903539
vt 0.600445 0.891081
vt 0.577138 0.903539
vt 0.575156 0.898753
vt 0.580016 0.907847
vt 0.583680 0.911510
vt 0.587987 0.914388
vt 0.592774 0.916371
vt 0.597855 0.917382
vt 0.603036 0.917382
vt 0.608117 0.916371
vt 0.612903 0.914388
vt 0.617211 0.911510
vt 0.620874 0.907847
vt 0.623752 0.903539
vt 0.625735 0.898753
vt 0.626746 0.893671
vt 0.626746 0.888491
vt 0.625735 0.883410
vt 0.623752 0.878623
vt 0.620874 0.874316
vt 0.617211 0.870652
vt 0.612903 0.867774
vt 0.608117 0.865791
vt 0.603036 0.864781
vt 0.597855 0.864781
vt 0.592774 0.865791
vt 0.587987 0.867774
vt 0.583680 0.870652
vt 0.580016 0.874315
vt 0.577138 0.878623
vt 0.575156 0.883410
vt 0.574145 0.888491
vt 0.574145 0.893671
vt 0.808026 0.000000
vt 0.000000 0.864781
vt 0.904964 0.000000
vt 0.481934 0.864781
vt 0.583033 0.000000
vt 0.101100 0.000000
vt 0.863209 0.712431
vt 0.293195 0.965783
vt 0.208575 0.864781
vt 0.490378 0.924646
vt 0.964829 0.334465
vt 0.942338 0.334465
vt 0.859981 0.741644
vt 0.942338 0.568458
vt 0.822607 0.741644
s 0
usemtl Material
f 3/1/1 14/2/1 13/3/1
f 49/4/2 2/5/2 4/6/2
f 49/4/3 4/6/3 3/7/3
f 49/4/4 1/8/4 2/5/4
f 49/4/5 3/7/5 1/8/5
f 45/9/6 15/10/6 46/11/6
f 2/12/7 11/13/7 9/14/7
f 4/15/8 7/16/8 3/1/8
f 1/17/9 6/18/9 2/12/9
f 11/19/10 21/19/10 22/19/10
f 6/20/11 8/21/11 11/22/11
f 4/15/12 11/23/12 8/24/12
f 2/5/13 10/25/13 4/6/13
f 14/26/14 26/27/14 28/28/14
f 3/7/15 12/29/15 1/8/15
f 1/17/16 14/26/16 5/30/16
f 7/31/17 5/32/17 14/33/17
f 6/19/10 44/19/10 42/19/10
f 46/34/18 16/35/18 47/36/18
f 48/37/19 17/38/19 45/39/19
f 48/40/20 16/41/20 18/42/20
f 8/19/10 43/19/10 44/19/10
f 5/19/10 42/19/10 19/19/10
f 5/19/10 43/19/10 19/19/10
f 22/43/21 24/44/21 25/45/21
f 9/19/10 22/19/10 20/19/10
f 10/19/10 20/19/10 21/19/10
f 24/46/22 23/47/22 25/48/22
f 22/49/23 23/50/23 20/51/23
f 20/52/24 24/53/24 21/54/24
f 26/55/25 27/56/25 28/57/25
f 13/58/26 26/59/26 12/29/26
f 14/2/27 27/60/27 13/3/27
f 29/19/10 39/19/10 38/19/10
f 29/19/10 40/19/10 38/19/10
f 32/19/10 39/19/10 41/19/10
f 31/19/10 41/19/10 40/19/10
f 34/61/28 33/62/28 37/63/28
f 35/64/29 36/65/29 37/66/29
f 36/67/30 34/68/30 37/69/30
f 33/70/31 35/71/31 37/72/31
f 35/19/10 38/19/10 40/19/10
f 34/19/10 38/19/10 39/19/10
f 36/19/10 40/19/10 41/19/10
f 34/19/10 41/19/10 39/19/10
f 6/19/32 48/40/32 8/73/32
f 8/24/33 45/39/33 7/16/33
f 5/30/34 47/36/34 6/18/34
f 7/74/35 46/11/35 5/75/35
f 85/76/36 53/77/36 52/78/36
f 84/79/37 54/80/37 53/77/37
f 86/81/38 55/82/38 54/80/38
f 87/83/39 56/84/39 55/82/39
f 88/85/40 57/86/40 56/87/40
f 89/88/41 58/89/41 57/86/41
f 90/90/42 59/91/42 58/89/42
f 91/92/43 60/93/43 59/91/43
f 92/94/44 61/95/44 60/93/44
f 93/96/45 62/97/45 61/95/45
f 94/98/46 63/99/46 62/97/46
f 95/100/47 64/101/47 63/99/47
f 96/102/48 65/103/48 64/104/48
f 97/105/49 66/106/49 65/103/49
f 98/107/50 67/108/50 66/106/50
f 99/109/51 68/110/51 67/108/51
f 100/111/52 69/112/52 68/110/52
f 101/113/53 70/114/53 69/112/53
f 102/115/54 71/116/54 70/114/54
f 103/117/55 72/118/55 71/116/55
f 104/74/56 73/119/56 72/120/56
f 105/121/57 74/122/57 73/119/57
f 106/123/58 75/124/58 74/122/58
f 107/125/59 76/126/59 75/124/59
f 108/127/60 77/128/60 76/126/60
f 109/129/61 78/130/61 77/128/61
f 110/131/62 79/132/62 78/130/62
f 111/133/63 80/134/63 79/132/63
f 112/59/64 81/135/64 80/136/64
f 113/137/65 82/138/65 81/135/65
f 114/139/66 83/140/66 82/138/66
f 115/141/67 52/78/67 83/140/67
f 50/142/68 52/143/68 53/144/68
f 50/142/68 53/144/68 54/145/68
f 50/142/68 54/145/68 55/146/68
f 50/142/68 55/146/68 56/147/68
f 50/142/68 56/147/68 57/148/68
f 50/142/68 57/148/68 58/149/68
f 50/142/68 58/149/68 59/150/68
f 50/142/68 59/150/68 60/151/68
f 50/142/68 60/151/68 61/152/68
f 50/142/68 61/152/68 62/153/68
f 50/142/68 62/153/68 63/154/68
f 50/142/68 63/154/68 64/155/68
f 50/142/68 64/155/68 65/156/68
f 50/142/68 65/156/68 66/157/68
f 50/142/68 66/157/68 67/158/68
f 50/142/68 67/158/68 68/159/68
f 50/142/68 68/159/68 69/160/68
f 50/142/68 69/160/68 70/161/68
f 50/142/68 70/161/68 71/162/68
f 50/142/68 71/162/68 72/163/68
f 50/142/68 72/163/68 73/164/68
f 50/142/68 73/164/68 74/165/68
f 50/142/68 74/165/68 75/166/68
f 50/142/68 75/166/68 76/167/68
f 50/142/68 76/167/68 77/168/68
f 50/142/68 77/168/68 78/169/68
f 50/142/68 78/169/68 79/170/68
f 50/142/68 79/170/68 80/171/68
f 50/142/68 80/171/68 81/172/68
f 50/142/68 81/172/68 82/173/68
f 50/142/68 82/173/68 83/174/68
f 50/142/68 83/174/68 52/143/68
f 51/175/10 84/176/10 85/177/10
f 51/175/10 86/178/10 84/176/10
f 51/175/10 87/179/10 86/178/10
f 51/175/10 88/180/10 87/179/10
f 51/175/10 89/181/10 88/180/10
f 51/175/10 90/182/10 89/181/10
f 51/175/10 91/183/10 90/182/10
f 51/175/10 92/184/10 91/183/10
f 51/175/10 93/185/10 92/184/10
f 51/175/10 94/186/10 93/185/10
f 51/175/10 95/187/10 94/186/10
f 51/175/10 96/188/10 95/187/10
f 51/175/10 97/189/10 96/188/10
f 51/175/10 98/190/10 97/189/10
f 51/175/10 99/191/10 98/190/10
f 51/175/10 100/192/10 99/191/10
f 51/175/10 101/193/10 100/192/10
f 51/175/10 102/194/10 101/193/10
f 51/175/10 103/195/10 102/194/10
f 51/175/10 104/196/10 103/195/10
f 51/175/10 105/197/10 104/196/10
f 51/175/10 106/198/10 105/197/10
f 51/175/10 107/199/10 106/198/10
f 51/175/10 108/200/10 107/199/10
f 51/175/10 109/201/10 108/200/10
f 51/175/10 110/202/10 109/201/10
f 51/175/10 111/203/10 110/202/10
f 51/175/10 112/204/10 111/203/10
f 51/175/10 113/205/10 112/204/10
f 51/175/10 114/206/10 113/205/10
f 51/175/10 115/207/10 114/206/10
f 51/175/10 85/177/10 115/207/10
f 3/1/69 7/16/69 14/2/69
f 45/9/6 17/208/6 15/10/6
f 2/12/70 6/18/70 11/13/70
f 4/15/8 8/24/8 7/16/8
f 1/17/9 5/30/9 6/18/9
f 11/19/10 10/19/10 21/19/10
f 4/15/71 10/209/71 11/23/71
f 2/5/13 9/210/13 10/25/13
f 14/26/72 12/211/72 26/27/72
f 3/7/15 13/58/15 12/29/15
f 1/17/73 12/211/73 14/26/73
f 6/19/10 8/19/10 44/19/10
f 46/34/18 15/212/18 16/35/18
f 48/37/19 18/213/19 17/38/19
f 48/40/20 47/214/20 16/41/20
f 8/19/10 7/19/10 43/19/10
f 5/19/10 6/19/10 42/19/10
f 5/19/10 7/19/10 43/19/10
f 22/43/74 21/215/74 24/44/74
f 9/19/10 11/19/10 22/19/10
f 10/19/10 9/19/10 20/19/10
f 22/49/75 25/216/75 23/50/75
f 20/52/24 23/217/24 24/53/24
f 13/58/26 27/218/26 26/59/26
f 14/2/76 28/28/76 27/60/76
f 29/19/10 30/19/10 39/19/10
f 29/19/10 31/19/10 40/19/10
f 32/19/10 30/19/10 39/19/10
f 31/19/10 32/19/10 41/19/10
f 35/19/10 33/19/10 38/19/10
f 34/19/10 33/19/10 38/19/10
f 36/19/10 35/19/10 40/19/10
f 34/19/10 36/19/10 41/19/10
f 6/19/32 47/214/32 48/40/32
f 8/24/33 48/37/33 45/39/33
f 5/30/34 46/34/34 47/36/34
f 7/74/35 45/9/35 46/11/35
f 85/76/36 84/79/36 53/77/36
f 84/79/37 86/81/37 54/80/37
f 86/81/38 87/83/38 55/82/38
f 87/83/39 88/219/39 56/84/39
f 88/85/40 89/88/40 57/86/40
f 89/88/41 90/90/41 58/89/41
f 90/90/42 91/92/42 59/91/42
f 91/92/43 92/94/43 60/93/43
f 92/94/44 93/96/44 61/95/44
f 93/96/45 94/98/45 62/97/45
f 94/98/46 95/100/46 63/99/46
f 95/100/47 96/220/47 64/101/47
f 96/102/48 97/105/48 65/103/48
f 97/105/49 98/107/49 66/106/49
f 98/107/50 99/109/50 67/108/50
f 99/109/51 100/111/51 68/110/51
f 100/111/52 101/113/52 69/112/52
f 101/113/53 102/115/53 70/114/53
f 102/115/54 103/117/54 71/116/54
f 103/117/55 104/221/55 72/118/55
f 104/74/56 105/121/56 73/119/56
f 105/121/57 106/123/57 74/122/57
f 106/123/58 107/125/58 75/124/58
f 107/125/59 108/127/59 76/126/59
f 108/127/60 109/129/60 77/128/60
f 109/129/61 110/131/61 78/130/61
f 110/131/62 111/133/62 79/132/62
f 111/133/63 112/222/63 80/134/63
f 112/59/64 113/137/64 81/135/64
f 113/137/65 114/139/65 82/138/65
f 114/139/66 115/141/66 83/140/66
f 115/141/67 85/76/67 52/78/67
