# Blender 4.0.2
# www.blender.org
mtllib Protagonista13.mtl
o Cube
v 0.427494 -0.381885 -0.525920
v 0.431479 -0.427499 -0.383079
v 0.344239 -0.353150 -0.514421
v 0.348224 -0.398764 -0.371581
v 0.466691 -0.280797 -0.494732
v 0.470676 -0.326412 -0.351892
v 0.383436 -0.252062 -0.483234
v 0.387421 -0.297677 -0.340393
v 0.409728 -0.539483 -0.260715
v 0.326473 -0.510748 -0.249217
v 0.410494 -0.415786 -0.221235
v 0.397774 -0.402640 -0.689237
v 0.314519 -0.373905 -0.677738
v 0.398540 -0.278943 -0.649757
v 0.817868 0.717553 -0.185717
v 0.821853 0.671938 -0.042877
v 0.798010 0.724407 -0.182975
v 0.801995 0.678792 -0.040134
v 0.466691 -0.280797 -0.494732
v 0.409728 -0.539483 -0.260715
v 0.326473 -0.510748 -0.249217
v 0.410494 -0.415786 -0.221235
v 0.415096 -0.542871 -0.213389
v 0.331841 -0.514136 -0.201890
v 0.420015 -0.440611 -0.090268
v 0.400685 -0.377904 -0.729977
v 0.317430 -0.349169 -0.718479
v 0.401020 -0.223170 -0.771177
v 0.817868 0.717553 -0.185717
v 0.821853 0.671938 -0.042877
v 0.798010 0.724407 -0.182975
v 0.801995 0.678792 -0.040134
v 0.817868 0.717553 -0.185717
v 0.821853 0.671938 -0.042877
v 0.798010 0.724407 -0.182975
v 0.801995 0.678792 -0.040134
v 0.874627 0.865019 -0.061450
v 0.817868 0.717553 -0.185717
v 0.821853 0.671938 -0.042877
v 0.798010 0.724407 -0.182975
v 0.801995 0.678792 -0.040134
v 0.470676 -0.326412 -0.351892
v 0.383436 -0.252062 -0.483234
v 0.387421 -0.297677 -0.340393
v 0.423795 -0.225988 -0.463750
v 0.456676 -0.237337 -0.468291
v 0.460039 -0.275837 -0.347728
v 0.427158 -0.264489 -0.343186
v 0.386749 -0.393187 -0.449634
v 0.267127 -0.701858 -0.544867
v 0.387709 -0.390882 -0.448924
v 0.266085 -0.689934 -0.582206
v 0.273275 -0.692638 -0.582479
v 0.280229 -0.695696 -0.581306
v 0.286679 -0.698991 -0.578733
v 0.292378 -0.702396 -0.574859
v 0.297107 -0.705780 -0.569832
v 0.300683 -0.709014 -0.563846
v 0.302970 -0.711973 -0.557130
v 0.303880 -0.714543 -0.549943
v 0.303377 -0.716625 -0.542561
v 0.301481 -0.718140 -0.535268
v 0.298264 -0.719029 -0.528343
v 0.293851 -0.719259 -0.522054
v 0.288412 -0.718819 -0.516641
v 0.282154 -0.717728 -0.512313
v 0.275318 -0.716027 -0.509236
v 0.268168 -0.713781 -0.507528
v 0.260978 -0.711078 -0.507255
v 0.254024 -0.708019 -0.508428
v 0.247574 -0.704724 -0.511001
v 0.241875 -0.701319 -0.514875
v 0.237146 -0.697935 -0.519902
v 0.233570 -0.694701 -0.525888
v 0.231283 -0.691742 -0.532604
v 0.230374 -0.689173 -0.539791
v 0.230877 -0.687090 -0.547173
v 0.232773 -0.685575 -0.554466
v 0.235989 -0.684686 -0.561391
v 0.240402 -0.684456 -0.567680
v 0.245842 -0.684896 -0.573093
v 0.252100 -0.685987 -0.577421
v 0.258935 -0.687688 -0.580498
v 0.393858 -0.381662 -0.486536
v 0.386668 -0.378959 -0.486263
v 0.400812 -0.384721 -0.485364
v 0.407262 -0.388016 -0.482791
v 0.412961 -0.391421 -0.478916
v 0.417690 -0.394805 -0.473889
v 0.421266 -0.398039 -0.467903
v 0.423553 -0.400998 -0.461187
v 0.424462 -0.403568 -0.454000
v 0.423959 -0.405650 -0.446618
v 0.422063 -0.407165 -0.439325
v 0.418847 -0.408054 -0.432401
v 0.414434 -0.408284 -0.426111
v 0.408994 -0.407844 -0.420698
v 0.402737 -0.406753 -0.416370
v 0.395901 -0.405052 -0.413293
v 0.388751 -0.402806 -0.411585
v 0.381561 -0.400102 -0.411313
v 0.374607 -0.397044 -0.412485
v 0.368157 -0.393749 -0.415058
v 0.362458 -0.390344 -0.418932
v 0.357729 -0.386960 -0.423959
v 0.354153 -0.383726 -0.429946
v 0.351866 -0.380767 -0.436661
v 0.350957 -0.378197 -0.443848
v 0.351460 -0.376115 -0.451230
v 0.353356 -0.374600 -0.458524
v 0.356572 -0.373711 -0.465448
v 0.360985 -0.373481 -0.471738
v 0.366425 -0.373921 -0.477150
v 0.372682 -0.375012 -0.481478
v 0.379518 -0.376713 -0.484556
vn -0.7557 0.6526 0.0546
vn -0.3460 -0.9082 -0.2357
vn -0.4138 -0.8705 -0.2664
vn -0.2793 -0.9169 -0.2850
vn -0.3483 -0.8823 -0.3167
vn -0.0304 0.2942 -0.9553
vn 0.9901 -0.0482 0.1319
vn -0.9373 0.3235 0.1295
vn 0.9373 -0.3235 -0.1295
vn 0.3474 0.8960 0.2764
vn 0.3294 0.7017 0.6317
vn -0.8912 0.2239 0.3945
vn -0.3233 -0.6688 -0.6695
vn 0.9997 0.0037 0.0221
vn -0.2998 -0.9381 0.1738
vn 0.8912 -0.2239 -0.3945
vn 0.3083 0.9431 -0.1243
vn 0.9396 -0.3176 -0.1276
vn -0.9350 0.3294 0.1313
vn 0.0227 -0.3140 0.9492
vn -0.7518 0.6357 0.1751
vn -0.1729 -0.7543 0.6334
vn 0.9934 0.0291 -0.1106
vn -0.3298 -0.9436 -0.0301
vn -0.2168 -0.2507 -0.9435
vn -0.3431 -0.7918 -0.5053
vn -0.7567 0.5814 0.2990
vn 0.9555 -0.2721 -0.1135
vn -0.9161 0.3739 0.1450
vn 0.1544 0.0527 0.9866
vn 0.1052 0.6168 -0.7800
vn 0.1173 -0.0570 0.9915
vn -0.6089 0.7506 0.2567
vn 0.9785 0.2027 0.0374
vn 0.0660 0.5297 -0.8456
vn 0.0654 0.2709 -0.9604
vn 0.2467 0.1971 -0.9488
vn 0.4184 0.1157 -0.9009
vn 0.5741 0.0298 -0.8182
vn 0.7077 -0.0572 -0.7042
vn 0.8141 -0.1420 -0.5631
vn 0.8893 -0.2213 -0.4003
vn 0.9302 -0.2921 -0.2222
vn 0.9354 -0.3518 -0.0355
vn 0.9047 -0.3979 0.1525
vn 0.8392 -0.4287 0.3347
vn 0.7414 -0.4430 0.5040
vn 0.6152 -0.4403 0.6540
vn 0.4653 -0.4207 0.7788
vn 0.2975 -0.3849 0.8737
vn 0.1183 -0.3343 0.9350
vn -0.0654 -0.2709 0.9604
vn -0.2467 -0.1971 0.9488
vn -0.4184 -0.1157 0.9009
vn -0.5741 -0.0298 0.8182
vn -0.7077 0.0572 0.7042
vn -0.8141 0.1420 0.5631
vn -0.8893 0.2213 0.4003
vn -0.9302 0.2921 0.2222
vn -0.9354 0.3518 0.0355
vn -0.9047 0.3979 -0.1525
vn -0.8392 0.4287 -0.3347
vn -0.7414 0.4430 -0.5040
vn -0.6152 0.4403 -0.6540
vn -0.4653 0.4207 -0.7788
vn -0.2975 0.3849 -0.8737
vn -0.1183 0.3343 -0.9350
vn -0.3474 -0.8960 -0.2764
vn -0.9063 0.3965 -0.1462
vn 0.9063 -0.3965 0.1462
vn -0.7469 0.5513 0.3718
vn 0.9981 -0.0242 0.0566
vn 0.9812 0.0531 -0.1853
vn -0.7614 0.6348 0.1318
vn 0.9973 0.0320 -0.0664
vn -0.7493 0.6074 0.2637
vt 0.202199 0.815245
vt 0.303299 0.779456
vt 0.303299 0.864781
vt 0.934897 0.151649
vt 0.904964 0.101100
vt 0.964829 0.101100
vt 0.964829 0.202199
vt 0.904964 0.202199
vt 0.803344 0.712431
vt 0.822305 0.000000
vt 0.826987 0.712431
vt 0.684133 0.815245
vt 0.785232 0.779456
vt 0.785232 0.864781
vt 0.101100 0.815245
vt 0.202199 0.739798
vt 0.583033 0.815245
vt 0.684133 0.739798
vt 0.845098 0.741644
vt 0.151172 0.953223
vt 0.093769 0.970218
vt 0.093769 0.864781
vt 0.000000 0.779456
vt 0.101100 0.739798
vt 0.964829 0.000000
vt 0.481934 0.779456
vt 0.450768 0.856814
vt 0.392616 0.767907
vt 0.904964 0.303299
vt 0.583033 0.739798
vt 0.151172 0.864781
vt 0.208575 0.881776
vt 0.151172 0.970218
vt 0.590917 0.708940
vt 0.684133 0.000000
vt 0.676249 0.708940
vt 0.108983 0.708940
vt 0.202199 0.000000
vt 0.194316 0.708940
vt 0.886853 0.712431
vt 0.867891 0.000000
vt 0.882170 0.000000
vt 0.377815 0.954842
vt 0.297099 0.933853
vt 0.377815 0.864781
vt 0.434096 0.952609
vt 0.377815 0.932206
vt 0.434096 0.864781
vt 0.208575 0.954842
vt 0.289290 0.933853
vt 0.293195 0.965783
vt 0.521544 0.924646
vt 0.490378 0.864781
vt 0.521544 0.864781
vt 0.490378 0.932206
vt 0.434096 0.952609
vt 0.434096 0.864781
vt 0.964829 0.303299
vt 0.904964 0.334465
vt 0.334465 0.856814
vt 0.093769 0.962205
vt -0.000000 1.000000
vt -0.000000 0.864781
vt 0.998733 0.899877
vt 0.904964 0.937671
vt 0.904964 0.802452
vt 0.874238 0.869107
vt 0.859981 0.869901
vt 0.859981 0.741644
vt 0.888495 0.869901
vt 0.874238 0.869107
vt 0.888495 0.741644
vt 0.904964 0.741644
vt 0.785232 0.741644
vt 0.845098 0.741644
vt 0.923651 0.334884
vt 0.928807 0.568431
vt 0.923651 0.568458
vt 0.928807 0.334857
vt 0.933764 0.568349
vt 0.933764 0.334775
vt 0.938333 0.568217
vt 0.938333 0.334643
vt 0.942338 0.568039
vt 0.822607 0.741644
vt 0.826612 0.974152
vt 0.822607 0.973743
vt 0.826612 0.742053
vt 0.831181 0.974456
vt 0.831181 0.742357
vt 0.836138 0.974643
vt 0.836138 0.742544
vt 0.841294 0.974706
vt 0.841294 0.742608
vt 0.846450 0.974643
vt 0.846450 0.742544
vt 0.851408 0.974456
vt 0.851408 0.742357
vt 0.855977 0.974152
vt 0.855977 0.742053
vt 0.859981 0.973743
vt 0.904964 0.568458
vt 0.908968 0.802210
vt 0.904964 0.802032
vt 0.908968 0.568636
vt 0.913537 0.802342
vt 0.913537 0.568769
vt 0.918495 0.802424
vt 0.918495 0.568850
vt 0.923651 0.802452
vt 0.923651 0.568878
vt 0.928807 0.802424
vt 0.928807 0.568850
vt 0.933764 0.802342
vt 0.933764 0.568769
vt 0.938333 0.802210
vt 0.938333 0.568636
vt 0.942338 0.802032
vt 0.789237 0.974152
vt 0.785232 0.973743
vt 0.789237 0.742053
vt 0.793806 0.974456
vt 0.793806 0.742357
vt 0.798764 0.974643
vt 0.798764 0.742544
vt 0.803920 0.974706
vt 0.803920 0.742608
vt 0.809075 0.974643
vt 0.809075 0.742544
vt 0.814033 0.974456
vt 0.814033 0.742357
vt 0.818602 0.974152
vt 0.818602 0.742053
vt 0.822607 0.973743
vt 0.908968 0.568217
vt 0.904964 0.568039
vt 0.908968 0.334643
vt 0.913538 0.568349
vt 0.913538 0.334775
vt 0.918495 0.568431
vt 0.918495 0.334857
vt 0.547844 0.891081
vt 0.522555 0.898753
vt 0.521544 0.893671
vt 0.521544 0.888491
vt 0.522555 0.883410
vt 0.524537 0.878623
vt 0.527415 0.874316
vt 0.531079 0.870652
vt 0.535386 0.867774
vt 0.540173 0.865791
vt 0.545254 0.864781
vt 0.550435 0.864781
vt 0.555516 0.865791
vt 0.560302 0.867774
vt 0.564610 0.870652
vt 0.568273 0.874316
vt 0.571151 0.878623
vt 0.573134 0.883410
vt 0.574145 0.888491
vt 0.574145 0.893671
vt 0.573134 0.898753
vt 0.571151 0.903539
vt 0.568273 0.907847
vt 0.564610 0.911510
vt 0.560302 0.914388
vt 0.555516 0.916371
vt 0.550435 0.917382
vt 0.545254 0.917382
vt 0.540173 0.916371
vt 0.535386 0.914388
vt 0.531079 0.911510
vt 0.527415 0.907847
vt 0.524537 0.903539
vt 0.600445 0.891081
vt 0.577138 0.903539
vt 0.575156 0.898753
vt 0.580016 0.907847
vt 0.583680 0.911510
vt 0.587987 0.914388
vt 0.592774 0.916371
vt 0.597855 0.917382
vt 0.603036 0.917382
vt 0.608117 0.916371
vt 0.612903 0.914388
vt 0.617211 0.911510
vt 0.620874 0.907847
vt 0.623752 0.903539
vt 0.625735 0.898753
vt 0.626746 0.893671
vt 0.626746 0.888491
vt 0.625735 0.883410
vt 0.623752 0.878623
vt 0.620874 0.874316
vt 0.617211 0.870652
vt 0.612903 0.867774
vt 0.608117 0.865791
vt 0.603036 0.864781
vt 0.597855 0.864781
vt 0.592774 0.865791
vt 0.587987 0.867774
vt 0.583680 0.870652
vt 0.580016 0.874315
vt 0.577138 0.878623
vt 0.575156 0.883410
vt 0.574145 0.888491
vt 0.574145 0.893671
vt 0.808026 0.000000
vt 0.000000 0.864781
vt 0.904964 0.000000
vt 0.481934 0.864781
vt 0.583033 0.000000
vt 0.101100 0.000000
vt 0.863209 0.712431
vt 0.293195 0.965783
vt 0.208575 0.864781
vt 0.490378 0.924646
vt 0.964829 0.334465
vt 0.942338 0.334465
vt 0.859981 0.741644
vt 0.942338 0.568458
vt 0.822607 0.741644
s 0
usemtl Material
f 3/1/1 14/2/1 13/3/1
f 49/4/2 2/5/2 4/6/2
f 49/4/3 4/6/3 3/7/3
f 49/4/4 1/8/4 2/5/4
f 49/4/5 3/7/5 1/8/5
f 45/9/6 15/10/6 46/11/6
f 2/12/7 11/13/7 9/14/7
f 4/15/8 7/16/8 3/1/8
f 1/17/9 6/18/9 2/12/9
f 11/19/10 21/19/10 22/19/10
f 6/20/11 8/21/11 11/22/11
f 4/15/12 11/23/12 8/24/12
f 2/5/13 10/25/13 4/6/13
f 14/26/14 26/27/14 28/28/14
f 3/7/15 12/29/15 1/8/15
f 1/17/16 14/26/16 5/30/16
f 7/31/17 5/32/17 14/33/17
f 6/19/10 44/19/10 42/19/10
f 46/34/18 16/35/18 47/36/18
f 48/37/19 17/38/19 45/39/19
f 48/40/20 16/41/20 18/42/20
f 8/19/10 43/19/10 44/19/10
f 5/19/10 42/19/10 19/19/10
f 5/19/10 43/19/10 19/19/10
f 22/43/21 24/44/21 25/45/21
f 9/19/10 22/19/10 20/19/10
f 10/19/10 20/19/10 21/19/10
f 24/46/22 23/47/22 25/48/22
f 22/49/23 23/50/23 20/51/23
f 20/52/24 24/53/24 21/54/24
f 26/55/25 27/56/25 28/57/25
f 13/58/26 26/59/26 12/29/26
f 14/2/27 27/60/27 13/3/27
f 29/19/10 39/19/10 38/19/10
f 29/19/10 40/19/10 38/19/10
f 32/19/10 39/19/10 41/19/10
f 31/19/10 41/19/10 40/19/10
f 34/61/28 33/62/28 37/63/28
f 35/64/29 36/65/29 37/66/29
f 36/67/30 34/68/30 37/69/30
f 33/70/31 35/71/31 37/72/31
f 35/19/10 38/19/10 40/19/10
f 34/19/10 38/19/10 39/19/10
f 36/19/10 40/19/10 41/19/10
f 34/19/10 41/19/10 39/19/10
f 6/19/32 48/40/32 8/73/32
f 8/24/33 45/39/33 7/16/33
f 5/30/34 47/36/34 6/18/34
f 7/74/35 46/11/35 5/75/35
f 85/76/36 53/77/36 52/78/36
f 84/79/37 54/80/37 53/77/37
f 86/81/38 55/82/38 54/80/38
f 87/83/39 56/84/39 55/82/39
f 88/85/40 57/86/40 56/87/40
f 89/88/41 58/89/41 57/86/41
f 90/90/42 59/91/42 58/89/42
f 91/92/43 60/93/43 59/91/43
f 92/94/44 61/95/44 60/93/44
f 93/96/45 62/97/45 61/95/45
f 94/98/46 63/99/46 62/97/46
f 95/100/47 64/101/47 63/99/47
f 96/102/48 65/103/48 64/104/48
f 97/105/49 66/106/49 65/103/49
f 98/107/50 67/108/50 66/106/50
f 99/109/51 68/110/51 67/108/51
f 100/111/52 69/112/52 68/110/52
f 101/113/53 70/114/53 69/112/53
f 102/115/54 71/116/54 70/114/54
f 103/117/55 72/118/55 71/116/55
f 104/74/56 73/119/56 72/120/56
f 105/121/57 74/122/57 73/119/57
f 106/123/58 75/124/58 74/122/58
f 107/125/59 76/126/59 75/124/59
f 108/127/60 77/128/60 76/126/60
f 109/129/61 78/130/61 77/128/61
f 110/131/62 79/132/62 78/130/62
f 111/133/63 80/134/63 79/132/63
f 112/59/64 81/135/64 80/136/64
f 113/137/65 82/138/65 81/135/65
f 114/139/66 83/140/66 82/138/66
f 115/141/67 52/78/67 83/140/67
f 50/142/68 52/143/68 53/144/68
f 50/142/68 53/144/68 54/145/68
f 50/142/68 54/145/68 55/146/68
f 50/142/68 55/146/68 56/147/68
f 50/142/68 56/147/68 57/148/68
f 50/142/68 57/148/68 58/149/68
f 50/142/68 58/149/68 59/150/68
f 50/142/68 59/150/68 60/151/68
f 50/142/68 60/151/68 61/152/68
f 50/142/68 61/152/68 62/153/68
f 50/142/68 62/153/68 63/154/68
f 50/142/68 63/154/68 64/155/68
f 50/142/68 64/155/68 65/156/68
f 50/142/68 65/156/68 66/157/68
f 50/142/68 66/157/68 67/158/68
f 50/142/68 67/158/68 68/159/68
f 50/142/68 68/159/68 69/160/68
f 50/142/68 69/160/68 70/161/68
f 50/142/68 70/161/68 71/162/68
f 50/142/68 71/162/68 72/163/68
f 50/142/68 72/163/68 73/164/68
f 50/142/68 73/164/68 74/165/68
f 50/142/68 74/165/68 75/166/68
f 50/142/68 75/166/68 76/167/68
f 50/142/68 76/167/68 77/168/68
f 50/142/68 77/168/68 78/169/68
f 50/142/68 78/169/68 79/170/68
f 50/142/68 79/170/68 80/171/68
f 50/142/68 80/171/68 81/172/68
f 50/142/68 81/172/68 82/173/68
f 50/142/68 82/173/68 83/174/68
f 50/142/68 83/174/68 52/143/68
f 51/175/10 84/176/10 85/177/10
f 51/175/10 86/178/10 84/176/10
f 51/175/10 87/179/10 86/178/10
f 51/175/10 88/180/10 87/179/10
f 51/175/10 89/181/10 88/180/10
f 51/175/10 90/182/10 89/181/10
f 51/175/10 91/183/10 90/182/10
f 51/175/10 92/184/10 91/183/10
f 51/175/10 93/185/10 92/184/10
f 51/175/10 94/186/10 93/185/10
f 51/175/10 95/187/10 94/186/10
f 51/175/10 96/188/10 95/187/10
f 51/175/10 97/189/10 96/188/10
f 51/175/10 98/190/10 97/189/10
f 51/175/10 99/191/10 98/190/10
f 51/175/10 100/192/10 99/191/10
f 51/175/10 101/193/10 100/192/10
f 51/175/10 102/194/10 101/193/10
f 51/175/10 103/195/10 102/194/10
f 51/175/10 104/196/10 103/195/10
f 51/175/10 105/197/10 104/196/10
f 51/175/10 106/198/10 105/197/10
f 51/175/10 107/199/10 106/198/10
f 51/175/10 108/200/10 107/199/10
f 51/175/10 109/201/10 108/200/10
f 51/175/10 110/202/10 109/201/10
f 51/175/10 111/203/10 110/202/10
f 51/175/10 112/204/10 111/203/10
f 51/175/10 113/205/10 112/204/10
f 51/175/10 114/206/10 113/205/10
f 51/175/10 115/207/10 114/206/10
f 51/175/10 85/177/10 115/207/10
f 3/1/69 7/16/69 14/2/69
f 45/9/6 17/208/6 15/10/6
f 2/12/70 6/18/70 11/13/70
f 4/15/8 8/24/8 7/16/8
f 1/17/9 5/30/9 6/18/9
f 11/19/10 10/19/10 21/19/10
f 4/15/71 10/209/71 11/23/71
f 2/5/13 9/210/13 10/25/13
f 14/26/72 12/211/72 26/27/72
f 3/7/15 13/58/15 12/29/15
f 1/17/73 12/211/73 14/26/73
f 6/19/10 8/19/10 44/19/10
f 46/34/18 15/212/18 16/35/18
f 48/37/19 18/213/19 17/38/19
f 48/40/20 47/214/20 16/41/20
f 8/19/10 7/19/10 43/19/10
f 5/19/10 6/19/10 42/19/10
f 5/19/10 7/19/10 43/19/10
f 22/43/74 21/215/74 24/44/74
f 9/19/10 11/19/10 22/19/10
f 10/19/10 9/19/10 20/19/10
f 22/49/75 25/216/75 23/50/75
f 20/52/24 23/217/24 24/53/24
f 13/58/26 27/218/26 26/59/26
f 14/2/76 28/28/76 27/60/76
f 29/19/10 30/19/10 39/19/10
f 29/19/10 31/19/10 40/19/10
f 32/19/10 30/19/10 39/19/10
f 31/19/10 32/19/10 41/19/10
f 35/19/10 33/19/10 38/19/10
f 34/19/10 33/19/10 38/19/10
f 36/19/10 35/19/10 40/19/10
f 34/19/10 36/19/10 41/19/10
f 6/19/32 47/214/32 48/40/32
f 8/24/33 48/37/33 45/39/33
f 5/30/34 46/34/34 47/36/34
f 7/74/35 45/9/35 46/11/35
f 85/76/36 84/79/36 53/77/36
f 84/79/37 86/81/37 54/80/37
f 86/81/38 87/83/38 55/82/38
f 87/83/39 88/219/39 56/84/39
f 88/85/40 89/88/40 57/86/40
f 89/88/41 90/90/41 58/89/41
f 90/90/42 91/92/42 59/91/42
f 91/92/43 92/94/43 60/93/43
f 92/94/44 93/96/44 61/95/44
f 93/96/45 94/98/45 62/97/45
f 94/98/46 95/100/46 63/99/46
f 95/100/47 96/220/47 64/101/47
f 96/102/48 97/105/48 65/103/48
f 97/105/49 98/107/49 66/106/49
f 98/107/50 99/109/50 67/108/50
f 99/109/51 100/111/51 68/110/51
f 100/111/52 101/113/52 69/112/52
f 101/113/53 102/115/53 70/114/53
f 102/115/54 103/117/54 71/116/54
f 103/117/55 104/221/55 72/118/55
f 104/74/56 105/121/56 73/119/56
f 105/121/57 106/123/57 74/122/57
f 106/123/58 107/125/58 75/124/58
f 107/125/59 108/127/59 76/126/59
f 108/127/60 109/129/60 77/128/60
f 109/129/61 110/131/61 78/130/61
f 110/131/62 111/133/62 79/132/62
f 111/133/63 112/222/63 80/134/63
f 112/59/64 113/137/64 81/135/64
f 113/137/65 114/139/65 82/138/65
f 114/139/66 115/141/66 83/140/66
f 115/141/67 85/76/67 52/78/67
