# Blender 4.0.2
# www.blender.org
mtllib Protagonista12.mtl
o Cube
v 0.428274 -0.373640 -0.528883
v 0.430078 -0.422365 -0.387029
v 0.344902 -0.345008 -0.517988
v 0.346706 -0.393732 -0.376134
v 0.467162 -0.273329 -0.494923
v 0.468966 -0.322054 -0.353069
v 0.383790 -0.244697 -0.484028
v 0.385594 -0.293421 -0.342174
v 0.406350 -0.536948 -0.267471
v 0.322979 -0.508316 -0.256576
v 0.406723 -0.414143 -0.225295
v 0.400938 -0.390775 -0.693035
v 0.317566 -0.362143 -0.682139
v 0.401310 -0.267970 -0.650858
v 0.815271 0.717393 -0.159056
v 0.817075 0.668669 -0.017201
v 0.795385 0.724222 -0.156457
v 0.797189 0.675498 -0.014603
v 0.467162 -0.273329 -0.494923
v 0.406350 -0.536948 -0.267471
v 0.322979 -0.508316 -0.256576
v 0.406723 -0.414143 -0.225295
v 0.411012 -0.541377 -0.220156
v 0.327641 -0.512744 -0.209261
v 0.414270 -0.441834 -0.094774
v 0.404488 -0.365163 -0.733178
v 0.321116 -0.336531 -0.722283
v 0.405669 -0.209569 -0.770982
v 0.815271 0.717393 -0.159056
v 0.817075 0.668669 -0.017201
v 0.795385 0.724222 -0.156457
v 0.797189 0.675498 -0.014603
v 0.815271 0.717393 -0.159056
v 0.817075 0.668669 -0.017201
v 0.795385 0.724222 -0.156457
v 0.797189 0.675498 -0.014603
v 0.870415 0.862009 -0.030777
v 0.815271 0.717393 -0.159056
v 0.817075 0.668669 -0.017201
v 0.795385 0.724222 -0.156457
v 0.797189 0.675498 -0.014603
v 0.468966 -0.322054 -0.353069
v 0.383790 -0.244697 -0.484028
v 0.385594 -0.293421 -0.342174
v 0.423897 -0.219129 -0.463387
v 0.456823 -0.230437 -0.467690
v 0.458346 -0.271562 -0.347959
v 0.425419 -0.260254 -0.343656
v 0.386389 -0.386527 -0.453470
v 0.267712 -0.692825 -0.557169
v 0.387342 -0.384240 -0.452697
v 0.267240 -0.680088 -0.594250
v 0.274429 -0.682799 -0.594476
v 0.281360 -0.685895 -0.593268
v 0.287767 -0.689257 -0.590673
v 0.293403 -0.692757 -0.586790
v 0.298051 -0.696259 -0.581769
v 0.301534 -0.699629 -0.575803
v 0.303717 -0.702737 -0.569120
v 0.304516 -0.705465 -0.561978
v 0.303901 -0.707707 -0.554652
v 0.301895 -0.709377 -0.547422
v 0.298575 -0.710411 -0.540567
v 0.294070 -0.710769 -0.534349
v 0.288551 -0.710437 -0.529009
v 0.282232 -0.709429 -0.524751
v 0.275354 -0.707783 -0.521738
v 0.268183 -0.705562 -0.520087
v 0.260994 -0.702851 -0.519862
v 0.254063 -0.699755 -0.521070
v 0.247656 -0.696393 -0.523665
v 0.242020 -0.692894 -0.527547
v 0.237372 -0.689391 -0.532568
v 0.233889 -0.686021 -0.538535
v 0.231706 -0.682913 -0.545217
v 0.230907 -0.680185 -0.552359
v 0.231522 -0.677943 -0.559686
v 0.233528 -0.676273 -0.566915
v 0.236848 -0.675239 -0.573771
v 0.241354 -0.674881 -0.579988
v 0.246872 -0.675213 -0.585328
v 0.253191 -0.676221 -0.589587
v 0.260069 -0.677867 -0.592599
v 0.394060 -0.374214 -0.490004
v 0.386871 -0.371503 -0.489778
v 0.400991 -0.377310 -0.488796
v 0.407398 -0.380672 -0.486201
v 0.413034 -0.384171 -0.482318
v 0.417682 -0.387673 -0.477297
v 0.421165 -0.391043 -0.471331
v 0.423348 -0.394152 -0.464648
v 0.424147 -0.396880 -0.457507
v 0.423532 -0.399122 -0.450180
v 0.421526 -0.400792 -0.442950
v 0.418206 -0.401825 -0.436095
v 0.413700 -0.402184 -0.429877
v 0.408182 -0.401852 -0.424537
v 0.401863 -0.400844 -0.420279
v 0.394985 -0.399198 -0.417267
v 0.387814 -0.396976 -0.415616
v 0.380625 -0.394266 -0.415390
v 0.373694 -0.391170 -0.416598
v 0.367287 -0.387808 -0.419193
v 0.361651 -0.384308 -0.423076
v 0.357003 -0.380806 -0.428097
v 0.353520 -0.377436 -0.434063
v 0.351337 -0.374328 -0.440745
v 0.350538 -0.371600 -0.447887
v 0.351153 -0.369358 -0.455214
v 0.353159 -0.367688 -0.462444
v 0.356479 -0.366654 -0.469299
v 0.360984 -0.366296 -0.475516
v 0.366503 -0.366627 -0.480857
v 0.372822 -0.367636 -0.485115
v 0.379700 -0.369282 -0.488127
vn -0.7555 0.6526 0.0577
vn -0.3439 -0.9022 -0.2605
vn -0.4112 -0.8637 -0.2914
vn -0.2765 -0.9100 -0.3090
vn -0.3449 -0.8745 -0.3410
vn -0.0158 0.3150 -0.9490
vn 0.9880 -0.0529 0.1454
vn -0.9386 0.3224 0.1227
vn 0.9386 -0.3224 -0.1227
vn 0.3447 0.8891 0.3010
vn 0.3212 0.6871 0.6517
vn -0.8966 0.2169 0.3861
vn -0.3144 -0.6534 -0.6886
vn 0.9993 0.0014 0.0369
vn -0.3037 -0.9411 0.1488
vn 0.8966 -0.2169 -0.3861
vn 0.3116 0.9450 -0.0991
vn 0.9409 -0.3165 -0.1207
vn -0.9364 0.3282 0.1246
vn 0.0082 -0.3346 0.9423
vn -0.7533 0.6331 0.1779
vn -0.1834 -0.7676 0.6142
vn 0.9950 0.0297 -0.0953
vn -0.3308 -0.9421 -0.0556
vn -0.2033 -0.2297 -0.9518
vn -0.3368 -0.7800 -0.5274
vn -0.7601 0.5762 0.3004
vn 0.9567 -0.2713 -0.1054
vn -0.9175 0.3723 0.1396
vn 0.1399 0.0309 0.9897
vn 0.1176 0.6335 -0.7647
vn 0.1025 -0.0788 0.9916
vn -0.6114 0.7460 0.2640
vn 0.9782 0.2000 0.0563
vn 0.0793 0.5479 -0.8328
vn 0.0800 0.2917 -0.9532
vn 0.2610 0.2173 -0.9406
vn 0.4319 0.1345 -0.8919
vn 0.5862 0.0466 -0.8088
vn 0.7179 -0.0431 -0.6948
vn 0.8221 -0.1312 -0.5540
vn 0.8947 -0.2142 -0.3919
vn 0.9329 -0.2890 -0.2148
vn 0.9353 -0.3526 -0.0294
vn 0.9017 -0.4028 0.1571
vn 0.8335 -0.4374 0.3376
vn 0.7332 -0.4553 0.5051
vn 0.6048 -0.4556 0.6532
vn 0.4531 -0.4384 0.7762
vn 0.2840 -0.4044 0.8694
vn 0.1040 -0.3549 0.9291
vn -0.0800 -0.2917 0.9532
vn -0.2610 -0.2173 0.9406
vn -0.4319 -0.1345 0.8919
vn -0.5862 -0.0466 0.8088
vn -0.7179 0.0431 0.6948
vn -0.8221 0.1312 0.5540
vn -0.8947 0.2142 0.3919
vn -0.9329 0.2890 0.2148
vn -0.9353 0.3526 0.0294
vn -0.9017 0.4028 -0.1571
vn -0.8335 0.4374 -0.3376
vn -0.7332 0.4553 -0.5051
vn -0.6048 0.4556 -0.6532
vn -0.4531 0.4384 -0.7762
vn -0.2840 0.4044 -0.8694
vn -0.1040 0.3549 -0.9291
vn -0.3447 -0.8891 -0.3010
vn -0.9034 0.4013 -0.1509
vn 0.9034 -0.4013 0.1509
vn -0.7515 0.5445 0.3727
vn 0.9971 -0.0273 0.0707
vn 0.9840 0.0553 -0.1696
vn -0.7622 0.6332 0.1344
vn 0.9982 0.0316 -0.0510
vn -0.7522 0.6029 0.2658
vt 0.202199 0.815245
vt 0.303299 0.779456
vt 0.303299 0.864781
vt 0.934897 0.151649
vt 0.904964 0.101100
vt 0.964829 0.101100
vt 0.964829 0.202199
vt 0.904964 0.202199
vt 0.803344 0.712431
vt 0.822305 0.000000
vt 0.826987 0.712431
vt 0.684133 0.815245
vt 0.785232 0.779456
vt 0.785232 0.864781
vt 0.101100 0.815245
vt 0.202199 0.739798
vt 0.583033 0.815245
vt 0.684133 0.739798
vt 0.845098 0.741644
vt 0.151172 0.953223
vt 0.093769 0.970218
vt 0.093769 0.864781
vt 0.000000 0.779456
vt 0.101100 0.739798
vt 0.964829 0.000000
vt 0.481934 0.779456
vt 0.450768 0.856814
vt 0.392616 0.767907
vt 0.904964 0.303299
vt 0.583033 0.739798
vt 0.151172 0.864781
vt 0.208575 0.881776
vt 0.151172 0.970218
vt 0.590917 0.708940
vt 0.684133 0.000000
vt 0.676249 0.708940
vt 0.108983 0.708940
vt 0.202199 0.000000
vt 0.194316 0.708940
vt 0.886853 0.712431
vt 0.867891 0.000000
vt 0.882170 0.000000
vt 0.377815 0.954842
vt 0.297099 0.933853
vt 0.377815 0.864781
vt 0.434096 0.952609
vt 0.377815 0.932206
vt 0.434096 0.864781
vt 0.208575 0.954842
vt 0.289290 0.933853
vt 0.293195 0.965783
vt 0.521544 0.924646
vt 0.490378 0.864781
vt 0.521544 0.864781
vt 0.490378 0.932206
vt 0.434096 0.952609
vt 0.434096 0.864781
vt 0.964829 0.303299
vt 0.904964 0.334465
vt 0.334465 0.856814
vt 0.093769 0.962205
vt -0.000000 1.000000
vt -0.000000 0.864781
vt 0.998733 0.899877
vt 0.904964 0.937671
vt 0.904964 0.802452
vt 0.874238 0.869107
vt 0.859981 0.869901
vt 0.859981 0.741644
vt 0.888495 0.869901
vt 0.874238 0.869107
vt 0.888495 0.741644
vt 0.904964 0.741644
vt 0.785232 0.741644
vt 0.845098 0.741644
vt 0.923651 0.334884
vt 0.928807 0.568431
vt 0.923651 0.568458
vt 0.928807 0.334857
vt 0.933764 0.568349
vt 0.933764 0.334775
vt 0.938333 0.568217
vt 0.938333 0.334643
vt 0.942338 0.568039
vt 0.822607 0.741644
vt 0.826612 0.974152
vt 0.822607 0.973743
vt 0.826612 0.742053
vt 0.831181 0.974456
vt 0.831181 0.742357
vt 0.836138 0.974643
vt 0.836138 0.742544
vt 0.841294 0.974706
vt 0.841294 0.742608
vt 0.846450 0.974643
vt 0.846450 0.742544
vt 0.851408 0.974456
vt 0.851408 0.742357
vt 0.855977 0.974152
vt 0.855977 0.742053
vt 0.859981 0.973743
vt 0.904964 0.568458
vt 0.908968 0.802210
vt 0.904964 0.802032
vt 0.908968 0.568636
vt 0.913537 0.802342
vt 0.913537 0.568769
vt 0.918495 0.802424
vt 0.918495 0.568850
vt 0.923651 0.802452
vt 0.923651 0.568878
vt 0.928807 0.802424
vt 0.928807 0.568850
vt 0.933764 0.802342
vt 0.933764 0.568769
vt 0.938333 0.802210
vt 0.938333 0.568636
vt 0.942338 0.802032
vt 0.789237 0.974152
vt 0.785232 0.973743
vt 0.789237 0.742053
vt 0.793806 0.974456
vt 0.793806 0.742357
vt 0.798764 0.974643
vt 0.798764 0.742544
vt 0.803920 0.974706
vt 0.803920 0.742608
vt 0.809075 0.974643
vt 0.809075 0.742544
vt 0.814033 0.974456
vt 0.814033 0.742357
vt 0.818602 0.974152
vt 0.818602 0.742053
vt 0.822607 0.973743
vt 0.908968 0.568217
vt 0.904964 0.568039
vt 0.908968 0.334643
vt 0.913538 0.568349
vt 0.913538 0.334775
vt 0.918495 0.568431
vt 0.918495 0.334857
vt 0.547844 0.891081
vt 0.522555 0.898753
vt 0.521544 0.893671
vt 0.521544 0.888491
vt 0.522555 0.883410
vt 0.524537 0.878623
vt 0.527415 0.874316
vt 0.531079 0.870652
vt 0.535386 0.867774
vt 0.540173 0.865791
vt 0.545254 0.864781
vt 0.550435 0.864781
vt 0.555516 0.865791
vt 0.560302 0.867774
vt 0.564610 0.870652
vt 0.568273 0.874316
vt 0.571151 0.878623
vt 0.573134 0.883410
vt 0.574145 0.888491
vt 0.574145 0.893671
vt 0.573134 0.898753
vt 0.571151 0.903539
vt 0.568273 0.907847
vt 0.564610 0.911510
vt 0.560302 0.914388
vt 0.555516 0.916371
vt 0.550435 0.917382
vt 0.545254 0.917382
vt 0.540173 0.916371
vt 0.535386 0.914388
vt 0.531079 0.911510
vt 0.527415 0.907847
vt 0.524537 0.903539
vt 0.600445 0.891081
vt 0.577138 0.903539
vt 0.575156 0.898753
vt 0.580016 0.907847
vt 0.583680 0.911510
vt 0.587987 0.914388
vt 0.592774 0.916371
vt 0.597855 0.917382
vt 0.603036 0.917382
vt 0.608117 0.916371
vt 0.612903 0.914388
vt 0.617211 0.911510
vt 0.620874 0.907847
vt 0.623752 0.903539
vt 0.625735 0.898753
vt 0.626746 0.893671
vt 0.626746 0.888491
vt 0.625735 0.883410
vt 0.623752 0.878623
vt 0.620874 0.874316
vt 0.617211 0.870652
vt 0.612903 0.867774
vt 0.608117 0.865791
vt 0.603036 0.864781
vt 0.597855 0.864781
vt 0.592774 0.865791
vt 0.587987 0.867774
vt 0.583680 0.870652
vt 0.580016 0.874315
vt 0.577138 0.878623
vt 0.575156 0.883410
vt 0.574145 0.888491
vt 0.574145 0.893671
vt 0.808026 0.000000
vt 0.000000 0.864781
vt 0.904964 0.000000
vt 0.481934 0.864781
vt 0.583033 0.000000
vt 0.101100 0.000000
vt 0.863209 0.712431
vt 0.293195 0.965783
vt 0.208575 0.864781
vt 0.490378 0.924646
vt 0.964829 0.334465
vt 0.942338 0.334465
vt 0.859981 0.741644
vt 0.942338 0.568458
vt 0.822607 0.741644
s 0
usemtl Material
f 3/1/1 14/2/1 13/3/1
f 49/4/2 2/5/2 4/6/2
f 49/4/3 4/6/3 3/7/3
f 49/4/4 1/8/4 2/5/4
f 49/4/5 3/7/5 1/8/5
f 45/9/6 15/10/6 46/11/6
f 2/12/7 11/13/7 9/14/7
f 4/15/8 7/16/8 3/1/8
f 1/17/9 6/18/9 2/12/9
f 11/19/10 21/19/10 22/19/10
f 6/20/11 8/21/11 11/22/11
f 4/15/12 11/23/12 8/24/12
f 2/5/13 10/25/13 4/6/13
f 14/26/14 26/27/14 28/28/14
f 3/7/15 12/29/15 1/8/15
f 1/17/16 14/26/16 5/30/16
f 7/31/17 5/32/17 14/33/17
f 6/19/10 44/19/10 42/19/10
f 46/34/18 16/35/18 47/36/18
f 48/37/19 17/38/19 45/39/19
f 48/40/20 16/41/20 18/42/20
f 8/19/10 43/19/10 44/19/10
f 5/19/10 42/19/10 19/19/10
f 5/19/10 43/19/10 19/19/10
f 22/43/21 24/44/21 25/45/21
f 9/19/10 22/19/10 20/19/10
f 10/19/10 20/19/10 21/19/10
f 24/46/22 23/47/22 25/48/22
f 22/49/23 23/50/23 20/51/23
f 20/52/24 24/53/24 21/54/24
f 26/55/25 27/56/25 28/57/25
f 13/58/26 26/59/26 12/29/26
f 14/2/27 27/60/27 13/3/27
f 29/19/10 39/19/10 38/19/10
f 29/19/10 40/19/10 38/19/10
f 32/19/10 39/19/10 41/19/10
f 31/19/10 41/19/10 40/19/10
f 34/61/28 33/62/28 37/63/28
f 35/64/29 36/65/29 37/66/29
f 36/67/30 34/68/30 37/69/30
f 33/70/31 35/71/31 37/72/31
f 35/19/10 38/19/10 40/19/10
f 34/19/10 38/19/10 39/19/10
f 36/19/10 40/19/10 41/19/10
f 34/19/10 41/19/10 39/19/10
f 6/19/32 48/40/32 8/73/32
f 8/24/33 45/39/33 7/16/33
f 5/30/34 47/36/34 6/18/34
f 7/74/35 46/11/35 5/75/35
f 85/76/36 53/77/36 52/78/36
f 84/79/37 54/80/37 53/77/37
f 86/81/38 55/82/38 54/80/38
f 87/83/39 56/84/39 55/82/39
f 88/85/40 57/86/40 56/87/40
f 89/88/41 58/89/41 57/86/41
f 90/90/42 59/91/42 58/89/42
f 91/92/43 60/93/43 59/91/43
f 92/94/44 61/95/44 60/93/44
f 93/96/45 62/97/45 61/95/45
f 94/98/46 63/99/46 62/97/46
f 95/100/47 64/101/47 63/99/47
f 96/102/48 65/103/48 64/104/48
f 97/105/49 66/106/49 65/103/49
f 98/107/50 67/108/50 66/106/50
f 99/109/51 68/110/51 67/108/51
f 100/111/52 69/112/52 68/110/52
f 101/113/53 70/114/53 69/112/53
f 102/115/54 71/116/54 70/114/54
f 103/117/55 72/118/55 71/116/55
f 104/74/56 73/119/56 72/120/56
f 105/121/57 74/122/57 73/119/57
f 106/123/58 75/124/58 74/122/58
f 107/125/59 76/126/59 75/124/59
f 108/127/60 77/128/60 76/126/60
f 109/129/61 78/130/61 77/128/61
f 110/131/62 79/132/62 78/130/62
f 111/133/63 80/134/63 79/132/63
f 112/59/64 81/135/64 80/136/64
f 113/137/65 82/138/65 81/135/65
f 114/139/66 83/140/66 82/138/66
f 115/141/67 52/78/67 83/140/67
f 50/142/68 52/143/68 53/144/68
f 50/142/68 53/144/68 54/145/68
f 50/142/68 54/145/68 55/146/68
f 50/142/68 55/146/68 56/147/68
f 50/142/68 56/147/68 57/148/68
f 50/142/68 57/148/68 58/149/68
f 50/142/68 58/149/68 59/150/68
f 50/142/68 59/150/68 60/151/68
f 50/142/68 60/151/68 61/152/68
f 50/142/68 61/152/68 62/153/68
f 50/142/68 62/153/68 63/154/68
f 50/142/68 63/154/68 64/155/68
f 50/142/68 64/155/68 65/156/68
f 50/142/68 65/156/68 66/157/68
f 50/142/68 66/157/68 67/158/68
f 50/142/68 67/158/68 68/159/68
f 50/142/68 68/159/68 69/160/68
f 50/142/68 69/160/68 70/161/68
f 50/142/68 70/161/68 71/162/68
f 50/142/68 71/162/68 72/163/68
f 50/142/68 72/163/68 73/164/68
f 50/142/68 73/164/68 74/165/68
f 50/142/68 74/165/68 75/166/68
f 50/142/68 75/166/68 76/167/68
f 50/142/68 76/167/68 77/168/68
f 50/142/68 77/168/68 78/169/68
f 50/142/68 78/169/68 79/170/68
f 50/142/68 79/170/68 80/171/68
f 50/142/68 80/171/68 81/172/68
f 50/142/68 81/172/68 82/173/68
f 50/142/68 82/173/68 83/174/68
f 50/142/68 83/174/68 52/143/68
f 51/175/10 84/176/10 85/177/10
f 51/175/10 86/178/10 84/176/10
f 51/175/10 87/179/10 86/178/10
f 51/175/10 88/180/10 87/179/10
f 51/175/10 89/181/10 88/180/10
f 51/175/10 90/182/10 89/181/10
f 51/175/10 91/183/10 90/182/10
f 51/175/10 92/184/10 91/183/10
f 51/175/10 93/185/10 92/184/10
f 51/175/10 94/186/10 93/185/10
f 51/175/10 95/187/10 94/186/10
f 51/175/10 96/188/10 95/187/10
f 51/175/10 97/189/10 96/188/10
f 51/175/10 98/190/10 97/189/10
f 51/175/10 99/191/10 98/190/10
f 51/175/10 100/192/10 99/191/10
f 51/175/10 101/193/10 100/192/10
f 51/175/10 102/194/10 101/193/10
f 51/175/10 103/195/10 102/194/10
f 51/175/10 104/196/10 103/195/10
f 51/175/10 105/197/10 104/196/10
f 51/175/10 106/198/10 105/197/10
f 51/175/10 107/199/10 106/198/10
f 51/175/10 108/200/10 107/199/10
f 51/175/10 109/201/10 108/200/10
f 51/175/10 110/202/10 109/201/10
f 51/175/10 111/203/10 110/202/10
f 51/175/10 112/204/10 111/203/10
f 51/175/10 113/205/10 112/204/10
f 51/175/10 114/206/10 113/205/10
f 51/175/10 115/207/10 114/206/10
f 51/175/10 85/177/10 115/207/10
f 3/1/69 7/16/69 14/2/69
f 45/9/6 17/208/6 15/10/6
f 2/12/70 6/18/70 11/13/70
f 4/15/8 8/24/8 7/16/8
f 1/17/9 5/30/9 6/18/9
f 11/19/10 10/19/10 21/19/10
f 4/15/71 10/209/71 11/23/71
f 2/5/13 9/210/13 10/25/13
f 14/26/72 12/211/72 26/27/72
f 3/7/15 13/58/15 12/29/15
f 1/17/73 12/211/73 14/26/73
f 6/19/10 8/19/10 44/19/10
f 46/34/18 15/212/18 16/35/18
f 48/37/19 18/213/19 17/38/19
f 48/40/20 47/214/20 16/41/20
f 8/19/10 7/19/10 43/19/10
f 5/19/10 6/19/10 42/19/10
f 5/19/10 7/19/10 43/19/10
f 22/43/74 21/215/74 24/44/74
f 9/19/10 11/19/10 22/19/10
f 10/19/10 9/19/10 20/19/10
f 22/49/75 25/216/75 23/50/75
f 20/52/24 23/217/24 24/53/24
f 13/58/26 27/218/26 26/59/26
f 14/2/76 28/28/76 27/60/76
f 29/19/10 30/19/10 39/19/10
f 29/19/10 31/19/10 40/19/10
f 32/19/10 30/19/10 39/19/10
f 31/19/10 32/19/10 41/19/10
f 35/19/10 33/19/10 38/19/10
f 34/19/10 33/19/10 38/19/10
f 36/19/10 35/19/10 40/19/10
f 34/19/10 36/19/10 41/19/10
f 6/19/32 47/214/32 48/40/32
f 8/24/33 48/37/33 45/39/33
f 5/30/34 46/34/34 47/36/34
f 7/74/35 45/9/35 46/11/35
f 85/76/36 84/79/36 53/77/36
f 84/79/37 86/81/37 54/80/37
f 86/81/38 87/83/38 55/82/38
f 87/83/39 88/219/39 56/84/39
f 88/85/40 89/88/40 57/86/40
f 89/88/41 90/90/41 58/89/41
f 90/90/42 91/92/42 59/91/42
f 91/92/43 92/94/43 60/93/43
f 92/94/44 93/96/44 61/95/44
f 93/96/45 94/98/45 62/97/45
f 94/98/46 95/100/46 63/99/46
f 95/100/47 96/220/47 64/101/47
f 96/102/48 97/105/48 65/103/48
f 97/105/49 98/107/49 66/106/49
f 98/107/50 99/109/50 67/108/50
f 99/109/51 100/111/51 68/110/51
f 100/111/52 101/113/52 69/112/52
f 101/113/53 102/115/53 70/114/53
f 102/115/54 103/117/54 71/116/54
f 103/117/55 104/221/55 72/118/55
f 104/74/56 105/121/56 73/119/56
f 105/121/57 106/123/57 74/122/57
f 106/123/58 107/125/58 75/124/58
f 107/125/59 108/127/59 76/126/59
f 108/127/60 109/129/60 77/128/60
f 109/129/61 110/131/61 78/130/61
f 110/131/62 111/133/62 79/132/62
f 111/133/63 112/222/63 80/134/63
f 112/59/64 113/137/64 81/135/64
f 113/137/65 114/139/65 82/138/65
f 114/139/66 115/141/66 83/140/66
f 115/141/67 85/76/67 52/78/67
