# Blender 4.0.2
# www.blender.org
mtllib Protagonista16.mtl
o Cube
v 0.422290 -0.424177 -0.510706
v 0.437373 -0.454012 -0.364479
v 0.339682 -0.394931 -0.496218
v 0.354765 -0.424766 -0.349991
v 0.462162 -0.320040 -0.493572
v 0.477245 -0.349875 -0.347345
v 0.379554 -0.290795 -0.479084
v 0.394637 -0.320630 -0.332857
v 0.426278 -0.552218 -0.229502
v 0.343670 -0.522973 -0.215014
v 0.428097 -0.424968 -0.203726
v 0.381029 -0.462713 -0.668183
v 0.298421 -0.433468 -0.653695
v 0.382848 -0.335463 -0.642408
v 0.820176 0.708287 -0.320688
v 0.835258 0.678452 -0.174461
v 0.800472 0.715262 -0.317232
v 0.815555 0.685427 -0.171005
v 0.462162 -0.320040 -0.493572
v 0.426278 -0.552218 -0.229502
v 0.343670 -0.522973 -0.215014
v 0.428097 -0.424968 -0.203726
v 0.435138 -0.550419 -0.182615
v 0.352529 -0.521174 -0.168127
v 0.447525 -0.435386 -0.071918
v 0.380590 -0.442520 -0.711451
v 0.297982 -0.413274 -0.696964
v 0.375627 -0.293164 -0.768970
v 0.820176 0.708287 -0.320688
v 0.835258 0.678452 -0.174461
v 0.800472 0.715262 -0.317232
v 0.815555 0.685427 -0.171005
v 0.820176 0.708287 -0.320688
v 0.835258 0.678452 -0.174461
v 0.800472 0.715262 -0.317232
v 0.815555 0.685427 -0.171005
v 0.883675 0.868735 -0.217566
v 0.820176 0.708287 -0.320688
v 0.835258 0.678452 -0.174461
v 0.800472 0.715262 -0.317232
v 0.815555 0.685427 -0.171005
v 0.477245 -0.349875 -0.347345
v 0.379554 -0.290795 -0.479084
v 0.394637 -0.320630 -0.332857
v 0.420838 -0.262489 -0.465568
v 0.453463 -0.274039 -0.471290
v 0.466194 -0.299221 -0.347868
v 0.433569 -0.287671 -0.342146
v 0.387399 -0.427420 -0.430834
v 0.265716 -0.745401 -0.483161
v 0.388374 -0.425046 -0.430450
v 0.261773 -0.737602 -0.521385
v 0.268963 -0.740270 -0.521898
v 0.276029 -0.743136 -0.520923
v 0.282698 -0.746089 -0.518497
v 0.288714 -0.749015 -0.514712
v 0.293847 -0.751803 -0.509715
v 0.297899 -0.754344 -0.503698
v 0.300713 -0.756542 -0.496891
v 0.302183 -0.758311 -0.489557
v 0.302252 -0.759585 -0.481977
v 0.300916 -0.760313 -0.474442
v 0.298228 -0.760468 -0.467243
v 0.294290 -0.760045 -0.460655
v 0.289254 -0.759058 -0.454932
v 0.283314 -0.757547 -0.450294
v 0.276697 -0.755569 -0.446919
v 0.269659 -0.753200 -0.444937
v 0.262468 -0.750531 -0.444424
v 0.255403 -0.747665 -0.445399
v 0.248734 -0.744713 -0.447826
v 0.242717 -0.741786 -0.451610
v 0.237585 -0.738999 -0.456607
v 0.233533 -0.736458 -0.462624
v 0.230718 -0.734260 -0.469431
v 0.229248 -0.732490 -0.476765
v 0.229180 -0.731217 -0.484345
v 0.230515 -0.730489 -0.491880
v 0.233204 -0.730333 -0.499079
v 0.237142 -0.730757 -0.505667
v 0.242177 -0.731744 -0.511390
v 0.248118 -0.733255 -0.516028
v 0.254734 -0.735233 -0.519403
v 0.391622 -0.419916 -0.469188
v 0.384432 -0.417247 -0.468674
v 0.398687 -0.422781 -0.468212
v 0.405356 -0.425734 -0.465786
v 0.411373 -0.428660 -0.462001
v 0.416505 -0.431448 -0.457004
v 0.420557 -0.433989 -0.450987
v 0.423372 -0.436187 -0.444180
v 0.424842 -0.437956 -0.436846
v 0.424910 -0.439230 -0.429266
v 0.423575 -0.439958 -0.421731
v 0.420886 -0.440113 -0.414532
v 0.416948 -0.439690 -0.407944
v 0.411913 -0.438703 -0.402221
v 0.405972 -0.437192 -0.397583
v 0.399356 -0.435214 -0.394208
v 0.392317 -0.432845 -0.392226
v 0.385127 -0.430176 -0.391713
v 0.378061 -0.427311 -0.392688
v 0.371392 -0.424358 -0.395115
v 0.365376 -0.421432 -0.398899
v 0.360243 -0.418644 -0.403896
v 0.356192 -0.416103 -0.409914
v 0.353377 -0.413905 -0.416720
v 0.351907 -0.412136 -0.424055
v 0.351838 -0.410862 -0.431635
v 0.353174 -0.410134 -0.439169
v 0.355862 -0.409978 -0.446369
v 0.359800 -0.410402 -0.452956
v 0.364836 -0.411389 -0.458679
v 0.370776 -0.412900 -0.463317
v 0.377393 -0.414878 -0.466692
vn -0.7593 0.6495 0.0400
vn -0.3488 -0.9307 -0.1103
vn -0.4192 -0.8971 -0.1398
vn -0.2858 -0.9443 -0.1632
vn -0.3574 -0.9138 -0.1932
vn -0.1044 0.1887 -0.9765
vn 0.9977 -0.0269 0.0624
vn -0.9300 0.3293 0.1631
vn 0.9300 -0.3293 -0.1631
vn 0.3534 0.9231 0.1519
vn 0.3643 0.7683 0.5264
vn -0.8632 0.2592 0.4332
vn -0.3614 -0.7396 -0.5678
vn 0.9985 0.0129 -0.0527
vn -0.2724 -0.9157 0.2954
vn 0.8632 -0.2592 -0.4332
vn 0.2845 0.9262 -0.2476
vn 0.9323 -0.3232 -0.1621
vn -0.9277 0.3353 0.1641
vn 0.0966 -0.2091 0.9731
vn -0.7463 0.6458 0.1610
vn -0.1150 -0.6823 0.7219
vn 0.9822 0.0237 -0.1865
vn -0.3172 -0.9435 0.0961
vn -0.2815 -0.3530 -0.8923
vn -0.3673 -0.8442 -0.3903
vn -0.7413 0.6052 0.2900
vn 0.9486 -0.2763 -0.1542
vn -0.9085 0.3812 0.1715
vn 0.2253 0.1604 0.9610
vn 0.0388 0.5294 -0.8475
vn 0.1902 0.0516 0.9804
vn -0.5995 0.7698 0.2189
vn 0.9755 0.2122 -0.0573
vn -0.0038 0.4353 -0.9003
vn -0.0089 0.1657 -0.9861
vn 0.1738 0.0948 -0.9802
vn 0.3497 0.0202 -0.9366
vn 0.5123 -0.0551 -0.8570
vn 0.6551 -0.1283 -0.7445
vn 0.7728 -0.1966 -0.6034
vn 0.8608 -0.2573 -0.4391
vn 0.9157 -0.3082 -0.2579
vn 0.9354 -0.3472 -0.0668
vn 0.9192 -0.3728 0.1269
vn 0.8676 -0.3841 0.3157
vn 0.7827 -0.3807 0.4924
vn 0.6677 -0.3626 0.6501
vn 0.5271 -0.3306 0.7828
vn 0.3662 -0.2859 0.8855
vn 0.1912 -0.2302 0.9542
vn 0.0089 -0.1657 0.9861
vn -0.1738 -0.0948 0.9802
vn -0.3497 -0.0202 0.9366
vn -0.5123 0.0551 0.8570
vn -0.6551 0.1283 0.7445
vn -0.7728 0.1966 0.6034
vn -0.8608 0.2573 0.4391
vn -0.9157 0.3082 0.2579
vn -0.9354 0.3472 0.0668
vn -0.9192 0.3728 -0.1269
vn -0.8676 0.3841 -0.3157
vn -0.7827 0.3807 -0.4924
vn -0.6677 0.3626 -0.6501
vn -0.5271 0.3306 -0.7828
vn -0.3662 0.2859 -0.8855
vn -0.1912 0.2302 -0.9542
vn -0.3534 -0.9231 -0.1519
vn -0.9203 0.3722 -0.1204
vn 0.9203 -0.3722 0.1204
vn -0.7258 0.5833 0.3647
vn 0.9998 -0.0112 -0.0154
vn 0.9642 0.0393 -0.2623
vn -0.7590 0.6402 0.1189
vn 0.9892 0.0314 -0.1433
vn -0.7370 0.6273 0.2517
vt 0.202199 0.815245
vt 0.303299 0.779456
vt 0.303299 0.864781
vt 0.934897 0.151649
vt 0.904964 0.101100
vt 0.964829 0.101100
vt 0.964829 0.202199
vt 0.904964 0.202199
vt 0.803344 0.712431
vt 0.822305 0.000000
vt 0.826987 0.712431
vt 0.684133 0.815245
vt 0.785232 0.779456
vt 0.785232 0.864781
vt 0.101100 0.815245
vt 0.202199 0.739798
vt 0.583033 0.815245
vt 0.684133 0.739798
vt 0.845098 0.741644
vt 0.151172 0.953223
vt 0.093769 0.970218
vt 0.093769 0.864781
vt 0.000000 0.779456
vt 0.101100 0.739798
vt 0.964829 0.000000
vt 0.481934 0.779456
vt 0.450768 0.856814
vt 0.392616 0.767907
vt 0.904964 0.303299
vt 0.583033 0.739798
vt 0.151172 0.864781
vt 0.208575 0.881776
vt 0.151172 0.970218
vt 0.590917 0.708940
vt 0.684133 0.000000
vt 0.676249 0.708940
vt 0.108983 0.708940
vt 0.202199 0.000000
vt 0.194316 0.708940
vt 0.886853 0.712431
vt 0.867891 0.000000
vt 0.882170 0.000000
vt 0.377815 0.954842
vt 0.297099 0.933853
vt 0.377815 0.864781
vt 0.434096 0.952609
vt 0.377815 0.932206
vt 0.434096 0.864781
vt 0.208575 0.954842
vt 0.289290 0.933853
vt 0.293195 0.965783
vt 0.521544 0.924646
vt 0.490378 0.864781
vt 0.521544 0.864781
vt 0.490378 0.932206
vt 0.434096 0.952609
vt 0.434096 0.864781
vt 0.964829 0.303299
vt 0.904964 0.334465
vt 0.334465 0.856814
vt 0.093769 0.962205
vt -0.000000 1.000000
vt -0.000000 0.864781
vt 0.998733 0.899877
vt 0.904964 0.937671
vt 0.904964 0.802452
vt 0.874238 0.869107
vt 0.859981 0.869901
vt 0.859981 0.741644
vt 0.888495 0.869901
vt 0.874238 0.869107
vt 0.888495 0.741644
vt 0.904964 0.741644
vt 0.785232 0.741644
vt 0.845098 0.741644
vt 0.923651 0.334884
vt 0.928807 0.568431
vt 0.923651 0.568458
vt 0.928807 0.334857
vt 0.933764 0.568349
vt 0.933764 0.334775
vt 0.938333 0.568217
vt 0.938333 0.334643
vt 0.942338 0.568039
vt 0.822607 0.741644
vt 0.826612 0.974152
vt 0.822607 0.973743
vt 0.826612 0.742053
vt 0.831181 0.974456
vt 0.831181 0.742357
vt 0.836138 0.974643
vt 0.836138 0.742544
vt 0.841294 0.974706
vt 0.841294 0.742608
vt 0.846450 0.974643
vt 0.846450 0.742544
vt 0.851408 0.974456
vt 0.851408 0.742357
vt 0.855977 0.974152
vt 0.855977 0.742053
vt 0.859981 0.973743
vt 0.904964 0.568458
vt 0.908968 0.802210
vt 0.904964 0.802032
vt 0.908968 0.568636
vt 0.913537 0.802342
vt 0.913537 0.568769
vt 0.918495 0.802424
vt 0.918495 0.568850
vt 0.923651 0.802452
vt 0.923651 0.568878
vt 0.928807 0.802424
vt 0.928807 0.568850
vt 0.933764 0.802342
vt 0.933764 0.568769
vt 0.938333 0.802210
vt 0.938333 0.568636
vt 0.942338 0.802032
vt 0.789237 0.974152
vt 0.785232 0.973743
vt 0.789237 0.742053
vt 0.793806 0.974456
vt 0.793806 0.742357
vt 0.798764 0.974643
vt 0.798764 0.742544
vt 0.803920 0.974706
vt 0.803920 0.742608
vt 0.809075 0.974643
vt 0.809075 0.742544
vt 0.814033 0.974456
vt 0.814033 0.742357
vt 0.818602 0.974152
vt 0.818602 0.742053
vt 0.822607 0.973743
vt 0.908968 0.568217
vt 0.904964 0.568039
vt 0.908968 0.334643
vt 0.913538 0.568349
vt 0.913538 0.334775
vt 0.918495 0.568431
vt 0.918495 0.334857
vt 0.547844 0.891081
vt 0.522555 0.898753
vt 0.521544 0.893671
vt 0.521544 0.888491
vt 0.522555 0.883410
vt 0.524537 0.878623
vt 0.527415 0.874316
vt 0.531079 0.870652
vt 0.535386 0.867774
vt 0.540173 0.865791
vt 0.545254 0.864781
vt 0.550435 0.864781
vt 0.555516 0.865791
vt 0.560302 0.867774
vt 0.564610 0.870652
vt 0.568273 0.874316
vt 0.571151 0.878623
vt 0.573134 0.883410
vt 0.574145 0.888491
vt 0.574145 0.893671
vt 0.573134 0.898753
vt 0.571151 0.903539
vt 0.568273 0.907847
vt 0.564610 0.911510
vt 0.560302 0.914388
vt 0.555516 0.916371
vt 0.550435 0.917382
vt 0.545254 0.917382
vt 0.540173 0.916371
vt 0.535386 0.914388
vt 0.531079 0.911510
vt 0.527415 0.907847
vt 0.524537 0.903539
vt 0.600445 0.891081
vt 0.577138 0.903539
vt 0.575156 0.898753
vt 0.580016 0.907847
vt 0.583680 0.911510
vt 0.587987 0.914388
vt 0.592774 0.916371
vt 0.597855 0.917382
vt 0.603036 0.917382
vt 0.608117 0.916371
vt 0.612903 0.914388
vt 0.617211 0.911510
vt 0.620874 0.907847
vt 0.623752 0.903539
vt 0.625735 0.898753
vt 0.626746 0.893671
vt 0.626746 0.888491
vt 0.625735 0.883410
vt 0.623752 0.878623
vt 0.620874 0.874316
vt 0.617211 0.870652
vt 0.612903 0.867774
vt 0.608117 0.865791
vt 0.603036 0.864781
vt 0.597855 0.864781
vt 0.592774 0.865791
vt 0.587987 0.867774
vt 0.583680 0.870652
vt 0.580016 0.874315
vt 0.577138 0.878623
vt 0.575156 0.883410
vt 0.574145 0.888491
vt 0.574145 0.893671
vt 0.808026 0.000000
vt 0.000000 0.864781
vt 0.904964 0.000000
vt 0.481934 0.864781
vt 0.583033 0.000000
vt 0.101100 0.000000
vt 0.863209 0.712431
vt 0.293195 0.965783
vt 0.208575 0.864781
vt 0.490378 0.924646
vt 0.964829 0.334465
vt 0.942338 0.334465
vt 0.859981 0.741644
vt 0.942338 0.568458
vt 0.822607 0.741644
s 0
usemtl Material
f 3/1/1 14/2/1 13/3/1
f 49/4/2 2/5/2 4/6/2
f 49/4/3 4/6/3 3/7/3
f 49/4/4 1/8/4 2/5/4
f 49/4/5 3/7/5 1/8/5
f 45/9/6 15/10/6 46/11/6
f 2/12/7 11/13/7 9/14/7
f 4/15/8 7/16/8 3/1/8
f 1/17/9 6/18/9 2/12/9
f 11/19/10 21/19/10 22/19/10
f 6/20/11 8/21/11 11/22/11
f 4/15/12 11/23/12 8/24/12
f 2/5/13 10/25/13 4/6/13
f 14/26/14 26/27/14 28/28/14
f 3/7/15 12/29/15 1/8/15
f 1/17/16 14/26/16 5/30/16
f 7/31/17 5/32/17 14/33/17
f 6/19/10 44/19/10 42/19/10
f 46/34/18 16/35/18 47/36/18
f 48/37/19 17/38/19 45/39/19
f 48/40/20 16/41/20 18/42/20
f 8/19/10 43/19/10 44/19/10
f 5/19/10 42/19/10 19/19/10
f 5/19/10 43/19/10 19/19/10
f 22/43/21 24/44/21 25/45/21
f 9/19/10 22/19/10 20/19/10
f 10/19/10 20/19/10 21/19/10
f 24/46/22 23/47/22 25/48/22
f 22/49/23 23/50/23 20/51/23
f 20/52/24 24/53/24 21/54/24
f 26/55/25 27/56/25 28/57/25
f 13/58/26 26/59/26 12/29/26
f 14/2/27 27/60/27 13/3/27
f 29/19/10 39/19/10 38/19/10
f 29/19/10 40/19/10 38/19/10
f 32/19/10 39/19/10 41/19/10
f 31/19/10 41/19/10 40/19/10
f 34/61/28 33/62/28 37/63/28
f 35/64/29 36/65/29 37/66/29
f 36/67/30 34/68/30 37/69/30
f 33/70/31 35/71/31 37/72/31
f 35/19/10 38/19/10 40/19/10
f 34/19/10 38/19/10 39/19/10
f 36/19/10 40/19/10 41/19/10
f 34/19/10 41/19/10 39/19/10
f 6/19/32 48/40/32 8/73/32
f 8/24/33 45/39/33 7/16/33
f 5/30/34 47/36/34 6/18/34
f 7/74/35 46/11/35 5/75/35
f 85/76/36 53/77/36 52/78/36
f 84/79/37 54/80/37 53/77/37
f 86/81/38 55/82/38 54/80/38
f 87/83/39 56/84/39 55/82/39
f 88/85/40 57/86/40 56/87/40
f 89/88/41 58/89/41 57/86/41
f 90/90/42 59/91/42 58/89/42
f 91/92/43 60/93/43 59/91/43
f 92/94/44 61/95/44 60/93/44
f 93/96/45 62/97/45 61/95/45
f 94/98/46 63/99/46 62/97/46
f 95/100/47 64/101/47 63/99/47
f 96/102/48 65/103/48 64/104/48
f 97/105/49 66/106/49 65/103/49
f 98/107/50 67/108/50 66/106/50
f 99/109/51 68/110/51 67/108/51
f 100/111/52 69/112/52 68/110/52
f 101/113/53 70/114/53 69/112/53
f 102/115/54 71/116/54 70/114/54
f 103/117/55 72/118/55 71/116/55
f 104/74/56 73/119/56 72/120/56
f 105/121/57 74/122/57 73/119/57
f 106/123/58 75/124/58 74/122/58
f 107/125/59 76/126/59 75/124/59
f 108/127/60 77/128/60 76/126/60
f 109/129/61 78/130/61 77/128/61
f 110/131/62 79/132/62 78/130/62
f 111/133/63 80/134/63 79/132/63
f 112/59/64 81/135/64 80/136/64
f 113/137/65 82/138/65 81/135/65
f 114/139/66 83/140/66 82/138/66
f 115/141/67 52/78/67 83/140/67
f 50/142/68 52/143/68 53/144/68
f 50/142/68 53/144/68 54/145/68
f 50/142/68 54/145/68 55/146/68
f 50/142/68 55/146/68 56/147/68
f 50/142/68 56/147/68 57/148/68
f 50/142/68 57/148/68 58/149/68
f 50/142/68 58/149/68 59/150/68
f 50/142/68 59/150/68 60/151/68
f 50/142/68 60/151/68 61/152/68
f 50/142/68 61/152/68 62/153/68
f 50/142/68 62/153/68 63/154/68
f 50/142/68 63/154/68 64/155/68
f 50/142/68 64/155/68 65/156/68
f 50/142/68 65/156/68 66/157/68
f 50/142/68 66/157/68 67/158/68
f 50/142/68 67/158/68 68/159/68
f 50/142/68 68/159/68 69/160/68
f 50/142/68 69/160/68 70/161/68
f 50/142/68 70/161/68 71/162/68
f 50/142/68 71/162/68 72/163/68
f 50/142/68 72/163/68 73/164/68
f 50/142/68 73/164/68 74/165/68
f 50/142/68 74/165/68 75/166/68
f 50/142/68 75/166/68 76/167/68
f 50/142/68 76/167/68 77/168/68
f 50/142/68 77/168/68 78/169/68
f 50/142/68 78/169/68 79/170/68
f 50/142/68 79/170/68 80/171/68
f 50/142/68 80/171/68 81/172/68
f 50/142/68 81/172/68 82/173/68
f 50/142/68 82/173/68 83/174/68
f 50/142/68 83/174/68 52/143/68
f 51/175/10 84/176/10 85/177/10
f 51/175/10 86/178/10 84/176/10
f 51/175/10 87/179/10 86/178/10
f 51/175/10 88/180/10 87/179/10
f 51/175/10 89/181/10 88/180/10
f 51/175/10 90/182/10 89/181/10
f 51/175/10 91/183/10 90/182/10
f 51/175/10 92/184/10 91/183/10
f 51/175/10 93/185/10 92/184/10
f 51/175/10 94/186/10 93/185/10
f 51/175/10 95/187/10 94/186/10
f 51/175/10 96/188/10 95/187/10
f 51/175/10 97/189/10 96/188/10
f 51/175/10 98/190/10 97/189/10
f 51/175/10 99/191/10 98/190/10
f 51/175/10 100/192/10 99/191/10
f 51/175/10 101/193/10 100/192/10
f 51/175/10 102/194/10 101/193/10
f 51/175/10 103/195/10 102/194/10
f 51/175/10 104/196/10 103/195/10
f 51/175/10 105/197/10 104/196/10
f 51/175/10 106/198/10 105/197/10
f 51/175/10 107/199/10 106/198/10
f 51/175/10 108/200/10 107/199/10
f 51/175/10 109/201/10 108/200/10
f 51/175/10 110/202/10 109/201/10
f 51/175/10 111/203/10 110/202/10
f 51/175/10 112/204/10 111/203/10
f 51/175/10 113/205/10 112/204/10
f 51/175/10 114/206/10 113/205/10
f 51/175/10 115/207/10 114/206/10
f 51/175/10 85/177/10 115/207/10
f 3/1/69 7/16/69 14/2/69
f 45/9/6 17/208/6 15/10/6
f 2/12/70 6/18/70 11/13/70
f 4/15/8 8/24/8 7/16/8
f 1/17/9 5/30/9 6/18/9
f 11/19/10 10/19/10 21/19/10
f 4/15/71 10/209/71 11/23/71
f 2/5/13 9/210/13 10/25/13
f 14/26/72 12/211/72 26/27/72
f 3/7/15 13/58/15 12/29/15
f 1/17/73 12/211/73 14/26/73
f 6/19/10 8/19/10 44/19/10
f 46/34/18 15/212/18 16/35/18
f 48/37/19 18/213/19 17/38/19
f 48/40/20 47/214/20 16/41/20
f 8/19/10 7/19/10 43/19/10
f 5/19/10 6/19/10 42/19/10
f 5/19/10 7/19/10 43/19/10
f 22/43/74 21/215/74 24/44/74
f 9/19/10 11/19/10 22/19/10
f 10/19/10 9/19/10 20/19/10
f 22/49/75 25/216/75 23/50/75
f 20/52/24 23/217/24 24/53/24
f 13/58/26 27/218/26 26/59/26
f 14/2/76 28/28/76 27/60/76
f 29/19/10 30/19/10 39/19/10
f 29/19/10 31/19/10 40/19/10
f 32/19/10 30/19/10 39/19/10
f 31/19/10 32/19/10 41/19/10
f 35/19/10 33/19/10 38/19/10
f 34/19/10 33/19/10 38/19/10
f 36/19/10 35/19/10 40/19/10
f 34/19/10 36/19/10 41/19/10
f 6/19/32 47/214/32 48/40/32
f 8/24/33 48/37/33 45/39/33
f 5/30/34 46/34/34 47/36/34
f 7/74/35 45/9/35 46/11/35
f 85/76/36 84/79/36 53/77/36
f 84/79/37 86/81/37 54/80/37
f 86/81/38 87/83/38 55/82/38
f 87/83/39 88/219/39 56/84/39
f 88/85/40 89/88/40 57/86/40
f 89/88/41 90/90/41 58/89/41
f 90/90/42 91/92/42 59/91/42
f 91/92/43 92/94/43 60/93/43
f 92/94/44 93/96/44 61/95/44
f 93/96/45 94/98/45 62/97/45
f 94/98/46 95/100/46 63/99/46
f 95/100/47 96/220/47 64/101/47
f 96/102/48 97/105/48 65/103/48
f 97/105/49 98/107/49 66/106/49
f 98/107/50 99/109/50 67/108/50
f 99/109/51 100/111/51 68/110/51
f 100/111/52 101/113/52 69/112/52
f 101/113/53 102/115/53 70/114/53
f 102/115/54 103/117/54 71/116/54
f 103/117/55 104/221/55 72/118/55
f 104/74/56 105/121/56 73/119/56
f 105/121/57 106/123/57 74/122/57
f 106/123/58 107/125/58 75/124/58
f 107/125/59 108/127/59 76/126/59
f 108/127/60 109/129/60 77/128/60
f 109/129/61 110/131/61 78/130/61
f 110/131/62 111/133/62 79/132/62
f 111/133/63 112/222/63 80/134/63
f 112/59/64 113/137/64 81/135/64
f 113/137/65 114/139/65 82/138/65
f 114/139/66 115/141/66 83/140/66
f 115/141/67 85/76/67 52/78/67
