# Blender 4.0.2
# www.blender.org
mtllib Flecha1.mtl
o Flecha
v -0.001384 -0.687011 -0.016314
v -0.091496 -0.110664 -0.117138
v 0.001543 -0.686522 -0.016134
v -0.088569 -0.110175 -0.116958
v 0.004363 -0.685950 -0.015387
v -0.085749 -0.109604 -0.116211
v 0.006969 -0.685318 -0.014102
v -0.083144 -0.108971 -0.114925
v 0.009259 -0.684650 -0.012328
v -0.080854 -0.108303 -0.113151
v 0.011145 -0.683971 -0.010133
v -0.078967 -0.107624 -0.110956
v 0.012557 -0.683307 -0.007601
v -0.077556 -0.106961 -0.108425
v 0.013438 -0.682685 -0.004831
v -0.076674 -0.106338 -0.105655
v 0.013755 -0.682128 -0.001928
v -0.076357 -0.105781 -0.102752
v 0.013497 -0.681656 0.000996
v -0.076616 -0.105310 -0.099828
v 0.012672 -0.681290 0.003829
v -0.077440 -0.104943 -0.096995
v 0.011313 -0.681042 0.006462
v -0.078799 -0.104695 -0.094362
v 0.009472 -0.680922 0.008793
v -0.080640 -0.104575 -0.092031
v 0.007219 -0.680935 0.010733
v -0.082893 -0.104588 -0.090091
v 0.004642 -0.681080 0.012208
v -0.085470 -0.104733 -0.088616
v 0.001839 -0.681351 0.013161
v -0.088274 -0.105004 -0.087663
v -0.001082 -0.681739 0.013554
v -0.091195 -0.105392 -0.087269
v -0.004009 -0.682228 0.013374
v -0.094122 -0.105881 -0.087449
v -0.006830 -0.682800 0.012627
v -0.096942 -0.106453 -0.088196
v -0.009435 -0.683432 0.011342
v -0.099547 -0.107085 -0.089482
v -0.011725 -0.684100 0.009568
v -0.101837 -0.107754 -0.091256
v -0.013612 -0.684779 0.007373
v -0.103724 -0.108433 -0.093451
v -0.015023 -0.685443 0.004842
v -0.105135 -0.109096 -0.095982
v -0.015904 -0.686065 0.002071
v -0.106017 -0.109718 -0.098752
v -0.016222 -0.686623 -0.000832
v -0.106334 -0.110276 -0.101655
v -0.015963 -0.687094 -0.003756
v -0.106075 -0.110747 -0.104580
v -0.015138 -0.687460 -0.006589
v -0.105251 -0.111114 -0.107412
v -0.013779 -0.687708 -0.009221
v -0.103892 -0.111362 -0.110045
v -0.011938 -0.687828 -0.011552
v -0.102051 -0.111482 -0.112376
v -0.009686 -0.687816 -0.013493
v -0.099798 -0.111469 -0.114316
v -0.007108 -0.687671 -0.014968
v -0.097221 -0.111324 -0.115791
v -0.004305 -0.687399 -0.015920
v -0.094417 -0.111052 -0.116744
v 0.006783 -0.735644 0.007589
v -0.059349 -0.312676 -0.066403
v -0.149472 -0.117381 -0.103378
v -0.149405 -0.116213 -0.096760
v -0.033269 -0.099956 -0.107627
v -0.033202 -0.098787 -0.101009
v 0.011535 -0.766041 0.012907
v -0.024584 -0.687771 -0.001912
v -0.024557 -0.687303 0.000740
v 0.021988 -0.680788 -0.003615
v 0.022014 -0.680320 -0.000963
vn 0.0870 -0.1585 -0.9835
vn 0.2774 -0.1233 -0.9528
vn 0.4571 -0.0834 -0.8855
vn 0.6193 -0.0403 -0.7841
vn 0.7577 0.0043 -0.6526
vn 0.8669 0.0488 -0.4961
vn 0.9429 0.0914 -0.3204
vn 0.9826 0.1304 -0.1325
vn 0.9845 0.1645 0.0606
vn 0.9486 0.1923 0.2513
vn 0.8763 0.2126 0.4323
vn 0.7703 0.2248 0.5968
vn 0.6347 0.2284 0.7383
vn 0.4746 0.2232 0.8514
vn 0.2964 0.2094 0.9318
vn 0.1068 0.1875 0.9764
vn -0.0870 0.1585 0.9835
vn -0.2774 0.1233 0.9528
vn -0.4571 0.0834 0.8855
vn -0.6193 0.0403 0.7841
vn -0.7577 -0.0043 0.6526
vn -0.8669 -0.0488 0.4961
vn -0.9429 -0.0914 0.3204
vn -0.9826 -0.1304 0.1325
vn -0.9845 -0.1645 -0.0606
vn -0.9486 -0.1923 -0.2513
vn -0.8763 -0.2126 -0.4323
vn -0.7703 -0.2248 -0.5968
vn -0.6347 -0.2284 -0.7383
vn -0.4746 -0.2232 -0.8514
vn -0.1522 0.9736 -0.1703
vn -0.2964 -0.2094 -0.9318
vn -0.1068 -0.1875 -0.9764
vn 0.7703 -0.2641 -0.5805
vn 0.4982 -0.0537 0.8654
vn -0.8644 -0.3561 0.3550
vn 0.1255 -0.4206 -0.8985
vn -0.0607 -0.4485 -0.8917
vn 0.9539 -0.0834 0.2885
vn -0.3975 -0.1880 0.8981
vn -0.6985 -0.4844 -0.5267
vn 0.8753 -0.2214 -0.4299
vn 0.3269 -0.0670 0.9427
vn -0.9026 -0.3936 0.1743
vn 0.3086 -0.3868 -0.8690
vn 0.8843 -0.0638 0.4625
vn -0.5534 -0.2294 0.8007
vn -0.5682 -0.4878 -0.6628
vn 0.9483 -0.1804 -0.2611
vn 0.1446 -0.0880 0.9856
vn -0.9045 -0.4264 -0.0113
vn 0.4814 -0.3484 -0.8043
vn 0.7824 -0.0521 0.6206
vn -0.6864 -0.2724 0.6743
vn -0.4143 -0.4827 -0.7715
vn 0.9865 -0.1428 -0.0804
vn -0.0417 -0.1159 0.9924
vn -0.8700 -0.4531 -0.1946
vn 0.6373 -0.3070 -0.7069
vn 0.6520 -0.0487 0.7566
vn -0.7914 -0.3151 0.5238
vn -0.2430 -0.4695 -0.8488
vn 0.9883 -0.1101 0.1051
vn -0.2247 -0.1497 0.9629
vn -0.8004 -0.4726 -0.3687
vn -0.9107 -0.4050 0.0807
vn 0.0124 0.1582 0.9873
vn 0.9928 -0.1196 0.0111
vn -0.0075 -0.1894 -0.9819
vn -0.1521 0.9736 -0.1703
vn -0.1523 0.9735 -0.1703
vn -0.1524 0.9735 -0.1703
vt 0.016667 0.000000
vt 0.021265 0.916419
vt 0.016667 0.916378
vt 0.021265 0.000040
vt 0.025687 0.916539
vt 0.025687 0.000160
vt 0.029762 0.916733
vt 0.029762 0.000355
vt 0.033333 0.916995
vt 0.066667 0.000803
vt 0.070238 0.914271
vt 0.066667 0.914612
vt 0.070238 0.000462
vt 0.074313 0.914018
vt 0.074313 0.000209
vt 0.078735 0.913862
vt 0.078735 0.000053
vt 0.083333 0.913809
vt 0.083333 0.000000
vt 0.087932 0.913862
vt 0.087932 0.000053
vt 0.092353 0.914018
vt 0.092353 0.000209
vt 0.096428 0.914271
vt 0.096428 0.000462
vt 0.100000 0.914612
vt 0.033333 0.000617
vt 0.036905 0.916733
vt 0.033333 0.916995
vt 0.036905 0.000355
vt 0.040980 0.916539
vt 0.040980 0.000160
vt 0.045402 0.916419
vt 0.045402 0.000040
vt 0.050000 0.916378
vt 0.050000 0.000000
vt 0.054598 0.916419
vt 0.054598 0.000040
vt 0.059020 0.916539
vt 0.059020 0.000160
vt 0.063095 0.916733
vt 0.063095 0.000355
vt 0.066667 0.916995
vt 0.100000 0.000803
vt 0.103572 0.914271
vt 0.100000 0.914612
vt 0.103572 0.000462
vt 0.107647 0.914018
vt 0.107647 0.000209
vt 0.112068 0.913862
vt 0.112068 0.000053
vt 0.116667 0.913809
vt 0.116667 0.000000
vt 0.121265 0.913862
vt 0.121265 0.000053
vt 0.125687 0.914018
vt 0.125687 0.000209
vt 0.129762 0.914271
vt 0.129762 0.000462
vt 0.133333 0.914612
vt 0.000000 0.000617
vt 0.003572 0.916733
vt 0.000000 0.916995
vt 0.003572 0.000355
vt 0.007647 0.916539
vt 0.324600 0.356062
vt 0.340313 0.326665
vt 0.369711 0.342378
vt 0.007647 0.000160
vt 0.012068 0.916419
vt 0.012068 0.000040
vt 0.083333 0.997839
vt 0.050000 1.000000
vt 0.116667 0.997839
vt 0.016667 1.000000
vt 0.143777 0.335056
vt 0.143777 -0.000000
vt 0.154221 0.000163
vt 0.245589 0.325763
vt 0.154221 0.000000
vt 0.336958 0.000000
vt 0.133333 0.335056
vt 0.133333 -0.000000
vt 0.143777 0.000163
vt 0.428326 0.325763
vt 0.336958 0.000000
vt 0.519694 0.000000
vt 0.154221 0.508500
vt 0.154221 0.325763
vt 0.164666 0.325763
vt 0.166760 0.460030
vt 0.164666 0.325763
vt 0.168853 0.325763
vt 0.209657 0.456322
vt 0.173039 0.325763
vt 0.246276 0.325763
vt 0.170946 0.460030
vt 0.173039 0.325763
vt 0.282894 0.456322
vt 0.319512 0.325763
vt 0.319512 0.399000
vt 0.319512 0.325763
vt 0.323699 0.325763
vt 0.033333 0.000617
vt 0.100000 0.000803
vt 0.066667 0.000617
vt 0.133333 0.000803
vt 0.370612 0.346910
vt 0.370612 0.351530
vt 0.369711 0.356062
vt 0.367942 0.360331
vt 0.365375 0.364173
vt 0.362108 0.367440
vt 0.358266 0.370007
vt 0.353997 0.371775
vt 0.349466 0.372677
vt 0.344845 0.372677
vt 0.340313 0.371775
vt 0.336044 0.370007
vt 0.332203 0.367440
vt 0.328935 0.364173
vt 0.326368 0.360331
vt 0.323699 0.351530
vt 0.326368 0.338109
vt 0.323699 0.346910
vt 0.324600 0.342378
vt 0.328935 0.334267
vt 0.332203 0.331000
vt 0.336044 0.328433
vt 0.344845 0.325763
vt 0.358266 0.328433
vt 0.349466 0.325763
vt 0.353997 0.326665
vt 0.362108 0.331000
vt 0.365375 0.334267
vt 0.367942 0.338109
vt 0.164666 0.508500
vt 0.323699 0.399000
s 0
usemtl Material.002
f 2/1/1 3/2/1 1/3/1
f 4/4/2 5/5/2 3/2/2
f 6/6/3 7/7/3 5/5/3
f 8/8/4 9/9/4 7/7/4
f 10/10/5 11/11/5 9/12/5
f 12/13/6 13/14/6 11/11/6
f 14/15/7 15/16/7 13/14/7
f 16/17/8 17/18/8 15/16/8
f 18/19/9 19/20/9 17/18/9
f 20/21/10 21/22/10 19/20/10
f 22/23/11 23/24/11 21/22/11
f 24/25/12 25/26/12 23/24/12
f 26/27/13 27/28/13 25/29/13
f 28/30/14 29/31/14 27/28/14
f 30/32/15 31/33/15 29/31/15
f 32/34/16 33/35/16 31/33/16
f 34/36/17 35/37/17 33/35/17
f 36/38/18 37/39/18 35/37/18
f 38/40/19 39/41/19 37/39/19
f 40/42/20 41/43/20 39/41/20
f 42/44/21 43/45/21 41/46/21
f 44/47/22 45/48/22 43/45/22
f 46/49/23 47/50/23 45/48/23
f 48/51/24 49/52/24 47/50/24
f 50/53/25 51/54/25 49/52/25
f 52/55/26 53/56/26 51/54/26
f 54/57/27 55/58/27 53/56/27
f 56/59/28 57/60/28 55/58/28
f 58/61/29 59/62/29 57/63/29
f 60/64/30 61/65/30 59/62/30
f 38/66/31 22/67/31 6/68/31
f 62/69/32 63/70/32 61/65/32
f 64/71/33 1/3/33 63/70/33
f 9/12/34 11/11/34 65/72/34
f 27/28/35 29/31/35 65/73/35
f 45/48/36 47/50/36 65/74/36
f 1/3/37 3/2/37 65/75/37
f 63/70/38 1/3/38 65/75/38
f 19/20/39 21/22/39 65/72/39
f 37/39/40 39/41/40 65/73/40
f 55/58/41 57/60/41 65/74/41
f 11/11/42 13/14/42 65/72/42
f 29/31/43 31/33/43 65/73/43
f 47/50/44 49/52/44 65/74/44
f 3/2/45 5/5/45 65/75/45
f 21/22/46 23/24/46 65/72/46
f 39/41/47 41/43/47 65/73/47
f 57/63/48 59/62/48 65/75/48
f 13/14/49 15/16/49 65/72/49
f 31/33/50 33/35/50 65/73/50
f 49/52/51 51/54/51 65/74/51
f 5/5/52 7/7/52 65/75/52
f 23/24/53 25/26/53 65/72/53
f 41/46/54 43/45/54 65/74/54
f 59/62/55 61/65/55 65/75/55
f 15/16/56 17/18/56 65/72/56
f 33/35/57 35/37/57 65/73/57
f 51/54/58 53/56/58 65/74/58
f 7/7/59 9/9/59 65/75/59
f 25/29/60 27/28/60 65/73/60
f 43/45/61 45/48/61 65/74/61
f 61/65/62 63/70/62 65/75/62
f 17/18/63 19/20/63 65/72/63
f 35/37/64 37/39/64 65/73/64
f 53/56/65 55/58/65 65/74/65
f 66/76/66 68/77/66 67/78/66
f 66/79/67 70/80/67 68/81/67
f 66/82/68 69/83/68 70/84/68
f 66/85/69 67/86/69 69/87/69
f 68/88/31 70/89/31 69/90/31
f 71/91/66 73/92/66 72/93/66
f 71/94/67 75/95/67 73/96/67
f 71/97/68 74/93/68 75/98/68
f 71/99/69 72/96/69 74/100/69
f 73/101/31 75/102/31 74/103/31
f 2/1/1 4/4/1 3/2/1
f 4/4/2 6/6/2 5/5/2
f 6/6/3 8/8/3 7/7/3
f 8/8/4 10/104/4 9/9/4
f 10/10/5 12/13/5 11/11/5
f 12/13/6 14/15/6 13/14/6
f 14/15/7 16/17/7 15/16/7
f 16/17/8 18/19/8 17/18/8
f 18/19/9 20/21/9 19/20/9
f 20/21/10 22/23/10 21/22/10
f 22/23/11 24/25/11 23/24/11
f 24/25/12 26/105/12 25/26/12
f 26/27/13 28/30/13 27/28/13
f 28/30/14 30/32/14 29/31/14
f 30/32/15 32/34/15 31/33/15
f 32/34/16 34/36/16 33/35/16
f 34/36/17 36/38/17 35/37/17
f 36/38/18 38/40/18 37/39/18
f 38/40/19 40/42/19 39/41/19
f 40/42/20 42/106/20 41/43/20
f 42/44/21 44/47/21 43/45/21
f 44/47/22 46/49/22 45/48/22
f 46/49/23 48/51/23 47/50/23
f 48/51/24 50/53/24 49/52/24
f 50/53/25 52/55/25 51/54/25
f 52/55/26 54/57/26 53/56/26
f 54/57/27 56/59/27 55/58/27
f 56/59/28 58/107/28 57/60/28
f 58/61/29 60/64/29 59/62/29
f 60/64/30 62/69/30 61/65/30
f 6/68/31 4/108/31 2/109/31
f 2/109/31 64/110/31 6/68/31
f 64/110/31 62/111/31 6/68/31
f 62/111/70 60/112/70 58/113/70
f 58/113/70 56/114/70 54/115/70
f 54/115/71 52/116/71 50/117/71
f 50/117/72 48/118/72 54/115/72
f 48/118/31 46/119/31 54/115/31
f 46/119/70 44/120/70 42/121/70
f 42/121/70 40/122/70 38/66/70
f 38/66/31 36/123/31 30/124/31
f 36/123/31 34/125/31 30/124/31
f 34/125/31 32/126/31 30/124/31
f 30/124/71 28/127/71 26/128/71
f 26/128/71 24/129/71 22/67/71
f 22/67/31 20/130/31 14/131/31
f 20/130/70 18/132/70 14/131/70
f 18/132/70 16/133/70 14/131/70
f 14/131/71 12/134/71 10/135/71
f 10/135/71 8/136/71 6/68/71
f 62/111/31 58/113/31 6/68/31
f 58/113/31 54/115/31 6/68/31
f 46/119/31 42/121/31 54/115/31
f 42/121/31 38/66/31 54/115/31
f 30/124/31 26/128/31 38/66/31
f 26/128/31 22/67/31 38/66/31
f 14/131/31 10/135/31 22/67/31
f 10/135/31 6/68/31 22/67/31
f 6/68/31 54/115/31 38/66/31
f 62/69/32 64/71/32 63/70/32
f 64/71/33 2/1/33 1/3/33
f 68/88/31 69/90/31 67/137/31
f 73/101/31 74/103/31 72/138/31
