# Blender 4.0.2
# www.blender.org
mtllib Suelo21.mtl
o Cube
v 1.000000 -0.858014 -1.000000
v 1.000000 -0.989015 -1.000000
v 1.000000 -0.858014 1.000000
v 1.000000 -0.989015 1.000000
v -1.000000 -0.858014 -1.000000
v -1.000000 -0.989015 -1.000000
v -1.000000 -0.858014 1.000000
v -1.000000 -0.989015 1.000000
v -0.622818 -0.858014 0.920455
v -0.632988 -0.858014 0.513515
v -0.585185 -0.858014 0.402583
v -0.016544 -0.858014 0.360991
v 0.187852 -0.858014 0.386904
v 0.179915 -0.858014 0.859611
v 0.157316 -0.858014 0.971440
v -0.346377 -0.858014 0.957872
v -0.585615 -0.858014 0.949149
v -0.620510 -0.848487 0.919100
v -0.630617 -0.848487 0.514689
v -0.583111 -0.848487 0.404447
v -0.018005 -0.848487 0.363114
v 0.185120 -0.848487 0.388867
v 0.177232 -0.848487 0.858634
v 0.154774 -0.848487 0.969768
v -0.345788 -0.848487 0.956284
v -0.583539 -0.848487 0.947616
v -0.345808 -0.858014 -0.345808
v -0.774687 -0.858014 -0.774687
v -0.760729 -0.858014 -0.339685
v -0.574071 -0.858014 -0.330212
v -0.780828 -0.858014 -0.965518
v -0.563403 -0.858014 -0.980737
v -0.503036 -0.858014 -0.965146
v -0.367395 -0.858014 -0.979110
v 0.614789 -0.858014 -0.965356
v 0.636283 -0.858014 -0.403442
v 0.317036 -0.858014 -0.359227
v 0.033804 -0.858014 -0.368796
v -0.298139 -0.858014 -0.349063
v -0.621152 -0.835076 0.485663
v -0.344154 -0.844342 -0.351236
v -0.761271 -0.844342 -0.768353
v -0.747695 -0.844342 -0.345280
v -0.566157 -0.844342 -0.336067
v -0.767243 -0.844342 -0.953950
v -0.555782 -0.844342 -0.968752
v -0.497070 -0.844342 -0.953588
v -0.365149 -0.844342 -0.967169
v 0.590099 -0.844342 -0.953793
v 0.611004 -0.844342 -0.407289
v 0.300512 -0.844342 -0.364286
v 0.025047 -0.844342 -0.373593
v -0.297792 -0.844342 -0.354401
vn -0.0000 1.0000 -0.0000
vn -0.0000 -0.0000 1.0000
vn -1.0000 -0.0000 -0.0000
vn -0.0000 -1.0000 -0.0000
vn 1.0000 -0.0000 -0.0000
vn -0.0000 -0.0000 -1.0000
vn 0.9620 0.2725 0.0162
vn -0.8850 0.2673 -0.3813
vn -0.5910 0.2521 0.7663
vn 0.9398 0.2841 0.1899
vn -0.0714 0.2065 -0.9758
vn -0.0266 0.1659 0.9858
vn 0.1223 0.2337 -0.9646
vn -0.9708 0.2386 0.0243
vn -0.0359 0.1664 0.9854
vn -0.7189 0.6948 0.0231
vn 0.0106 0.6568 -0.7540
vn 0.4778 0.8783 -0.0183
vn 0.0636 0.3616 0.9302
vn 0.1211 0.4699 0.8744
vn -0.0461 0.4157 0.9083
vn -0.0321 0.3126 0.9494
vn -0.7189 0.6947 0.0231
vn 0.0553 0.3619 0.9306
vn -0.0516 0.6744 -0.7366
vn 0.0635 0.3616 0.9302
vn 0.2040 0.5786 -0.7897
vn -0.0767 0.6630 -0.7447
vn -0.8850 0.2673 -0.3814
vt 0.409071 0.350861
vt 0.500000 0.000000
vt 0.500000 0.500000
vt 0.532750 0.000000
vt 0.532750 0.500000
vt 0.532750 0.500000
vt 0.565500 0.000000
vt 0.565500 0.500000
vt 0.000000 1.000000
vt 0.500000 1.000000
vt 0.565500 0.500000
vt 0.598251 0.000000
vt 0.598251 0.500000
vt 0.598251 0.500000
vt 0.631001 0.000000
vt 0.631001 0.500000
vt 0.245864 0.159752
vt 0.163548 0.336452
vt 0.103704 0.149354
vt 0.500000 0.000000
vt 0.532750 0.000000
vt 0.000000 0.500000
vt 0.565500 0.000000
vt 0.598251 0.000000
vt 0.163406 0.010532
vt 0.091753 0.121621
vt 0.289329 0.007140
vt 0.000000 0.000000
vt 0.294979 0.035097
vt 0.296963 0.153274
vt 0.103596 0.012713
vt 0.094296 0.019886
vt 0.056328 0.443672
vt 0.106482 0.332553
vt 0.059818 0.334921
vt 0.158151 0.494777
vt 0.403697 0.491339
vt 0.124241 0.491286
vt 0.109149 0.495184
vt 0.329259 0.339807
vt 0.258451 0.342199
vt 0.054793 0.491379
vt 0.175465 0.337266
s 0
usemtl Material
f 36/1/1 3/2/1 1/3/1
f 3/3/2 8/4/2 4/5/2
f 7/6/3 6/7/3 8/8/3
f 2/9/4 8/3/4 6/10/4
f 1/11/5 4/12/5 2/13/5
f 5/14/6 2/15/6 6/16/6
f 12/17/1 27/18/1 11/19/1
f 3/3/2 7/20/2 8/4/2
f 7/6/3 5/21/3 6/7/3
f 2/9/4 4/22/4 8/3/4
f 1/11/5 3/23/5 4/12/5
f 5/14/6 1/24/6 2/15/6
f 25/25/1 21/17/1 19/26/1
f 15/27/1 16/25/1 7/28/1
f 14/29/7 22/30/7 23/29/7
f 10/26/8 20/19/8 11/19/8
f 17/31/9 18/32/9 9/32/9
f 14/29/10 24/27/10 15/27/10
f 12/17/11 20/19/11 21/17/11
f 16/25/12 24/27/12 25/25/12
f 12/17/13 22/30/13 13/30/13
f 10/26/14 18/32/14 19/26/14
f 16/25/15 26/31/15 17/31/15
f 42/33/1 44/34/1 41/18/1
f 29/35/16 42/33/16 28/33/16
f 34/36/17 49/37/17 35/37/17
f 47/38/1 46/39/1 42/33/1
f 36/1/18 49/37/18 50/1/18
f 27/18/19 44/34/19 30/34/19
f 37/40/20 50/1/20 51/40/20
f 30/34/21 43/35/21 29/35/21
f 38/41/22 51/40/22 52/41/22
f 28/33/23 45/42/23 31/42/23
f 39/43/24 52/41/24 53/43/24
f 32/39/25 45/42/25 46/39/25
f 39/43/26 41/18/26 27/18/26
f 33/38/27 46/39/27 47/38/27
f 34/36/28 47/38/28 48/36/28
f 5/22/1 28/33/1 31/42/1
f 32/39/1 33/38/1 34/36/1
f 5/22/1 31/42/1 32/39/1
f 39/43/1 27/18/1 3/2/1
f 37/40/1 38/41/1 3/2/1
f 38/41/1 39/43/1 3/2/1
f 1/3/1 5/22/1 34/36/1
f 5/22/1 32/39/1 34/36/1
f 36/1/1 37/40/1 3/2/1
f 1/3/1 34/36/1 35/37/1
f 35/37/1 36/1/1 1/3/1
f 28/33/1 5/22/1 29/35/1
f 5/22/1 7/28/1 29/35/1
f 7/28/1 10/26/1 29/35/1
f 10/26/1 11/19/1 29/35/1
f 3/2/1 27/18/1 13/30/1
f 27/18/1 30/34/1 11/19/1
f 13/30/1 27/18/1 12/17/1
f 30/34/1 29/35/1 11/19/1
f 19/26/1 18/32/1 25/25/1
f 18/32/1 26/31/1 25/25/1
f 25/25/1 24/27/1 23/29/1
f 21/17/1 23/29/1 22/30/1
f 25/25/1 23/29/1 21/17/1
f 21/17/1 20/19/1 19/26/1
f 3/2/1 13/30/1 14/29/1
f 3/2/1 14/29/1 15/27/1
f 9/32/1 10/26/1 7/28/1
f 17/31/1 9/32/1 7/28/1
f 7/28/1 3/2/1 15/27/1
f 16/25/1 17/31/1 7/28/1
f 14/29/7 13/30/7 22/30/7
f 10/26/29 19/26/29 20/19/29
f 17/31/9 26/31/9 18/32/9
f 14/29/10 23/29/10 24/27/10
f 12/17/11 11/19/11 20/19/11
f 16/25/12 15/27/12 24/27/12
f 12/17/13 21/17/13 22/30/13
f 10/26/14 9/32/14 18/32/14
f 16/25/15 25/25/15 26/31/15
f 42/33/1 43/35/1 44/34/1
f 29/35/23 43/35/23 42/33/23
f 34/36/17 48/36/17 49/37/17
f 42/33/1 41/18/1 47/38/1
f 41/18/1 53/43/1 48/36/1
f 47/38/1 41/18/1 48/36/1
f 52/41/1 51/40/1 49/37/1
f 51/40/1 50/1/1 49/37/1
f 53/43/1 52/41/1 48/36/1
f 46/39/1 45/42/1 42/33/1
f 49/37/1 48/36/1 52/41/1
f 36/1/18 35/37/18 49/37/18
f 27/18/19 41/18/19 44/34/19
f 37/40/20 36/1/20 50/1/20
f 30/34/21 44/34/21 43/35/21
f 38/41/22 37/40/22 51/40/22
f 28/33/23 42/33/23 45/42/23
f 39/43/24 38/41/24 52/41/24
f 32/39/25 31/42/25 45/42/25
f 39/43/26 53/43/26 41/18/26
f 33/38/27 32/39/27 46/39/27
f 34/36/28 33/38/28 47/38/28
l 19 40
